<svg id="Слой_1" xmlns="http://www.w3.org/2000/svg" viewBox="0 0 469.5 151.5"><style>.st0{fill:#DB0000;}</style><path class="st0" d="M70.1 70.7c.6-.5.6-.5 0 0zm153.7-10.6c-.3 0-.3 0 0 0zm12.4-23.8c.2 0 .2 0 0 0zM11.6 33.9c.6 0 .6 0 0 0zm77.9-6.7c-.2.3-.2.3 0 0zm13.9 90.4c-.3 0-.3 0 0 0zm-28-63c.3 0 .3 0 0 0zm-51 67.4c-.3.3-.3.3 0 0zM.8 32.2c.3.3.3.3 0 0zm436 45.8l.1-.5h-.2l.3-.2-.5.2-.3.2.6.3zm-306.6-3.3c.3-.5.5-.3.5.2-.2-.2-.3-.2-.5-.2zm39 9.9h.2c.4 0 .6 0 .4.2.2-.2.2-.4.2-.4 0 .2 0 .2.2.4v.6c.2.6.6 1.1.8 1.3v.4h-.4l-.4-.4c.2.2.2.4 0 .4 0 .2.2.2.4 0v.2l-.6.7.6 2c.2 0 .7-.4.9-1.3v-.6c.2 0 .6-.2.9-.4.6.2 1.1.4 1.3.5l-.2.4h.4l.2-.2.2.2v.2h-.2l.4.2v.2h-.2c-.2.2-.4.6-.4.9h.4l-.2-.4h.2v.2c.2 0 .4.4.4 1.1l.2.2c.2.2 0 .2-.2.4h.2v.2c.2.2 0 .4-.4.6.2 0 .6.2.9.7l-.2.2.4.2c0 .2 0 .2.2.4.2.4.4.9.2 1.1 0 .2-.2.2-.4.2V95l-.2.2V95l-.2.2.4.2c-.2 0-.4.2-.7.6l.2-.2h.2l.4-.2.6.4c0-.6 0-.9.2-.6l.4-.9c0 .6.2 1.1.6 1.5h-.2v-.2l-1.1.8-.2-.2c-.2 0-.2.2-.2.6h.4c.2-.2.4 0 .6.2-.4.6-.7 1.5-.7 2.6 0 2.8.8 4.1 2.8 4.1.4 0 .6 0 .9-.2v.2c.4.2.4.7.2.9h.4c.2-.2 0-.4-.2-.7-.2-.2-.2-.2.2-.4h-.4c.2-.2.4-.2.4-.4.2.2.4.4.2.4h-.2l.4.2v.4c-.2.4-.2.6 0 .6.2.4.4.7.6.4l.2.2c.6.4.9.7.9.4l.4.4v-.4h.2c.6.9 1.5 1.5 2.1 2 .2-.2.4-.2.4.2.4-.4.4-.6.2-.6l-.6-.4h.6l.2-.2-.2.4.4.4v.2l.2.6h-.2v-.2l-.4-.2.2.4-.2.2.6.7v-.2c.4 0 .6.2.4.4l-.4.4.9.2.2.2v-.2c.6.4.9.7.9.4.6.2 1.1.4 1.1.2l-.2.4v.2l.4-.4.4.4c0-.9 0-1.3-.2-1.1l-.2-.2-.2-.2v-.2c0-.2-.2-.4-.4-.7 1.1.2 1.9.5 2.6.5.6 0 1.1 0 1.3-.2-.2.2-.2.4-.2.9 0 .6.2 1.5.8 2.6h-.4l.6.4h.2c.9.9 4.7 2.2 11.8 4.1l10.3 2.7-.2.2.4.2v-.2h.6v.4l.4-.2c.2.2.4.2.9 0 .2 0 .2.2.2.7.4 0 .6 0 .9.2 2.4 0 4.5.3 6.9.5l7.6-1.2.2.2v-.2c.6 0 1.1-.2 1.5-.6 2.4-1 4.1-2.1 5.4-3.2.6-.2 1.1-.6 1.3-.8l.4-.6h1.1c1.1-.2 3.5-1.5 4.6-1.4 1.7-1.5 3.1-2.3 3.9-2.5.7-1.1 1.1-1.7 1.1-1.9l-.2-.2c.2-.2.2-.4.4-.4l-.2-.2v-.2h.2v-.6l-.9.6c.2 0 .4 0 .4.2l-.7.4c0-.2 0-.4-.2-.7v.4c-.2 0-.2.2-.4.4v-.6h-.2l.2-.2c-1.1 0-1.3-.2-.6-.4v-.2h-.2v.2h-.4l.2-.2-.2-.2.7-.4c-.6 0-.9 0-1.1.2h-.2v-.2l-.4.2v-.2l-.2.2h-.2l.2-.2-.2-.2h-.2l.2-.2h-.2c-.2-.2 0-.9-.6-.9l.2-.4h-.2l-.4.4v-.2c0-.2.2-.6.4-1.3l-.9-.9.2-.2.2.2.2-.2h-.2l.7-.6h-.2c.2-.2.4-.4.7-.4l.2.2-.2-.4.2-.2-.6.2c-.2-.2 0-1.1-.8-1.1-.2 0-.6 0-1.1.2-.6 0-.9 0-.9-.2l-.2-.2h-.6v-.2l-.9.6h-.9c.2 0-.4.2-1.7.6-.2.2-.9.2-1.5 0-.4-1.1-.6-1.7-.4-2.2 0-1.5-.2-2.6-.4-3.5v-1.3c-.2 0-.2-.2-.2-.7.4-.2.7-.4.4-.6-.2-.2-.2-.2-.2-.4h-.2c0-.2 0-.4.2-.6h-.2l.2-.4h-.2l-.2-1.7c.2-.2.2-.4.2-.6s0-.6-.2-.9l.4.2v-.4c-.4-.7-.6-1.1-.6-1.7v-1.3h.2l-.2-2.6h.2c-.2-.7-.4-1.3-.4-1.5.9-.4.9-.6.2-.6-.2-1.3-.4-2.2-.4-2.8l.2-.2c-.2-.6-.4-1.1-.4-1.7 1.1.2 1.5.2 1.7 0 .4-.2.7-.4.4-.6-.2-.2-.4-.4-.6-.4h-.2c-.2 0-.4 0-.4-.2V75s-.2 0-.4-.2l.2.4h-1.1c0-.4 0-.6.2-.6h-.2V74c.4 0 .6 0 .6-.2h.2v-.4h.4l-1.1-1.1-.2.2v-2.2l-.4-.9.4-.6-.2.2c-.2 0-.4 0-.6-.2 0-.2 0-.2.2-.4l.2.2c.7-.6.9-1.1.4-1.1h-.4l-.4-.9c-.2 0 0-.2.2-.6.2-.2.2-.2.2-.4l-.2-.2c-.2-.2-.2-.4 0-.4v-.2l.2-.2v-.2h-.2c0-.6 0-.9-.2-.7-.9-.4-.9-.7-.2-.6 0-.2 0-.4.2-.4-.2-.4-.2-.7-.2-.9-.4-.2-.4-.4 0-.4.2-.2.4-.4.2-.6h-.2c-.4-.4-.4-.7.2-.6h.2v-.6l-.2.2c-.2-.4-.2-.6-.2-.9l-.2-.2.2-.2v-.9c0-.9 0-1.3-.2-1.5.2-.2.4-.4.4-.6l-.2-.7v-1.3c-.4-.9-.6-1.3-.4-1.5l.2.2c-.2-.2-.2-.4 0-.4l.2-.6h-.2v-.4h-.2l.2-.2v-.9l.7-.9-.4-.2v-.4c0-.2 0-.2-.2-.4l-.2-.7c-.2-.4-.2-.9-.4-1.1h-.2v-.6l.2-.2h.2c.4 0 .6 0 .6-.2h.2l-.2-.2c-.2 0-.4-.2-1.1-.4.2-.2.2-.4 0-.4l-.4-.4h.6c.2-.2.2-.2.2-.4h-.2v-.9h-.2c-.2 0-.2 0-.4-.2l.2-.2h.2c-.2-.2-.2-.6 0-.9.2-.2 0-.2-.4-.2h-.2c.4.2.4.7.2.9h-.6l-.2-.2.7-1.3.6.4c0-.6.4-1.3.5-1.9l-.2.2-.2-.2v-.2l-.2-.2-.4.4v-.9h-.4l.2-.2h-.4l-.2-.2.2-.2V37c.6.4.9.7.9.4V37c-.2 0-.4 0-.9-.2v-1.5h.9v-.6c-.2 0-.4.2-.9.4 0-1.5-.2-2.8-.6-3.9 0-.6 0-.9.2-.6.9 0 1.3 0 1.3-.2V30l.2-.4h-.9c-.4 0-.6.2-.7.4v-.2l-.4.2-.2.2c0-.2 0-.2-.2-.4h.2c-.2 0 0-.9-.6-.9v.2l-.2-.2v-.4c-.2 0-.4-.4-.4-1.1l-.2.2.2.2-.2.2.2.2v.2h-.2l-.2-.2.2-.2c-.2-.2-.2-.4-.4-.2v.4h-.4c-.6 0-1.1.2-1.5.6v-.2l-.2-.2c-.2-.2-.4-.2-.6 0l.6.2c-.2.2-.2.4-.2.6v.2l-.2.2-.2-.2.2-.4c-.2 0-.2-.2-.2-.9l.2-.2v.2c.4-.2.7-.4.4-.6l-.4-.2v.4c-.2-.2-.4-.4-.4-1.1l.3-.6v-.6c-.2 0 .2-1.1-.4-1.1v.4c0 .2 0 .4.2.7 0 .2 0 .4-.2.6l.2.2c.2.2.2.4.4.4l-.4.4c.2.2.2.2.2.4 0 .4 0 .6.2.7v.6h-.2v-.6h-.2c0 .2-.2.4-.7.9h.4l.2.2v.2l-.2.2v.4c-.2 0-.4 0-1.1.2 1.1 0 1.5.2.9.4v1.1h.2v.2c-.2.6-.2 1.5-.3 2.6v1.3h-.2l-.2.2.2.2h-1.1c-.4 0-.9.2-1.3.4-.7.6-1.3 1.7-1.8 3.2-.2 0-.2 0-.4.2h.4v.6c0 1.5.4 2.8 1.5 3.7v.4c.2.6.4.9.6 1.1v-.2c.4.2.6.4.4.7l-.4-.2v.4l.2.2v.2c.2.2 0 .2-.4.2l.2.2c0 .2 0 .2-.2.4v1.1c.2-.2.2-.2 0-.4l.4-.4-.2.2h.2v1.1h.2v.6s-.2 0-.4-.2l.2.9.2-.2c0 .2 0 .6.2 1.1v.9h.4l-.2.2c.2 0 .2.2 0 .4 0 .2-.2.2-.4.2l.2.4c-.2.2 0 .6.4 1.1l-.2.2h.2v.2c.2.2.4.4.4.7-.2.2-.2.6-.2.9h-.2c.2-.4 0-.6-.2-.6h-.2l.2.7-.2.2v.2l.4.4c0 .2 0 .4-.2.6l.2.2v.2l-.2.2v1.3h.2c0 .2 0 .2-.2.4h.6c-.2.2-.2.4-.4.4v.4h-.4l.4.2c-.2.2-.7.2-1.1.4l.2.2-.2.2h.2c.2-.2.4-.2 1.1-.2v.4l.2-.2c.2 0 .2.2.2.9h-.2V63l-.4.4c-.9-.2-1.7-.5-2.4-.5-.3 0-.7.1-1.3.2l-1.9-.7h-.2c.4-.3-.2 0-.1-.5l-4.5-.4c-1 .1-1.8.3-2.4.4l.2.1v.2c-.1.2-.1.2-.3.2l-.1-.3c-.1.2-.1.2-.1.4l-1 .2c-.2-.1-.6-.2-1.2 0l.1.3c-.1.2-.1.2-.3.1-.5.1-1 .2-1.8.3-.5 0-1 .1-1.5.2-.2-.6-.3-.4-.6.5-.2-.1-.4-.1-.3.2l-.6.2.4.4c-.2-.1-.4-.1-.5.1l.1-.2c-.2-.1-.5 0-1 .1l-.1.2c.1.5-.1.4-.6-.2l-.3.2.2.1V65l.4.2h-.2c0 .2.2.1.5 0l-.4.6v.2h.2c0 .2-.1.2-.4.3l-.1-.3c-.2.6-.5.8-.8.9-.2 0-.3.1-.5 0l-.1.2-.1.2.1.3.1-.2.1.3-.2-.1c0 .2-.2 0-.4-.2v-.2h-.2c0 .2.1.3.3.4-.4-.1-.8 0-1.3.2l.1-.2h-.2v.2c-.5.1-1.5.7-2 .8-.4-.2-.6-.4-.8-.3-.8 0-2 .7-3.6 1.8l-.2.7c.1.1.1.1-.1.2-.5.1-.8.1-1.2.1 0 .6 0 .6-.2.4 0 .2-.2.4-.4.4-.2-.2-.2-.2-.4-.2s-.4.2-.7.4c-.2.2-.4.2-.9 0v.2h.4c0 .2-.2.2-.4.2l-.4.4h-.2c-.4 0-.4.2-.2.4h-.2c-.4.4-.7.6-.7.9.9.4 1.1.7.4.7l-.2.2h.2v.2l-.2.2c-.2-.2-.2-.4-.4-.4v-.2l-.2.2c0 .2-.2.2-.4.2l.4.2v.2h-.9l.2.2-1.3.4.4.2.2.2c-.2.2-.7.4-.9.4h-.6c.2-.2.2-.2.4-.2v-.2l-.2-.2v.2c0 .2-.2.2-.4 0 0-.2 0-.4.2-.4v-.2l-1.1-1.1c-.2-.2-.6-.2-.9-.2h-.9v.2h-.2l-.2-.2v.2c0 .2-.2.2-.6.2l.2.4c-.4 0-.6 0-.4.2l-.9.2c.2.2.2.4 0 .4l-1.5 1.1h.4l.2.2.2.2-.2.2c-.2-.2-.4 0-.4.6l-.2-.2v.4l-.2.2h.2c-.7.6-.9 1.3-1.5 1.3-1.1-.2-2.2-.5-2.8-.5-1.1 0-2.2.2-3 .6h-.2c.2-.2.4-.4.4-.6l-.2-.4c-.2 0-.2 0-.4-.2h-.6v.2c-.6 0-1.1.6-1.8 1.9v.4c0 .4-.2.6-.4.9h.2l-.7.9.5 1zm38.1-16.3l-.2.1.2-.1zm-8.4 2.4c-.2.1-.4.1-.7.2v-.2l.3-.1v.2l.4-.1zm10.8 39.3h1.3v-.2h.9l-.2-.2h.4v-.4l-.2.2v-.2h-.6c-.2 0-.7.2-1.5.4l-.2-.2v-.2c.2-.2.4-.4.4-.6l-.2.2c-.2 0-.2 0-.4.2-.6-2-2.5-3.3-5.6-4 0-.2 0-.2.2-.4v-.6c0-1.5-.6-2.6-1.7-3.5l-.2-.6v.2c-.2-.2-.6-.4-1.1-.4-.6-.2-1.3-.4-1.9-.5-.6 0-1.3 0-1.7.2-.4-1.5-1.5-2.4-3.2-2.6l-.2.2-.4-.2h-1.5c.2-.2.2-.6.2-1.3l1.3.5c.2.2.2.4.4.4l.4.2c.2.2.2 0 .2-.2l.2.2c.4-.4.7-.6.9-.4l.7-.6-.9-.7.2-.2-.2-.4c.4 0 .6 0 .7-.2.2-.2.2-.2.4 0l.4-.2-.4-.7-.4.2c-.2-.2-.4-.4-.6-.2v.2h-.4v.2l-.6-.2-.7.9c-1.1 0-1.5 0-1.1-.2l-.2-.2v-.4c0-1.1 0-1.7-.2-2.2.2-.2.4-.2.6-.2l-.2-.2-.4.4c0-.4 0-.6-.2-.9l.4-.4-.2-.2h-.2v-.9l1.7.9-.7.6c0 .6 0 .9-.2.6l.2.4 2.2-1.3h.2c3.7.1 6.1-1.9 6.8-6h.6l2-.8 1.3-.4c.6 0 1.1-.2 1.7-.6v.2l.2-.2h.2l.4-.4h.6c0-.2 0-.4-.2-.6l.6.2-.4.4 1.7-.4h.9c3 0 5.6-.4 7.8-1 .2 0 .6 0 1.1.2h1.9c.4-.2.7-.2.9-.2v1.1l-.4.2c.2 0 .4 0 .4.2s-.2.2-.4.2l.2 1.1.4-.2c-.4.9-.7 1.1-.7.6h-.4v1.1l.2.7c-.2 0-.2.2-.2.4v2.4l.4-.4h-.4l.2-.2h.4l-.2-.2h.4v.4l-.2.2c.2 0 .2.2.2.4h-.4v.4h-.2l.2.7.4-.4c.2-.2.4-.2.4 0v1.5h.4c.2 2.6.4 4.5.3 6.1h-.6c.2.2.4.2.6.2v.9c.2.6.4 1.5.4 2.6v2.6c.2.2.2.9.2 1.9.4 1.1.6 1.5.4 1.7h-.2c-.2 0-.2 0-.4.2.2.2.2.2.4.2h.2l-.4.2v1.3c-1.7.2-2.8.4-3.2.4l-.4.4v-.2c-.2-.2-.6 0-1.5.2h.4-.4c-.2 0-.6 0-.9.2h-.2c.2-.2.2-.2.4-.2-.6 0-.9 0-1.1.2l.2.2-.2.2h-.2c0 .2 0 .2.2.4l-.4.2c-.2-.2-.4-.2-.9 0 0-.2-.4-.4-1.1-.4v-.2h-.6c.2.2.2.2.4.2h-.6c-.2.2-.7.2-.9 0l-.6-.4c-.2 0-.7.2-.9.4 0 .2 0 .2-.2 0v-.2 1.3h-.9v.2H210v-.9c-.3-.4-.3-.4-.3-.6zm23.6-85.4l1.3-.2-.4-.2.7-.4h.4v-.2c.2-.2.2-.2.4-.2s.2.2.2.4h.2v-.2l.2.2v.2h.2v.2c.2-.4.2-.6 0-.9-.4-.2-.6-.4-.6-.7l-.4.2c0-.2 0-.2.2-.4V22c.2-.4.4-.9.5-1.3-.2.2-.2-.4-.2-1.5 0-.2 0-.4.2-.6V18l-1.3 2.1.2.2-.7.9c.2.2.2.4.2.7-.9 4.1-1.1 1.9-1.5 2.8l.2-.1zm-53.2 56s.2-.2.4-.9l-.2-.2c.2 0 .2-.2.2-.4l.2.2c.4 0 .6-.2.7-.4h.2c0-.9.7-.2.7-.9l.4.9-.4.9h-.2.2c-.2.4-.4.6-.7.4.2-.2-.2-.2-.9-.2v.7l-.6-.1zm42 22c-.6.2-1.5.2-2.4 0v.4l.2.2h.2c.2.2.4 0 .7-.2 1.1.2 2.4.2 3.9-.2-.9-.2-1.7-.4-2.6-.2zm-2.2 2.8c1.9-.2 3-.4 3-.4l.7-.4c-1.1 0-1.5-.2-1.3-.4-1.1.6-1.7.8-2.2.6v.6h-.2zm-11.6-6.5l.2.2h.2v-.2l.2.4c-.2.2-.4.4-.2.6l1.9-.4-.2-.4-.2.4v-.6l-.2-.2.2-.2-.9-.2c-.3 0-.7.2-1 .6zm-5.8-16.7s.2 0 .4.2h.6c.9 0 1.7-.2 2.6-.6.2-.2 1.3-.8 1.3-1.1.2 0 .2 0 .4.2-.6.2-.9.4-1.1.6h.2l-.4.4c-.4 0-.7.2-.9.4-.2.2-.7.2-1.1 0-.2.4-.7.6-1.5.6l-.4-.4v.6h-.2l.1-.9zm8 .8c1.5 0 2.8-.2 4.1-.6-.6-.2-1.1-.2-1.5-.2 0 .2-.6-.4-1.3.4.2.2-.2.2-1.3.2h-.2c-.2 0-.4 0-.7.2h.9zm-11.6 11.7c.2.2.4.4.4.7.2-.2.4-.2.7-.2.2 0 .4.9 1.1.9v-.9c-.2 0-.4-.9-1.3-.7-.9 0-1.1 0-.9.2zm-11.1 17.8l.2-.2.2.2h.2c-.2-.2 0-.2.7-.2.2 0 .2-.2-.4-.9h-.4s-.4.2-1.1.6l.6.5zm-3.3-37.7c.2 0 .7-.2.9-.4-.2.2-.6-.7-.9-.7-.2 0-.4.2-.7.4-.2-.2-.2 0-.2.6l.9.1zm11.4 16.6h.2v.4c.2-.2.2 0 .4.2.4-.4.4-.9.2-1.1l.2-.2h-.4l-.2-.2-.2.2h-.2v.7zm9.8 7.3h1.5l-1.1-.7c-.9 0-1.3 0-1.1.2l.7.5zm22.9-44.6s0-.2.2-.4l.4-.4v-.2l.2.2v.2c0 .6 0 1.1-.2 1.3v.4h-.4l.2-.6v-.2h.2v-.2l-.6-.1zm-2.9 5.3l.4-.4v-.6h.2l-.2-.4-.2-.2c0 .2 0 .2-.2.4l.2.2c-.2.2-.2.2-.2.4s0 .2-.2.4h-.2l.2.4c.2-.2.2-.2.2 0v.2l.4-.4h-.4zm-49.4 10.2s.2 0 .9.2l.4-.4c-.2-.2-.4-.2-.9-.2-.1-.1-.4.1-.4.4zM224.7 56c0 .2.2.4.6.4 0-.2 0-.4.2-.6l-.2.2-.2-.6-.4.4v.2zm-3.8 53.9s.2 0 .7-.2v-.2h.9l-.2.2c-.2.2-.4.4-.9.4-.1.2-.3 0-.5-.2zm-24.4-14.6c.2-.2.6-.2.9-.2h.4l-.2-.4-.2.2c-.2-.2-.6-.2-.9 0v-.2.6zM175 72.1c.4.2.9.2 1.5 0l-.2-.2c-.6 0-1.1 0-1.3.2zm1.6 24.5l.4.9.4-.4v-.4l-.2-.2c-.1-.2-.4-.2-.6.1zm51-51.2v1.1l-.6-.9h-.2v-.2h.8zm-15.5 64.8c0-.4-.2-.4-.4-.2l-.4.2c0 .2.2.4.4.4l.4-.4zm-39.8-30.6h.4c0-.4-.2-.7-.4-.7l-.4.4.4.3zm8.7 24.6c.2 0 .2 0 .4-.2l.2.2c0 .2 0 .4-.2.6l-.4-.6zm45.6-45.4l.2-.2h-.4l.2-.2h-.4v.4l.4.4v-.4zm8.9-35.1c0 .2 0 .2.2.4.4 0 .6 0 .9-.2-.7-.2-1.1-.2-1.1-.2zm-7.2 6c.2-.2 0-.2-.9-.2l.9.2zm-4.7 8.5l.2-.2-.2-.2c.4 0 .6 0 .4-.2l-.6-.2.2.2c.2 0 0 .2-.2.4l-.2-.2.4.4zm12.1-12.5h.4c-.2-.7-.2-.9 0-1.1-.2.2-.4.4-.4 1.1zm-50.1 79.6s.2.2.4.7l.2.2h-.2c-.2.2-.4 0-.4-.9zm63.7-1.3c.6.7.9.7.9 0h-.9zm-21.5-56.8h-.2c-.2 0-.4-.2-.4-.7l.6.7zm-44.7 32.2c0 .2-.2.4-.7.4l.2-.2v-.2l.2-.2.3.2zm50.2-53.3V25c-.2.2-.4.2-.7.2l.7.9zm-63.4 57.4c.2.2.2.2.4.2v.2h-.2l-.4.4.2-.8zm55.2-28.4c.4.7.9.7 1.1.2-.6 0-.9 0-.6-.2h-.5zm10.7-22.5l.2.2h.2c0-.6-.2-.7-.6-.2h.2zm-7.2 19.7h.2c.2.2.2.2.2.4h-.2v-.2c-.2 0-.2.2-.2.4l-.4-.7.4.1zm-24.4 50.5l.2.7.2-.2h.2v-.2c-.4-.3-.6-.3-.6-.3zm24.3-72.9c.2 0 .4 0 .4.2l.2-.2v-.2c-.4.2-.6.2-.6.2zm7.3 5.7c.2-.2.4-.2.2-.4v-.4h-.2v.8zm-17.9 76h.4c0 .6-.2.6-.7.2l.3-.2zm-11.3-12.3s-.2 0-.4.2c.2.5.4.5.4-.2zm2.6-18.3l-.7.4c0-.2 0-.2-.2-.4h.9zm-38.9 4.9c0-.2-.2-.2-.4-.2l-.2.4c.2-.2.4-.2.6-.2zm-.5 1.1v.4c.2-.2.2-.4.2-.6l-.2.2zm55.7-29.5c.6.2.9.2.9-.2 0 .2-.2.2-.4.2l.2-.2v-.2c0 .2-.2.2-.7.4zm-.2-.9v.4h.2v-.4l.2-.2h-.2l-.2.2zM187.5 76s0 .2.2.4c.2-.2.2-.4.2-.4h-.4zM227 62.9c-.2 0 0 .2.2.4-.2-.2-.2-.4-.2-.4zm-2.4 17.5h-.4l-.2-.2.6.2zm-11.9 28.7s-.2 0-.4-.2v.4c.2.1.2.1.4-.2zm5.6.3h-.6l.2.2.4-.2zm7.5-72.9l.2-.2-.2-.2v.4zm1.1 16.9v.4-.4zm-9.7 57.7s.2 0 .7-.2l-.2.2c-.2 0-.2 0-.4.2l-.1-.2zm8.4-30.9h-.2v-.4l.2.4zm10.1-39.4l-.2-.2c-.2.2 0 .2.2.2zm-30 58.7l.2.4.2-.4-.2-.2-.2.2zM229 27.7v-.2c-.5 0-.5 0 0 .2zm-41.4 85.4l.7-.6c-.5.4-.7.6-.7.6zm48.4-76c.2-.2.4-.2.4-.4l-.4.4zm-1.2-11.4c.2 0 .2.2.2.4v-.2l-.2-.2zm.8 5.1h.2-.2zm-41.7 65.3l-.2.4.2-.4zm31.8-37.7l-.4-.7.4.7zm.5-1.6zm2.3-30.4l.2.2-.2-.2zm20.7 81.1l-.4-.2.4.2zm-23.4-52.6l-.2.2.2-.2zm13.6 12.7l-.2-.2.2.2zM190.5 73h-.4.4zm63.5 35.2l.2.2h.2l-.4-.2zm-39.1 1.6h.4-.4zm8.3-71.6v.4-.4zm12.6-4.5l.2.2-.2-.2zm-7.6 2.4l-.2-.2.2.2zm-21.4 63.5l-.2-.4.2.4zM187.9 76h.2-.2zm-6.7 3.6h.2-.2zm57.3-4.7v-.2.2zm.9 11.5c0-.2 0-.4-.2-.4l.2.4zm-36 12.9v.2-.2zM224 61.6l.2.2-.2-.2zm0-.7l1.4 3-1.4-3zm-13.5 49.5l.2-.2-.2.2zm27.1-65.7v-.2.2zm-4.3-19.9v.2-.2zm-7.7 11.7v-.2.2zm-56 50.5v.2-.2zm16.4 19.6v-.2.2zm29.7 3.4l-.2.2.2-.2zm-25.6-37v-.2.2zm-3.7 4h.2-.2zm24.6 33v.2-.2zm8.5-7.5h.2-.2zm-29.6-29.3l.2-.2-.2.2zm35.5-37.1v.2-.2zm-14 73.9v.2-.2zm24-79.2h.2-.2zm-11.2 30.8l.2.2-.2-.2zm1.3-4.5v.2-.2zm-1.1 4.7v.2-.2zm-3.9 47.4l.2.2-.2-.2zm-3 .4l.2.2-.2-.2zm19.9-84.3l-.2.2.2-.2zm-19.5 84.6h.2-.2zm36.1-1.5v-.2.2zm-25-80.7v.2-.2zm-17.6 83.8l.2-.2-.2.2zm26-67v-.2.2zm-9.6 2.9v-.2.2zm1.2-22h-.2.2zm-2.1 28.7v-.2.2zm-35.3 34.5h.4-.4zm-9.3-12.1v-.2.2zm35.4 34h.2-.2zm8.4-63.8l.2-.2-.2.2zm-.8 9.9v-.2.2zm.6-8.6l.2.2-.2-.2zm.4 2.2v.4-.4zm-37.1 25.6l.2-.2-.2.2zm63.7 33.9l-.2-.2.2.2zm-73-29.9l.2-.2-.2.2zm43.1 5.7v-.2.2zm16.3-10.1l-.2-.2.2.2zm-4.2-37.9l-.2.2.2-.2zm-48.9 68.9v-.2.2zm-10.8-13.3c0 .2 0 .2.2.4h.2l-.4-.4zm8.6-13.7c-.2 0-.4.2-.7.4v-.2l.7-.2zm21.3-11.8s.2 0 .4.1c0 .2-.1.2-.3.2l-.1-.3-.2.2.1-.2h-.2c-.2 0-.4-.1-.4-.2l-.1.2v.2l-.4-.1.3-.2-.6.2c0 .2.1.3.2.3l-.1.2c.7.7 1 .8 1.5.6.2 0 .1-.2 0-.5.1-.2.3-.2.3-.1V68l.2.1c-.2-.1-.1-.3 0-.5 0 0 0-.2.1-.4l-.3.1-.4.3zm-6.9.2c.6-.5 1-.8 1.2-.6l.1.3c0-.2.1-.2.4-.3l.2.1-.3.1c-.2 0-.3.2-.4.4-.5.1-.8.2-.7 0 0-.2-.2-.1-.3.1l-.2-.1zm-.9 2.7c.3-.1.5-.1.5 0l.9-.4h.2l.2-.4v-.2c-.3.2-.8.8-1.8 1zm.4-1.9c-.3-.4-.3-.6-.1-.5.3-.1.5 0 .6.4l-.5.1zm8.9-2.3c.2 0 .1-.2.1-.4v-.2l-.3.2v-.2l-.3.1.2.1-.1.2.4.2zm.1 1.7c-.2-.1-.6-.2-.7 0l.2.1h.2l.2.1c.3-.1.5-.1.6-.3l-.6.2.1-.1zm-3.7-2.1v.2l.3-.1c-.1.2-.3.2-.4.3l-.2-.1.3-.3zm-7.9 4.7v.2l-.2-.1.2-.1.1-.1-.1.1zm8.3-4.3l.1-.2-.1.2zm-3.7.8h.2-.2zm5.8 0h-.2.2zm-10.5 3.7h-.2.2zm8.2-2.7h.2-.2zm2.6-.5l-.3.1.3-.1zm-.7-1.9v-.2.2zm-1.6 2.4h.2-.2zm-4.1 1.2h-.2.2zm-.3-1.8l.3-.1-.3.1zm120.1 40.1c-.2.2-.2.2 0 0zM267 70.8c.2 0 .2 0 0 0zm-12.4 23.8c-.3 0-.3 0 0 0zm66.9-48.3h-.2c-.4 0-.6 0-.4-.2-.2.2-.2.4-.2.4 0-.2 0-.2-.2-.4v-.6c-.2-.6-.6-1.1-.8-1.3v-.4h.4l.4.4c-.2-.2-.2-.4 0-.4 0-.2-.2-.2-.4 0v-.2l.7-.6-.6-2c-.2 0-.7.4-.9 1.3v.6c-.2 0-.6.2-.9.4-.6-.2-1.1-.4-1.3-.5l.2-.4h-.4l-.2.2-.2-.2v-.2h.2l-.4-.2v-.2h.2c.2-.2.4-.6.4-.9h-.4l.2.4h-.2v-.2c-.2 0-.4-.4-.4-1.1l-.2-.2c-.2-.2 0-.2.2-.4h-.2v-.2c-.2-.2 0-.4.4-.6-.2 0-.6-.2-.9-.7l.2-.2-.4-.2c0-.2 0-.2-.2-.4-.2-.4-.4-.9-.2-1.1 0-.2.2-.2.4-.2v.2l.2-.2v.2l.2-.2-.4-.2c.2 0 .4-.2.7-.6l-.2.2h-.2l-.4.2-.6-.4c0 .6 0 .9-.2.6l-.4.9c0-.6-.2-1.1-.6-1.5h.2v.2l1.1-.8.2.2c.2 0 .2-.2.2-.6h-.4c-.2.2-.4 0-.6-.2.4-.6.7-1.5.7-2.6 0-2.8-.8-4.1-2.8-4.1-.4 0-.6 0-.9.2v-.2c-.4-.2-.4-.7-.2-.9h-.4c-.2.2 0 .4.2.6s.2.2-.2.4h.4c-.2.2-.4.2-.4.4-.2-.2-.4-.4-.2-.4h.2l-.4-.2v-.4c.2-.4.2-.6 0-.6-.2-.4-.4-.7-.6-.4l-.2-.2c-.6-.4-.9-.7-.9-.4l-.4-.4v.4h-.2c-.6-.9-1.5-1.5-2.1-2-.2.2-.4.2-.4-.2-.4.4-.4.6-.2.6l.6.4h-.6l-.2.2.2-.4-.4-.4V23l-.2-.6h.2v.2l.4.2-.2-.4.2-.2-.6-.7v.2c-.4 0-.6-.2-.4-.4l.4-.4-.9-.2-.2-.2v.2c-.6-.4-.9-.7-.9-.4-.6-.2-1.1-.4-1.1-.2l.2-.4v-.2l-.4.4-.4-.4c0 .9 0 1.3.2 1.1l.2.2.2.2v.2c0 .2.2.4.4.7-1.1-.2-1.9-.5-2.6-.5-.6 0-1.1 0-1.3.2.2-.2.2-.4.2-.9 0-.6-.2-1.5-.8-2.6h.4l-.6-.4h-.2c-.9-.9-4.7-2.2-11.8-4.1l-10.3-2.7.2-.2-.4-.2v.2h-.6v-.4l-.9-.5c-.2-.2-.4-.2-.9 0-.2 0-.2-.2-.2-.7-.4 0-.6 0-.9-.2-2.4 0-4.5-.3-6.9-.5l-7.6 1.2-.2-.2v.2c-.6 0-1.1.2-1.5.6-2.4 1-4.1 2.1-5.4 3.2-.6.2-1.1.6-1.3.8l-.4.6h-1.1c-1.1.2-3.5 1.5-4.6 1.4-1.7 1.5-3.1 2.3-3.9 2.5-.7 1.1-1.1 1.7-1.1 1.9l.2.2c-.2.2-.2.4-.4.4l.2.2v.2h-.2v.6l.9-.6c-.2 0-.4 0-.4-.2l.7-.4c0 .2 0 .4.2.7v-.4c.2 0 .2-.2.4-.4v.6h.2l-.2.2c1.1 0 1.3.2.6.4v.2h.2v-.2h.4l-.2.2.2.2-.7.4c.6 0 .9 0 1.1-.2h.2v.2l.4-.2v.2l.2-.2h.2l-.2.2.2.2h.2l-.2.2h.2c.2.2 0 .9.6.9l-.2.4h.2l.4-.4v.2c0 .2-.2.6-.4 1.3l.9.9-.2.2-.2-.2-.2.2h.2l-.7.6h.2c-.2.2-.4.4-.7.4l-.2-.2.2.4-.2.2.6-.2c.2.2 0 1.1.8 1.1.2 0 .6 0 1.1-.2.6 0 .9 0 .9.2l.2.2h.6v.2l.9-.6h.9c-.2 0 .4-.2 1.7-.6.2-.2.9-.2 1.5 0 .4 1.1.6 1.7.4 2.2 0 1.5.2 2.6.4 3.5v1.3c.2 0 .2.2.2.7-.4.2-.7.4-.4.6.2.2.2.2.2.4h.2c0 .2 0 .4-.2.6h.2l-.2.4h.2l.2 1.7c-.2.2-.2.4-.2.6 0 .2 0 .6.2.9l-.4-.2v.4c.4.7.6 1.1.6 1.7v1.3h-.2l.2 2.6h-.2c.2.6.4 1.3.4 1.5-.9.4-.9.6-.2.6.2 1.3.4 2.2.4 2.8l-.2.2c.2.6.4 1.1.4 1.7-1.1-.2-1.5-.2-1.7 0-.4.2-.7.4-.4.6.2.2.4.4.6.4h.2c.2 0 .4 0 .4.2v.2s.2 0 .4.2l-.2-.4h1.1c0 .4 0 .6-.2.6h.2v.6c-.4 0-.6 0-.6.2h-.2v.4h-.4l1.1 1.1.2-.2v2.2l.4.9-.4.6.2-.2c.2 0 .4 0 .6.2 0 .2 0 .2-.2.4l-.2-.2c-.7.6-.9 1.1-.4 1.1h.4l.4.9c.2 0 0 .2-.2.6-.2.2-.2.2-.2.4l.2.2c.2.2.2.4 0 .4v.2l-.2.2v.2h.2c0 .6 0 .9.2.7.9.4.9.7.2.6 0 .2 0 .4-.2.4.2.4.2.6.2.9.4.2.4.4 0 .4-.2.2-.4.4-.2.6h.2c.4.4.4.7-.2.6h-.2v.6l.2-.2c.2.4.2.7.2.9l.2.2-.2.2v.9c0 .9 0 1.3.2 1.5-.2.2-.4.4-.4.6l.2.7v1.3c.4.9.6 1.3.4 1.5l-.2-.2c.2.2.2.4 0 .4l-.2.6h.2v.4h.2l-.2.2v.9l-.7.9.4.2v.4c0 .2 0 .2.2.4l.2.7c.2.4.2.9.4 1.1h.2v.6l-.2.2h-.2c-.4 0-.6 0-.6.2h-.2l.2.2c.2 0 .4.2 1.1.4-.2.2-.2.4 0 .4l.4.4h-.6c-.2.2-.2.2-.2.4h.2v.9h.2c.2 0 .2 0 .4.2l-.2.2h-.2c.2.2.2.6 0 .9-.2.2 0 .2.4.2h.2c-.4-.2-.4-.7-.2-.9h.6l.2.2-.7 1.3-.6-.4c0 .6-.4 1.3-.5 1.9l.2-.2.2.2v.2l.2.2.4-.4v.9h.4l-.2.2h.4l.2.2-.2.2v.2c-.6-.4-.9-.7-.9-.4v.4c.2 0 .4 0 .9.2v1.5h-.9v.6c.2 0 .4-.2.9-.4 0 1.5.2 2.8.6 3.9 0 .6 0 .9-.2.6-.9 0-1.3 0-1.3.2v.4l-.2.4h.9c.4 0 .6-.2.7-.4v.2l.4-.2.2-.2c0 .2 0 .2.2.4h-.2c.2 0 0 .9.6.9v-.2l.2.2v.4c.2 0 .4.4.4 1.1l.2-.2-.2-.2.2-.2-.2-.2v-.2h.2l.2.2-.2.2c.2.2.2.4.4.2v-.4h.4c.6 0 1.1-.2 1.5-.6v.2l.2.2c.2.2.4.2.6 0l-.6-.2c.2-.2.2-.4.2-.6v-.2l.2-.2.2.2-.2.4c.2 0 .2.2.2.9l-.2.2v-.2c-.4.2-.7.4-.4.6l.4.2v-.4c.2.2.4.4.4 1.1l.2-.2v.6c.2 0-.2 1.1.4 1.1v-.4c0-.2 0-.4-.2-.6 0-.2 0-.4.2-.6l-.2-.2c-.2-.2-.2-.4-.4-.4l.4-.4c-.2-.2-.2-.2-.2-.4 0-.4 0-.6-.2-.6v-.6h.2v.6h.2c0-.2.2-.4.7-.9h-.4l-.2-.2v-.2l.2-.2v-.4c.2 0 .4 0 1.1-.2-1.1 0-1.5-.2-.9-.4v-1.1h-.2v-.2c.2-.6.2-1.5.2-2.6v-1.3h.2l.2-.2-.2-.2h1.1c.4 0 .9-.2 1.3-.4.7-.6 1.3-1.7 1.8-3.2.2 0 .2 0 .4-.2h-.4V89c0-1.5-.4-2.8-1.5-3.7v-.4c-.2-.7-.4-.9-.6-1.1v.2c-.4-.2-.6-.4-.4-.7l.4.2v-.4l-.2-.2v-.2c-.2-.2 0-.2.4-.2l-.2-.2c0-.2 0-.2.2-.4v-1.1c-.2.2-.2.2 0 .4l-.4.4.2-.2h-.2v-1.1h-.2v-.6s.2 0 .4.2l-.2-.9-.2.2c0-.2 0-.6-.2-1.1v-.9h-.4l.2-.2c-.2 0-.2-.2 0-.4 0-.2.2-.2.4-.2l-.2-.4c.2-.2 0-.6-.4-1.1l.2-.2h-.2v-.2c-.2-.2-.4-.4-.4-.7.2-.2.2-.6.2-.9h.2c-.2.4 0 .6.2.6h.2l-.2-.7.2-.2v-.2l-.4-.4c0-.2 0-.4.2-.6l-.2-.2V71l.2-.2v-1.3h-.2c0-.2 0-.2.2-.4h-.6c.2-.2.2-.4.4-.4v-.4h.4l-.2.7c.2-.2.7-.2 1.1-.4l-.2-.2.2-.2h-.2c-.2.2-.4.2-1.1.2V68l-.2.2c-.2 0-.2-.2-.2-.9h.2v.2l.4-.4c.9.2 1.7.5 2.4.5 2.8 0 4.6-1.2 5.7-4 1.5.7 2.6.9 3.2.7l.8 1.7 1.9 2.8c3.8 5.5 6.6 9.6 8.3 12.4-.2.2-.4.2-.7.2.2.2.4.2.9.2 2.3 3.3 5.5 7.4 9.8 12.4l-.4.4c.2 0 .4 0 .7-.2 2.8 3.5 4.5 5.9 5.5 7.4l6.4 9.2 2.1 1.5c0 .6.2.9.6.7.2-.2.4 0 .6.2v-.2h.2v.6l.2.2c.2.4.6.7.9.4v.4h.2l.2-.2c.6 0 .9 0 .6.2 0 .4 0 .6-.2.6h-.2v.2c-.2-.2-.4-.2-.9-.2v.2c0 .2 0 .4-.2.4l.2-.2c.2.2.2.4.4.4v-.2l.4-.2.2-.2.2.2-.2.4h.2l.2.2c.2-.2.4 0 1.1.4l-1.1.2-.6-.9c-.9.6-.9.9-.2.9l.4.4c.2.4 0 .6-.2.9l.9.9v-.2h.2l.4.2c.4-.4.7-.2.6.9h-.2c.2 0 .4.2.9.7h.2c0 .6.2.9.4.9v-.6l-.2-.2.2-.2h.2c0 .2 0 .4-.2.4l.6.7c-.4 0-.6 0-.6.2.2 0 .4 0 .6.2l.2-.2c0 .2.2.2.4.2l-.2-.2c-.4-.4-.6-.9-.6-1.1h.2l-.2-.4h.2c0 .2.2.2.4.2l-.2-.4v-.4h-.6c.2-.2 0-.4-.2-.7v-.2l-1.1-1.3.4-.6h.4l-.2.2v.6l.2.4c.2.2.4.4.9.4l-.2-.2c.2-.2.4-.2.2-.4h.2c-.2.2 0 .4.4.4l-.2.2h-.2l-.2.2.2.4.2-.2v.2l.4-.2v.6c.2-.2.2-.2.4 0v.2l-.2.2.2.2.2-.2h.6v.2h-.2v.4c.2.2.4 0 .6-.2l-.4-.4c.2 0 .2 0 .4-.2h-.4l-.4-.4v-.2h.2l-.2-.4.4.2-.2-.4h.2l-.2-.2h-.2v-.9h-.6v-.2c-.2 0-.4 0-.4-.2l-.9-.7c0-.2-.2-.2-.4-.2v.2c-.9 0-.2-1.1-1.1-1.3-.2 0-.2-.2 0-.4l-.2-.2c0-.2 0-.4-.2-.4l-.2-.4v-.2h.2v-.2h.4l-.4-.2.4-.2c-.4-.9-.6-.9-.6-.2l-.2-.2h-.2l.2.4h-.2l-.2-.2-.2-.2c-.2-.2-.4-.4-.4-.9.2 0 .4.2.6.4l-.4-.7.2-.2c-.2 0-.4.2-.7.4-.4-.2-.4-.2-.2-.4l.2-.2h.4c-.2-.2-.2-.4-.2-.6h-.2l-.2.2v-.2h.2l-.4-.4.2-.2h.6l-.4-.4.4-.4h-.9v.4c0-.2-.2-.2-.6-.2l.4-.4-.9-.7h-.2v-.2h.2c-.4-.2-.9-.7-1.3-1.1-.2 0-.4-.2-.6-.4v.4c-.9-.2 0-1.1-.6-1.7-.2.2-.2.2-.4 0v-.2l-.2-.2c-.2-.2-.2-.2-.2-.4h.2l.2-.2c-.6-.7-1.1-1.3-1.3-2.4-1.7-1.8-1.3-2.6-2.3-3.7v-.2h-.2v-.4l-.4-.4h.2c0-.2 0-.4-.2-.6v.4l-.8-1.1h1.1l-1.7-3.5.4.2c-1.7-2.4-1-2.6-1.7-2.8-.2 0-.2-.2 0-.4l.6.4-.4-.9h-.2c0-.2 0-.4-.2-.4h.2c-.6-1.5-.8-2.2-1.1-2h-.2c0-.6 0-.9-.2-.9l-1.1-1.5h.2v-.2c-.6 0-.6-.2-.4-.4h-.2v-.2c-.2-.2 0-.2.4-.4l-.2-.4c-.2.2-.2.2-.4.2l-.2-.2v-.6l-.2-.2c.2 0-.2-.4-.8-1.1.2 0 0-.2-.2-.7-.2-.2-.4-.4-.4-.7l.2-.2v-.2h-.2c-.2-.2-.4-.2-.4-.4s0-.4.2-.6.2-.4 0-.9h-.6l-.6-1.3.6.4v-.2c.2-.2.2-.2.4 0l-.2-.6V74l1.1 1.1-.4-1.3c-.6 0-.6-.2 0-.4h-.4v-1c-.6-.4-1.1-.9-.8-1.1l-.6-1.3c0-.9-.2-1.1-.4-.4-.2 0-.4-.2-.2-.4l.2-.2c-.2 0-.4-.2-.4-.7-.6-1.1-1.1-1.5-1.1-1.7l.4-.2c-.2-1.1-1.3 0-1.3-1.1l.4-.4c-.6-.4-.6-.9-.4-1.1l.2.2h.2l-.2-.7h.2l-.6-.7c0-.2.2-.2.4-.2-.2-.2-.4-.4-.2-.7h-.4c0-.4.2-.6.4-.6l-.6-.7c.9-.2 1.3-.4 1.5-.4l-.9.4.2.2h.2v.2l.2.2-.4.4c.9-.2 1.3-.6 1.5-.8l.7-.6v.2l.2-.2.2.2c0-.4.2-.6.4-.4h.4c0-.6 0-.6.2-.4 0-.2.2-.4.4-.4.2.2.2.2.4.2s.4-.2.7-.4c.2-.2.4-.2.9 0v-.2h-.4c0-.2.2-.2.4-.2l.4-.4h.2c.4 0 .4-.2.2-.4h.2c.4-.4.7-.6.7-.9-.9-.4-1.1-.7-.4-.7l.2-.2h-.2v-.2l.2-.2c.2.2.2.4.4.4v.2l.2-.2c0-.2.2-.2.4-.2l-.4-.2v-.2h.9l-.2-.2 1.3-.4-.4-.2-.2-.2c.2-.2.7-.4.9-.4h.6c-.2.2-.2.2-.4.2v.2l.2.2v-.2c0-.2.2-.2.4 0 0 .2 0 .4-.2.4v.2l1.1 1.1c.2.2.6.2.9.2h.9v-.2h.2l.2.2v-.2c0-.2.2-.2.6-.2l-.2-.4c.4 0 .6 0 .4-.2l.9-.2c-.2-.2-.2-.4 0-.4l1.5-1.1h-.4l-.2-.2-.2-.2.2-.2c.2.2.4 0 .4-.6l.2.2V52l.2-.2h-.2c.7-.6.9-1.3 1.5-1.3 1.1.2 2.2.5 2.8.5 1.1 0 2.2-.2 3-.6h.2c-.2.2-.4.4-.4.6l.2.4c.2 0 .2 0 .4.2h.6v-.2c.6 0 1.1-.6 1.8-1.9v-.4c0-.4.2-.6.4-.9h-.2l.7-.9v-1zm-40.4-25.4h-1.3v.2h-.9l.2.2h-.4v.4l.2-.2v.2h.6c.2 0 .7-.2 1.5-.4l.2.2v.2c-.2.2-.4.4-.4.6l.2-.2c.2 0 .2 0 .4-.2.6 2 2.5 3.3 5.6 4 0 .2 0 .2-.2.4v.6c0 1.5.6 2.6 1.7 3.5l.2.6v-.2c.2.2.6.4 1.1.4.6.2 1.3.4 1.9.5.6 0 1.3 0 1.7-.2.4 1.5 1.5 2.4 3.2 2.6l.2-.2.4.2h1.5c-.2.2-.2.6-.2 1.3l-1.3-.5c-.2-.2-.2-.4-.4-.4l-.4-.2c-.2-.2-.2 0-.2.2l-.2-.2c-.4.4-.7.6-.9.4l-.7.6.9.7-.2.2.2.4c-.4 0-.6 0-.7.2-.2.2-.2.2-.4 0l-.4.2.4.7.4-.2c.2.2.4.4.6.2v-.2h.4v-.2l.6.2.7-.9c1.1 0 1.5 0 1.1.2l.2.2v.4c0 1.1 0 1.7.2 2.2-.2.2-.4.2-.6.2l.2.2.4-.4c0 .4 0 .6.2.9l-.4.4.2.2h.2v.9l-1.7-.9.7-.6c0-.6 0-.9.2-.6l-.2-.4-2.2 1.3h-.2c-3.7-.1-6.1 1.9-6.8 6h-.6l-2 .8-1.3.4c-.6 0-1.1.2-1.7.6v-.2l-.2.2h-.2l-.4.4h-.6c0 .2 0 .4.2.6l-.6-.2.4-.4-1.7.4h-.9c-3 0-5.6.4-7.8 1-.2 0-.6 0-1.1-.2H268c-.4.2-.7.2-.9.2v-1.1l.4-.2c-.2 0-.4 0-.4-.2s.2-.2.4-.2l-.2-1.1-.4.2c.4-.9.7-1.1.7-.6h.4v-1.1l-.2-.7c.2 0 .2-.2.2-.4v-2.4l-.4.4h.4l-.2.2h-.4l.2.2h-.4V43l.2-.2c-.2 0-.2-.2-.2-.4h.4V42h.2l-.2-.7-.4.4c-.2.2-.4.2-.4 0v-1.5h-.4c-.2-2.6-.4-4.5-.3-6.1h.6c-.2-.2-.4-.2-.6-.2V33c-.2-.6-.4-1.5-.4-2.6v-2.6c-.2-.2-.2-.9-.2-1.9-.4-1.1-.6-1.5-.4-1.7h.2c.2 0 .2 0 .4-.2-.2-.2-.2-.2-.4-.2h-.2l.4-.2v-1.3c1.7-.2 2.8-.4 3.2-.4l.4-.4v.2c.2.2.6 0 1.5-.2h-.4.4c.2 0 .6 0 .9-.2h.2c-.2.2-.2.2-.4.2.6 0 .9 0 1.1-.2l-.2-.2.2-.2h.2c0-.2 0-.2-.2-.4l.4-.2c.2.2.4.2.9 0 0 .2.4.4 1.1.4v.2h.6c-.2-.2-.2-.2-.4-.2h.6c.2-.2.7-.2.9 0l.6.4c.2 0 .7-.2.9-.4 0-.2 0-.2.2 0v.2-1.3h.9v-.2h1.7v.9c.3.4.3.4.3.6zm-23.7 85.4l-1.3.2.4.2-.7.4h-.4v.2c-.2.2-.2.2-.4.2s-.2-.2-.2-.4h-.2v.2l-.2-.2v-.2h-.2v-.2c-.2.4-.2.6 0 .9.4.2.6.4.6.7l.4-.2c0 .2 0 .2-.2.4v.4c-.2.4-.4.9-.5 1.3.2-.2.2.4.2 1.5 0 .2 0 .4-.2.6v.6l1.3-2.1-.2-.2.7-.9c-.2-.2-.2-.4-.2-.7.9-4.1 1.1-1.9 1.5-2.8l-.2.1zm53.3-56.1s-.2.2-.4.9l.2.2c-.2 0-.2.2-.2.4l-.2-.2c-.4 0-.6.2-.7.4h-.2c0 .9-.7.2-.7.9l-.4-.9.4-.9h.2-.2c.2-.4.4-.6.7-.4-.2.2.2.2.9.2v-.6h.6zm-42.1-21.9c.7-.2 1.5-.2 2.4 0v-.4l-.2-.2h-.2c-.2-.2-.4 0-.7.2-1.1-.2-2.4-.2-3.9.2.9.1 1.8.4 2.6.2zm2.2-2.8c-1.9.2-3 .4-3 .4l-.7.4c1.1 0 1.5.2 1.3.4 1.1-.6 1.7-.8 2.2-.6v-.6h.2zm11.6 6.4l-.2-.2h-.2v.2l-.2-.4c.2-.2.4-.4.2-.6l-1.9.4.2.4.2-.4v.6l.2.2-.2.2.9.2c.4 0 .8-.2 1-.6zm5.8 16.7s-.2 0-.4-.2h-.6c-.9 0-1.7.2-2.6.6-.2.2-1.3.8-1.3 1.1-.2 0-.2 0-.4-.2.7-.2.9-.4 1.1-.6h-.2l.4-.4c.4 0 .6-.2.9-.4.2-.2.7-.2 1.1 0 .2-.4.7-.6 1.5-.6l.4.4v-.6h.2l-.1.9zm29.2 59.2h.2v-.4c0-.4 0-.6-.2-.6l-.6-.7v-.2l-.2-.7-.2.2-.2-.2-.2.4h.2c-.4.2-.4.4-.2.4.2.2.2.2.2.4l.2-.4.2.2-.2.2v.2c.2 0 .2 0 .4.2h-.2l.2.2.2-.2v.2l-.2.2.6.6zm-37.1-59.9c-1.5 0-2.8.2-4.1.6.6.2 1.1.2 1.5.2 0-.2.6.4 1.3-.4-.2-.2.2-.2 1.3-.2h.2c.2 0 .4 0 .7-.2h-.9zm11.6-11.8c-.2-.2-.4-.4-.4-.7-.2.2-.4.2-.7.2-.2 0-.4-.9-1.1-.9v.9c.2 0 .4.9 1.3.7.9.1 1.1.1.9-.2zm11-17.7l-.2.2-.2-.2h-.2c.2.2 0 .2-.7.2-.2 0-.2.2.4.9h.4s.4-.2 1.1-.6l-.6-.5zm3.4 37.6c-.2 0-.7.2-.9.4.2-.2.6.7.9.7.2 0 .4-.2.7-.4.2.2.2 0 .2-.6l-.9-.1zm-11.5-16.6h-.2V39c-.2.2-.2 0-.4-.2-.4.4-.4.9-.2 1.1l-.2.2h.4l.2.2.2-.2h.2v-.7zm-9.8-7.2h-1.5l1.1.7c.9 0 1.3 0 1.1-.2l-.7-.5zm-22.9 44.6s0 .2-.2.4l-.4.4v.2l-.2-.2v-.2c0-.6 0-1.1.2-1.3v-.4h.4l-.2.6v.2h-.2v.2l.6.1zm2.9-5.4l-.4.4v.6h-.2l.2.4.2.2c0-.2 0-.2.2-.4l-.2-.2c.2-.2.2-.2.2-.4s0-.2.2-.4h.2l-.2-.4c-.2.2-.2.2-.2 0V71l-.4.4h.4zm52.9 46.3c-.2.2-.4.2-.2.4h-.2c-.2-.2-.4-.2-.4-.4s.2-.6.4-.9c.5.5.7.7.4.9zm-6.2-2.9l.4-.4h-.6l-.2.2c0 .2.4.4 1.3.9l-.9-.7zm2.7-53.5s-.2 0-.9-.2l-.4.4c.2.2.4.2.9.2.2 0 .4-.2.4-.4zm-3.5 33.8l-.2-.2c0-1.7 0-.9-1.1-2l.8 1.3c.2 0 .2.2.2.4-.5.1-.5.3.3.5zm-44.8-20.2c0-.2-.2-.4-.6-.4 0 .2 0 .4-.2.6l.2-.2.2.7.4-.4v-.3zm3.7-54s-.2 0-.7.2v.2h-.9l.2-.2c.2-.2.4-.4.9-.4.1-.2.3 0 .5.2zm24.4 14.6c-.2.2-.6.2-.9.2h-.4l.2.4.2-.2c.2.2.6.2.9 0v.2-.6zm-2.4 21.8c.2-.2.2-.2.4-.2l.6-.2h.2c-.2.2-.2.2-.4.2h-.2l.2.2h.2c-.7.2-.9.4-1.1.4h-.2c.1-.2.1-.2.3-.4v.2h.4l-.4-.2zm23.9 1.4c-.4-.2-.9-.2-1.5 0l.2.2c.7 0 1.1 0 1.3-.2zm-1.6-24.4l-.4-.9-.4.4v.4l.2.2c.2.1.4.1.6-.1zm-51 51.1v-1.1l.6.9h.2v.2h-.8zm15.6-64.8c0 .4.2.4.4.2l.4-.2c0-.2-.2-.4-.4-.4l-.4.4zm-30.4 11.3c0 .4 0 .6.2.9h-.2c-.2.2-.2.6-.2.9.4-.4.7-.9.4-1.1v-.4l-.2-.3zm65.6 69.1l1.1 1.7.2-.2-1.3-1.5zm1.4-75.8s-.2 0-.9-.2c0 .2 0 .4.2.7.3 0 .5-.3.7-.5zm3.1 26h-.4c0 .4.2.6.4.7l.4-.4-.4-.3zm-8.7-24.5c-.2 0-.2 0-.4.2l-.2-.2c0-.2 0-.4.2-.6l.4.6zm2.1 70l-.2-.2c.4 1.3.6 1.7.6 1.5h.2l-.6-1.3zm-4.9-9.2s-.4-.2-.6-.9l-.2-.2h-.2l.4.9.4.4.2.2c.4.1.4-.1 0-.4zm6.7 20c-.2.2 0 .6.4 1.1v-.4h.2l-.6-.7zM264.2 72l-.2.2h.4l-.2.2h.4V72l-.4-.4v.4zm-9 35.1c0-.2 0-.2-.2-.4-.4 0-.6 0-.9.2.7.2 1.1.2 1.1.2zm7.3-5.9c-.2.2 0 .2.9.2l-.9-.2zm44.6-12.8s.2.4.4 1.1c0-.2 0-.2.2-.4-.4-.3-.6-.5-.6-.7zm-52 16.8h-.4c.2.7.2.9 0 1.1.1-.3.4-.5.4-1.1zm64.1 16.6c-.2 0-.4 0-.6-.2l-.2-.2v.2l.2.2-.2-.2.2.2.4.7.2-.4v-.3zm-14-96.3s-.2-.2-.4-.7l-.2-.2h.2c.2-.2.4.1.4.9zm-63.7 1.3c-.6-.7-.9-.7-.9 0h.9zm21.4 56.9h.2c.2 0 .4.2.4.7l-.6-.7zm44.7-32.2c0-.2.2-.4.7-.4l-.2.2v.2l-.2.2-.3-.2zm10.3 56.3l-.2.2h.4l-.2.4h.4l-.4-.6zm-20.1-32.1c.4 0 .2-.2-.6-.7.4.5.6.7.6.7zm-40.4 29.1v1.1c.2-.2.4-.2.7-.2l-.7-.9zm63.5-57.5c-.2-.2-.2-.2-.4-.2v-.2h.2l.4-.4-.2.8zm-55.3 28.4c-.4-.7-.9-.7-1.1-.2.6 0 .9 0 .6.2h.5zm-10.7 22.6l-.2-.2h-.2c0 .6.2.7.6.2h-.2zm7.2-19.8h-.2c-.2-.2-.2-.2-.2-.4h.2v.2c.2 0 .2-.2.2-.4l.4.7-.4-.1zM313 99.7l.6.9.2-.2-.8-.7zm-63.4-67.2s-.2 0-.9.2l.2.2c.2.1.5-.1.7-.4zm37-4.4l-.2-.7-.2.2h-.2v.2c.4.3.6.3.6.3zm29.6 76.6s-.2 0-.6-.2c-.2 0-.4.2-.4.4l1-.2zM268 29.1c-.2 0-.4.2-.4.4h.4v-.4zm-5.8 71.9c-.2 0-.4 0-.4-.2l-.2.2v.2c.4-.2.6-.2.6-.2zm48.7-5.4s.2.2.6.9c-.2-.2-.2-.7-.2-.9h-.4zm-55.9-.4c-.2.2-.4.2-.2.4v.4h.2v-.8zm17.9-75.9h-.4c0-.6.2-.6.7-.2l-.3.2zm11.2 12.2s.2 0 .4-.2c-.1-.4-.3-.4-.4.2zm9 27.3l.2-.2h.6v.2h-.8zm-11.6-9l.7-.4c0 .2 0 .2.2.4h-.9zm36.8 56.7v-.6c-.4 0-.4-.2-.2-.4-.2 0-.2 0-.4-.2l.6 1.2zm2.2-61.5c0 .2.2.2.4.2l.2-.4c-.2.2-.4.2-.6.2zm.4-1.1v-.4c-.2.2-.2.4-.2.6l.2-.2zm-55.7 29.5c-.6-.2-.9-.2-.9.2 0-.2.2-.2.4-.2l-.2.2v.2c.1-.2.3-.2.7-.4zm14.2-42v-.2h-.2v.4c.2-.2.4-.2.7-.2h-.5zm39.4 87.8s0-.2.2-.4h.6c-.2 0-.4 0-.7.2l-.1.2zm-43.6-97.8v.4l.6-.2-.6-.2zm44.5 95.9l.4.2.2-.2h-.6zm-46-96.1s-.2 0-.7.2c.2.2.4.2.4.2l.4-.6c-.2.2-.4.2-.7.2h.6zm-10.3 45.4c-.2.2-.4.2-.4-.2.2 0 .2 0 .4.2zm57.6 51.6c0-.2-.2-.4-.4-.7.2 0 .2.2.2.4l.2.3zm-55.6-44v-.4h-.2v.4l-.2.2h.2l.2-.2zm37.9-19.3s0-.2-.2-.4c-.2.2-.2.4-.2.4h.4zm-39.5 13c.2 0 0-.2-.2-.4.2.2.2.4.2.4zm2.4-17.4h.4l.2.2-.6-.2zm50.6 68.9v.2h.2l.2.2-.4-.4zm2.2-.2l.2.4h-.4l.2-.4zm-41-97.5s.2 0 .4.2v-.4c-.2 0-.2 0-.4.2zm-5.6-.3h.6l-.2-.2-.4.2zm-8.5 56V77v.4zm9.6-57.7s-.2 0-.7.2l.2-.2c.2 0 .2 0 .4-.2l.1.2zm18.3 39.8l.6-.2h.4l-1 .2zm-26.7-8.8h.2v.4l-.2-.4zm47.4 57.9h.2l-.2-.4.4.2-.4.2zm-57.4-18.5l.2.2c.2-.2 0-.2-.2-.2zM285 31.3l-.2-.4-.2.4.2.2.2-.2zm-23.2 71.8v.2c.4 0 .4 0 0-.2zm59.2 15.3l.2.2c0-.2 0-.4-.2-.2zm-3.3 4h.2v-.2l-.2.2zm-55-55.8l-.2-.4h.4l-.2.4zm40.4-48.9l-.7.6c.5-.4.7-.6.7-.6zm-37.7 59.8l.4.2-.2-.2h-.2zm-10.6 16.2c-.2.2-.4.2-.4.4l.4-.4zm13-17.1v.2l.2.2-.2-.4zm48.2 40l.2-.2-.2.2zm-28.6-84.8v.2c0-.2.2-.2.4-.2h-.4zM255.1 100h-.2.2zm41.7-65.3l.2-.4-.2.4zM265 72.5l.4.7-.4-.7zm-.4 1.5v-.2.2zm-2.4 30.4l-.2-.2.2.2zm-20.7-81l.4.2-.4-.2zm80.5 98.7l-.4.2.4-.2zm-4.7-3.1v-.2h-.2l.2.2zM265 75.9l.2-.2-.2.2zm-13.7-12.7l.2.2-.2-.2zm48.9-5.3h.4-.4zm-36.4 9v.2-.2zm-27-44.3l-.2-.2h-.2l.4.2zm84.8 99.7c0-.2 0-.4-.2-.7l.2.7zm-9-23.7c0 .2.2.7.4 1.1-.2-.6-.4-1.1-.4-1.1zM275.9 21h-.4.4zM255 97.2l-.2-.2.2.2zm61.6 22.4s-.2 0-.7.2l.2-.2c.3-.2.3-.2.5 0zm-54.1-24.9l.2.2-.2-.2zm21.4-63.4l.2.4-.2-.4zm37.7 87.1l-.4-.4.4.4zm-18.8-63.5h-.2.2zm6.8-3.6h-.2.2zM293 61h.2-.2zm-40.7-5.1v.2-.2zm-.9-11.5c0 .2 0 .4.2.4l-.2-.4zm42.7 20.3v.2-.2zm-32.7.2h.2-.2zm50.1 48.6v.2-.2zm5.5 7h.2-.2zm-29.6-89v-.2.2zm-20.6 37.8l-.2-.2.2.2zm51.1 50.8l.2.2-.2-.2zm-51.1-50.2h.2-.2zm51.9 39.6v-.4.4zm2 10.8l-.2-.2.2.2zm-40.5-99.9l-.2.2.2-.2zm-27 65.7v.2-.2zm66.9 33.6l-.2.4.2-.4zm-62.7-13.6v-.2.2zm40.2-28.4l-.2-.2.2.2zm20.9 31.4v.2-.2zm2.6-65.2v-.2.2zm-16.3-19.7v.2-.2zm-56.5 7.5v.2-.2zM275 20.8l.2-.2-.2.2zm25.6 37.1v.2-.2zm3.8-4.1h-.2.2zm-24.6-32.9v-.2.2zm-8.6 7.4h-.2.2zm29.6 29.3l-.2.2.2-.2zM279 31.2l-.2-.2.2.2zm39.3 89.1v.2-.2zm-24.5-55.6l-.2-.2.2.2zm26.5 55.4v.2-.2zm-41-99.2v-.2.2zm-24 79.1h-.2.2zm11.3-30.7l-.2-.2.2.2zm50.4 51.8v-.2.2zm5 1.4h-.2.2zm-56.8-48.7v-.2.2zm1.2-4.8v-.2.2zm47.2 32v-.4.4zm-43.4-79.4l-.2-.2.2.2zm8.8 9.6h.2-.2zm39.3 75.3h.2-.2zm2.2 10.8v.2-.2zm-47.2-96.1l-.2-.2.2.2zm-.5-.2h-.2.2zm20.8 43.2v.2-.2zm-.2 0V64v.2zm24.5 43.6h-.2.2zm-81.1-85.4v.2-.2zm25 80.7v-.2.2zm17.5-83.8l-.2.2.2-.2zm-25.9 67.1v.2-.2zm63 30.4v.2-.2zm2.6 3.3h.2-.2zm-56.1-36.6v.2-.2zm-1.1 22h.2-.2zm2.1-28.7v.2-.2zm35.2-34.5h-.4.4zm-6.7 17v-.2.2zm16.1-5v.2-.2zm-35.4-34h-.2.2zm-8.5 63.8l-.2.2.2-.2zm.8-9.9v.2-.2zm-.5 8.6l-.2-.2.2.2zm-.4-2.1v-.4.4zm37-25.6l-.2.2.2-.2zm18.1 65.2l.2-.2-.2.2zm-81.7-99.2l.2.2-.2-.2zm73 30l-.2.2.2-.2zm-43.1-5.8v.2-.2zm-16.4 10.2l.2.2-.2-.2zm4.3 37.8l.2-.2-.2.2zm48.7 2c-.2-.2-.2-.2 0-.2v.2zm.1-70.9v.2-.2zm10.9 13.4c0-.2 0-.2-.2-.4h-.2c.2.1.4.4.4.4zm-8.6 13.7c.2 0 .4-.2.7-.4v.2l-.7.2zM91.5 41.1v-.6l-.3.3c0 .3-.3-.3-.8-1.4l.6.3v-.6l.6-.3h-.8l.8-.8c0-.6 0-.8-.3-.8l-.3-.6c.3-.3.3-.3.6 0l.3.6.3-.3h-.6c.3-.3.3-.6 0-.8v-.8h-.3v-.6l.3.3.3-.6v-.6h-.3l-.3-.3H91V33c-.3-.3-.3-.3 0-.6l.3.3v-.6l-.6.3-.3-.6.3-.3v-.3c.3-.3 0-.3-.8-.3l.6.6c0 .3-.3.3-.8.3h-.3c0-.3 0-.6.3-.6v-.6l-.7-.3.3-.3c-.3 0-.6 0-.6-.3l-.3.6-.2-.3c-.3.3-.6.3-.8.3-.3-2.5-1.7-4.2-3.9-5.3h.3l-.3-.3c0 .3-.3.3-.6.3v-.3h.3v-.6h-.3v-.6h.3V23l.3-.8h-.3c0-1.1-.6-1.9-1.7-2.8 0-.3-.3-.6-.6-1.4h-.6l-.3-.3h-.3v.3l-.6-1.4c-.3.3-.6.6-.3.6 0 .3 0 .6.3.8H79l-.3-.3v.3l-1.4-.8c0-.6-.3-1.1-.8-1.7-1.1-.8-2.2-1.7-3.3-1.9v-.3h-.3V13h-.6l.3.3H72V13c-1.1 0-1.4 0-1.1-.3l-.6-1.1c-3-1.1-5.3-1.7-6.7-1.4-.3 0-.6.3-1.1.8-.8 0-2.8-.6-3.6-.6v-.3h-.3l.3.3c-.8 0-1.7 0-2.2.3.3-.3.3-.6.3-.8h-.3v.3c-.3.6-.6.8-.6.6l-.1.3v-.6l.3.3v-.6L56 10l-.3-.3c-.3.3-.5.3-.8.3-.6 0-1.1-.3-1.7-1.1v.6c-.6 0-.8 0-.8-.3h.3v-.3l-.8-.8c.6 0 .8 0 .8-.3h-.3l.6-.6v.3l.3-.3-.6-.2c-.6 1.1-.8 1.4-.8.6l-.3-.3c-.8 0-1.4 0-1.7.3l.3.3c-.3-.3-.6-.3-.8 0l.5-.9h-1.1c0-.6-.3-.6-.6-.3-.8-1.4-1.1-1.7-1.1-.6-.8 0-1.7 0-2.5.3-1.4.3-2.2.3-3 .3-.3.3-.3.3-.6 0v-.6c-1.1 0-1.7.3-1.9.6h-1.7c0-.3 0-.3-.3-.6v.6c-.3 0-.3 0-.6-.3v-.3l.3-.3c-1.1 0-2.5 0-4.2.3l-7.2 2.5c.3.8-.8.6 0 .8h-.3l-5 3.6h-.8c-.3.3-.6 0-.8-.6l-.8.6c.3.3 0 .3-1.4.3h-.8c-5.3 3.6-8.9 6.4-11.4 8.3-.6 3-3.6-1.7-2.8 7.2-.7.3-.5-.8-1.3-.8 0 1.7 5.5 3 8.3 3l-.3.4H6.7v-.3l-.3.3c-1.4 0-2.2 0-2.8.3v.6c0 .3 0 .6-.3.6h.3c0 1.1.8 1.7 2.2 1.7 1.1.6 1.9.8 2.5.8l-1.1.6c.3 0 .8 0 1.1.3.6.3 1.1-.3 1.4-1.1h-.8v-.8c1.4-.8 1.9-1.1 1.1-1.1h-.3c-.8 0 0-.8-.8-1.7h2.5l.3-.3.3.3c1.9.6 3.3.8 3.6.6v-.3c.3.6.6.8.8.6 0 .3.6 0 1.4-.8h1.4c-.3 1.4 0 .6-.8 1.4.8.8 1.1 1.4.6 1.4v.3l-.3.3c.3.3.3.6 0 .8l-.3-.3c-.6 0-.6-.3 0-.8-.3-.3-1.1 0-2.2.6l-.3.3h-.3c-.3 0-.3 0-.6.3l-.3-.3-.3.3c-.3.3-.6.3-.6 0-1.4.3-1.9.6-2.2.6l.3.6.3-.3c1.1.6 1.7.8 1.9.8h.3l-.3-.3h.9l-.3-.3h.8c.3-.3.8-.6 1.7-.6l.3.3c.6 0 .8 0 1.1-.3v5.8c-.3 1.4-.3 3.3 0 5.8.3 6.4.8 11.4 1.1 14.7V66c0 2.2-.3 4.4-.6 6.9s0 5 1.4 6.9c-.5 1.2-.8 1.2-.8.4-.3.6-.3 1.1-.3 1.4 0 .6 0 1.1.3 1.4-.3-.3-.3 0-.3.6l-.6 3.6.6.3-.8.6c-.6 3.3-.8 6.4-.8 8.9 0 2.2.3 4.2.6 6.1l.3.3h-.3c-.3.3-.3.8.3 1.1-.3 1.4-.3 2.8-.3 4.2 0 2.8.6 5.3 1.4 7.2v-.6c.6.6.6.8.3.8 0 .3 0 .3-.3.6.8.8 1.1 1.4.8 1.4 0 1.4 0 1.7.3 1.4 0 .8.3 1.1 1.1 1.1v-.3c.3.6.6 1.1 1.4 1.4l.3-.3.3.3h.3l.6.3-.3.3h-.8v-.3c-.3.3-.3.6 0 .6.8.3 0 .8 1.1 1.1v-.6l.3.3v-.6h.6v-1.1l.3-.6c.3.3.6.6.3.8-.3.3-.3.3 0 .3h.3c0-.3 0-.3.3-.6s.3-.6 0-1.1v.3h-.6v-.6l.3.3v.3c0-.3.3-.6.8-.6v1.1c.3-.3.6-.6.8-.6v.3c.3 0 .3.3.3.6H28v.3c0 .3.3.3.6.3v-.3c.3-.3.6-.3.8 0v-.3h.3l-.3-.3.3-.3.3.3.6.8v-.3c.3.3.3.6 0 .8.3-.3.3-.3.6 0v-.6h.3l.3-.3h.6c0 .8.6 1.1.6 1.4l.3-.8.8.3-.3-.3v-.3c.3 0 .6 0 .6.3v.3c0-.3.3-.3.6-.6l-.3-.3h.3v-.6l-.3.6v-.3h-.3l-.3.3v-.6l-.3-.3.3-.3c.3.3.3.3.6.3l-.3-.3.3-.3-.3.3c0-.3 0-.6-.3-1.1h.6v-.3l.3.3.3-.6c0 .3.6 1.4.6 1.7l.6.6h.3v-.8H36l.3-.3c.3-.3.3-.6.6-.6h-.3v-.3c-.3-.3 0-.6.3-1.4l-.3-.3c0-.8-1.1-.3-1.4-1.1v-3.6l-.3.3v-.8h-.3c.3 0 0-.3-.3-.6v-.3h.6l.3-1.1c-.6-.6-1.1-.8-1.4-.6 0-.3.6-1.4.6-2.2v-2.2c-.3.3-.3.3-.6.3l-.3-.3c.3 0 .6-.3.6-.8V103h-.3c0-.3 0-.6-.3-.8-.6-.3-.8-.3-.6-.6v-.3l.3-.3-.3-.3h-.3l.6-.6c.3.3.3.6.3.8v-2.5h.3c-.3-1.1-.3-1.9-.3-2.5 0-.8 0-1.1.3-.8l-.6-1.1H33c-.3-.8 1.4-.8 1.1-1.7-.3-.3-.6-.8-.3-1.1V91c0-.3 0-.3.3-.6l.3.3v-3.6h.3l-.3-.3c-.3-.3 0-.3.3-.6 0-.3-.3-.3-.6-.3 0-.3.3-.6.8-.6 0-.3 0-.6.3-.8l-.8-1.1v-2.3h-.3l.3-.3v.3l.6-1.4c-.3.6-.6.6-.8.3-.3-.3-.6-.3-.8 0l.3-.3-.7-.1v-.3l-.3-.3c.3-.3.8-.3 1.1 0h.3l.3-.3h-.3c-1.4 0 0 0-1.1-1.1l-.3.8-.3-.8c0-.3.3-.3 1.1-.3l-.5-.5h-.8c.3 0 .6-.8 1.4-1.1l-.3-.3c.3 0 .6 0 .6.3v-.3h-.3l.3-.3v-.3l.3-.3h.3v-.3c-.3.3-.6 0-.8-.6.3-.3.6-.3.8-.3V73h-.3l-.3-.3c.6 0 1.1 0 1.4-.3l-.3-.3h.6l-1.1-.6h.3L36 71h-.3v-.6l.8-.6h.9l-.6.6-.3.3h.3c0-.3.3-.6.8-.6v.3l.3.3-.2.3v.3l.3-.3c.6.6 1.1.6 1.4.3.3-.3.8-.6 1.4-.3-.3-.3 0-.3.8-.6H41v-.3h1.1l-.6.3h.8l-.4.6-.6.3.6.3h-.3l1.9.3h1.1l.3.3v.3c.6 0 .6-.3.3-.6h1.1l-.3.2 1.1-.3 3.6 2.5c.3.8.6 1.1.8 1.4.3 2.2.6 5.5.6 10v3.6c-.3 1.4 0 2.5.6 3.6-.8 2.5-1.1 4.2-.8 5.5v1.4c-.3 4.4-.3 7.8-.3 10-.3 1.7-.3 3.3 0 4.7.3 1.7 0 3.3-.6 5 .8 3 .3 3 1.7 7.8-.3 1.7-.3 3.9.3 6.9-.3 1.7-.3 3-.3 4.4 0 1.1 0 1.9.3 2.5 0 1.1 0 2.2.3 3.3s0 2.2-.3 3c.3 1.9.8 2.8 1.4 3.1.8.8 1.7 1.1 2.5.8.8 0 1.7-1.1 2.2-3.3l-.6-5c-.3-1.7-.3-3.3 0-5v-2.8l-.8-7.8c-.8-1.9-.8-4.2-.6-6.4.3-1.9.6-4.2.6-6.4-.3-.3-.6-.8-.3-1.1v-1.4c-.6-2.8-.6-5.5-.3-8l.8-7.8c-.6-1.7-.6-3.3-.3-5.3.3-1.9.6-3.9.3-5.8-.3-.8-.3-2.8.3-6.4 3.3 2.2 8.6 10.5 11.6 12.8 7.2 8.9 14.1 16.4 21.1 22.5.8 1.1 3.3 2.2 4.2 3.3l.6-.6c1.1-.6 1.9-.8 2.8-.6l.3.3c.8 0 1.1 1.9 1.9 1.1h.8v-.6l.3.3 1.1 1.4h.6l-.8-.8c-.6-.3-.8-.8-.8-1.1l-1.1-1.1v-.3l.3-.3h.3v.3l.6-.6c-.6-.6-.8-.6-.8-.3-.3-.3-.6-.6-.3-.6-.3 0-.3-.3-.6-.8.3-.3.6-.6.6-.3 0-.3-.3-.6-.6-.6v.3c-.3-.6-.6-.8-.8-.8l.3-.3-1.1-1.1h-.3c-.3-.3-.6-.6-.3-.8-1.1 0-.3-.8-1.1-.8-.8-1.4-1.4-1.9-1.7-2.2-.3-.8-.8-1.1-1.4-1.1v-.6l-.6-.3.3-.3h-.3l-.6-.3c-.3-.3-.3-.3-.3-.6-.3 0-.3-.3-.6-.6l.3-.3-1.4-1.4c-.3 0-.6-.3-.6-.6l.3-.3c-.8-.3-1.1-.6-1.1-.8l.3-.3-.3-.3c-.3.8-.6.3-.6-1.1-.6 0-.8-.3-.8-.6-1.4 0-1.7-.3-.8-.6v-.3h.3v-.3h.3v.3l.3-.3-.3-.3h-.3v.5h.3v-.6c-.8.3-1.4.6-1.4.3l.3-.6H86v-.6h.3c0-.8-1.4.3-1.4-.8h-.3l.6-.6h.3l-.3-.3.3-.3-.6-.3c-.3-.3-.3-.6-.3-.8l.6.3v-.6h-.3V91h-.6l-.6-.6c.3-.3.6-.3.8-.3l.3.3v-.3h.3v-.3l.6.6-.3.3c.3.6.3.6.6.3 0-.3 0-.6.3-.6L84.8 89h.3c.3 0-.3-.6-1.1-1.4-.3.3-.3 0-.3-.6-1.1-.8-1.9-1.7-2.2-2.2l-1.4-1.4-.5.6-.3.3c-.3.8 0 1.1 0 1.4l-.6-.8c-.3 0-.6-.3-.6-.8-.3.3-.6 0-.8-.3l.3-.3-.3-.3v-.3c-1.9-.8-2.2-1.4-1.4-1.4l-.3-.3c-.3 0-.3-.3 0-.6v-1.4l.6.3c0-.6 0-.8-.3-.8 0-.3 0-.6.3-.6l.3.3h.3v.3l.6.3v-.6h.3l-.6-.3V77l-.8-.6c-.8-1.1-1.4-1.9-1.9-2.2l-2.8-1.9.3-.3v-.6h-.3v.6c-1.4-1.4-1.9-1.9-2.2-1.9l.3-.3-.3-.3v-.6l.3-.3c-.8 0-1.1-.3-1.1-.8 1.1-1.1 1.9-1.9 2.2-2.8h-1.4c-.6 0-1.1.3-1.4.6-.6.6-.8.3-.8-.6l1.4-1.1h-.3l.6-.6.3.3V63c-1.1 0-1.4-.3-1.1-.6l.3-.3-.6-.6c0-.3-.3-.6-.8-1.1-.8-.3-.8-.8-.6-1.1l.6.6h.3v.3l.3-.3h-.3v-.6l.3-.3h.3l-.3-.6h.3c0 .3.3.3.6.3l.3.3c.3.3.6 0 1.1-.3l-.8-.6c.8 0 1.4-.6 2.2-1.4h-.6l.6-.6.3.6v.3l1.4-1.1c.3-.3.6-.3.6.6 1.1-1.1 2.2-1.4 1.9-1.7l.6-.6c-.3.3-.6.3-.8.3-.8-.8-1.1-.8-1.1 0h-.3c0-.8.3-1.1.6-1.1v.6c1.1 0 1.7 0 1.4-.3v.3l.3-.3-.3-.3h.1v-.6c1.1.6 1.9.8 2.2.8-.3.3-.6.3-1.1.3h-.8l-.3.2c0 .3 0 .3.3.6-.3.2-.3.2-.3.5l.3.3h-.6v.3h-.3c-1.7 1.7-2.5 2.5-2.2 2.8v.8c.3.3.6.3.6.3v.3h.2c.3.8-.8.8 0 1.1h-.6c0 .8-.6 1.4-1.4 1.9v.3l.8-.6c1.4 0 3.3-3 4.4-3.9.8-1.4 1.7-2.2 2.5-3l-.3-.3c.3-.3.6-.8.6-1.7.3 0 .6 0 .8-.3.8-.3 1.4-.8 1.7-1.7h.8l.3.3-1.9 2.8c.3.6.3.8 0 1.1l.8-.6v.3l.6-.3h-.6l.3-.3v-.3c.3 0 .6 0 .6.3l.3-.3h-.6v-.6c1.4-1.4 1.4.3 2.5-1.9h-.8V52h-.6v-.3l.3-.3h.3v.3l.3-.3 1.7-.8c2.5-2.5 3.6-4.7 3.6-6.7V43c-.3-.3-.3-.8-.3-1.1v-.3h.6c-.3-.3-.3-.3-.3-.6l-.3-.3v-.3c.3 0 .6 0 .6.3l.8.4zM39.6 54.9c-.6-.3-.8-.3-1.1 0s-.3.3-.6.3h-.3l-.3-.3.3.3v-.6c-.3 0-.3-.3-.3-.8.3.3.6.3.8.3.3-.3.8-.3 1.1-.3l-.3-.3h-2c0-.6 0-.8.3-1.1-.3-.6-.6-1.1-.3-1.9V48c0-.6 0-1.4-.3-2.2-.3-1.9 1.4-2.8 1.4-4.7s-.8-3.9-2.2-6.1c.3.3.3.6.3 1.1.8 1.1 1.1 3 .8 5.8l-.3-.8c0-1.4-.6-2.5-1.7-3l.8-.8h-.3c-.3.3-.3 0-.3-.8l-.3.3c-.3-1.4-.3-3.3.3-6.1 0 .3.3.3 1.1-.6-.3.3-.6.3-.6 0l-.3-.3v-1.9c.8 0 .8 0 .6-.3v-.3h.3c.3.3.8 0 1.7-.8v-.3c.3 0 .6-.3 1.1-.6l-.3-.3.6-.3c.3 0 0-.3-.3-.6l-.3.3v-.6l-.3.3c.1.3-.4.6-1.3.6l-.6-.6c0-.3.3-.3.6-.3h-.3l.6-.3v-.3c0-.3.3-.3.6-.3v.6h.3c.3 0 .3 0 .6-.3l.3.3v-.3c1.1 0 1.9-.3 2.8-.6h4.4v-.3h.3l.3.3.3-.3c0 .3.3.3.8-.3.3.8 2.2 2.2 5.8 3.9.3.3.3.8.3 1.1h-.3c-.3.3-.6.6-.8.6.3.3.8.3 1.1.3l-1.4 2.2c0 2.5-.6 4.2-1.9 4.4-.3.6-.3 1.1-.3 1.4 0 .6.3.8.8 1.1-.4 1-.4 1.8-.4 2.7 0 1.7.6 3 1.4 4.2-.3 1.1-.6 1.9-.3 2.2-.3 1.1-.3 2.2 0 3.1.3.8.3 1.9.3 3l-2.2 1.4c-.3.3-.3.3-.6 0-.3-.6-.3-1.1-.3-1.4-.6.3-.8.6-1.1.3h-.6l-.2.2v-.6l-.6-.3.3.3c-.3.3-.3.3-.6 0v.3h-.3v.3h.6v.6l.3-.3h.3c.3-.3.6-.3.8-.3v.8l-.6.3v-.3c-1.1 0-1.4 1.1-2.5.8l-.6-1.1h-1.4c-.3 0-.8 0-1.1-.3v.3c-.8-.8-1.1-.8-1.1-.3-.8.3-1.4.3-1.9.3h1.1l-.5 1.4zm28-25.8c-.3.8-.8 1.1-1.4.6-.6-.3-.8-.3-.8 0h-.3l.3-.3h-.6c-.3 0-.3 0-.6-.3v-3h.3l.3.3-.3.3h.3l.3-.3c.8.8.8.3 1.9 1.1h-.8l.8 1.1c.9 0 .9.3.6.5zM53.2 10.8s-.3 0-.6.3c0 .3.3.3.6.3v-.3h.6l-.3-.3h.3c.3 0 .6-.3.6-.6l.3.3v.3l.6-.3-.6-.3h1.1c0 .3 0 .6-.3.6l.3.3c-.8 1.4-1.4 1.7-2.2 1.7-.3 0-.3-.3-.3-.8-.3-.3-.6-.3-.6 0v-.3l-.3.3c.3-.3 0-.6-.3-.8 0 0 0-.3-.3-.6h.6l.8.2zm49.9 92.1c-.3-.6-.8-.8-1.1-1.1-.8 0-1.1.3-1.1 1.1.3.8.8 1.4 1.4 1.1.6-.6.8-.8.8-1.1zM38.5 28c1.9 0 3.6 0 4.7.3-.2-.3-.2-.5-.2-.8h.3l-.8-.6c-.8.3-.8.8-1.7.8-.3 0-.8-.8-1.7-.8-.3.3-.6.9-.6 1.1zm66.3 82.1c0-.8-.3-1.1-1.1-.8l-.6 1.1c0 .8.3.8 1.1.6.6 0 .8 0 .8-.3.1-.3.1-.3-.2-.6zM90.9 41.9c-.3 1.1-.3 0 .6 1.1h-.6v.3c0 .8 0 1.1.3.8v.3h.3v-.3l.3-.6.3.3h.3l-.6-.8.6-.6-.4-.2.3-.3-.3-.6c.3.6 0 .8-.6.8l-.3-.3v-.6l-.2.7zM35.5 73.5c.8 1.1.6-.8 1.4-1.7l.3-.3c.3-.3.6-.3.6-.6l-.3-.3h-.3v.4c-.3.3-.6.3-.8 0-.3 1.4-.6 2.2-.6 2.8l-.3-.3zm14.4-46c-.6.3-.8.3-1.1 0s-.8-.6-1.4-.3l-.3.3-.3-.3H46v.3c.3.3.6.6 1.4.6v-.3h.6l.3.3H48c.3.3.6.3.6 0l-.3-.3h.6l.3.3.7-.6zM2.2 33s.3 0 .6-.3c-.3 0-.3-.3-.3-.6-.8-.3-1.4-.8-2.2-1.7.3.8.6 1.4.6 1.7-.1.4.5.6 1.3.9zM64.6 8.4c-1.1-.6-1.9-.8-2.2-.6v.6c0-.3-.3-.3-.8-.3l-.3.3h.6c.3 0 .6.3.8.6.8 0 1.4 0 1.1-.3 0-.3.3-.3.6 0l.2-.3zm26.3 19.1h-1.1l2.8 3.3-1.7-3.3zm15 87.6c1.1 1.7 1.9 2.8 2.2 3.6v-1.1l-.3-.6-1.7-1.9h-.2zM51.8 28.3s.3 0 .8-.3v-.3c-.3-.3-.8-.6-1.1-.6l-.5.7c-.3 0-.3 0-.6.3l1.4.2zm37.7-1.1l.3-.3.3-.3c0-.3-.3-.3-3.6-3.3l3 3.9zm3.6 18.6v1.1c.8-.3 1.4-1.4 1.7-2.8l-1.7 1.7zm-1.9.5v.6c0 .3-.6 1.1-1.4 1.9l.3.3-.3.3h.3c.3 0 .3-.3.3-.8l.3.3.3-.3v-.3c.3.3.6 0 .6-.8l-.4-1.2zm-51.6 23s-.3.3-.8.6c-.3-.6-.6-1.1-.6-1.4l.3-.3 1.1 1.1zM46 20.8l-.8-.3.6-.3v.3l.6-.6v.3l.6-.6c.3 0 .6 0 .6.3h-.3v.3h.3v.6H46zm58.2 93.7s.3 0 1.1.3v-.6h-.3l.3-.6-.3-.3h-.3l.3.3-.3.3v.3h-1.9l.3.6v.3c.3-.3.9-.6 1.1-.6zm-37.1-102c-.6 0-.8 0-.8.3l-1.7-.3h-.3l-.5-.5v-.3c.5 0 1.6.8 3.3.8zm-1.7 1.7c-.3 0-.6-.3-.6-.8h.6v-.3h.6v.3l.6.6H66v-.3h-.3l.3.3-.6.2zM38.5 29.4c0-.3 0-.6-.3-.6-.6 0-.8.3-.8.6l.3.3c.3-.3 1.4.8 1.7 0l-.9-.3zm49.4 3.3l-.3-.6.6-.3.3.6v-.8l.3.3V33l-.9-.3zm-52.1 6.1c-.6.6-.8.6-.8 0v-1.1l.8 1.1zM65.7 9.5c.3-.8.3-1.1 0-.8-.6 0-.8.3-.8.8h.8zm-15.5 0c-.3 0-.3-.3-.3-.6v-.3l.6.3v-.3h.5l-.3.3.3.3-.8.3zm.5 2.7c.3-.3.8-.6 1.1-.3l-.3.3h-.3l-.2.3c-.6 0-.8 0-1.1-.3H51h-.3zM29.4 120.6s-.3-.3-.6-.8l.6-.6c.3.9.3 1.2 0 1.4zm22.4-67.1h.3c0-.3-.3-.3-.6-.3l.6-.6.3.3v.3l-.3.3v.6l-.3-.6zm49.9 61.9c-.3.3-.6.6-.3.8l.3.3h.3l-.3-1.1zM89.5 28.9c-.8 0-.8.3.3.8l-.3-.8zM35.2 76.8l-.3-.6h-.8v.3h.6c0 .3 0 .6-.3.8.5-.2.8-.5.8-.5zm8.6-6.9h-1.2c.1-.8.4-.8 1.2 0zm-22.7 47.7c-.3 0-.6 0-.6-.3l.8-.8v.3l-.2.8zM74.9 79c0-.3-.3-.8-.8-1.4l1.4 1.1-.6.3zM63.5 23.9h.8v.3l.3.3-1.1-.6zM56 7.2v.3h-.6c.3.3.6.3.8.3l.3-.3-.5-.3zM29.9 99.6s-.3.3-.8.6l.3-.3v-.6l.3.3h.2zm74.3 19.9c.6-.3.3-.3-.8-.6.6.3.8.6.8.6zM75.7 78.2c-.6.3-.8 0-.6-.3v-.3h.3v.6h.3zM50.5 13.6c-.3-.3-.3-.6-.3-.8h.3l.3.3-.3.5zm39.6 19.7c.3.3.3.6 0 .6v-.3h-.3l-.3-.3v-.6l.6.6zm1.1 3.1c-.3-.6-.6-.8-.3-.8s.3.3 0 .6l.3.2zM37.4 66.8c-.3 0-.3-.3-.3-.6.3 0 .6.3.8.6h-.5zm53-32.4h-.3l.3-.3c.3-.6.3-.6.6 0v.6l-.6-.3zm-62.1 86v-.3c0-.3 0-.6.3-.8l-.3 1.1zM33 82.9l.6-.6v.8l-.6-.2zm-2 18.9c-.6 0-.8-.3-.6-.6v.6l.3-.3.3.3zm10-77.6h-1.1c.3.3.3.3.6.3.3-.3.5-.3.5-.3zm-3.9 45.7h-.6v.8l.3-.3c.3-.2.3-.5.3-.5zm50.8-39.6l-.3.3v.3c0 .3.3.6.6.6-.3-1-.3-1.2-.3-1.2zm-53 44c-.3 0-.6 0-.6.3.1.6.4.6.6-.3zm68.5 43.8c0 .6.3.8.8.8l-.8-.8zm-69-40.7c-.8.3-.8.6-.3.6 0-.3 0-.3.3-.6zM74 53.8s.3-.3.8-.6l.3.3h-.6l-.3.3H74zm-33.5-31s-.3 0-1.1.3l.3-.3h.3v.2l.3-.3.2.1zM31 80.4v-.3l1.1.3H31zM71 58l-.6.3.6-.3zM12.8 35c0-.8 0-1.1-.3-1.1v.3c.3.2.5.5.3.8zm57.9-23.3v.3l.3-.3-.3-.3h-.3l.3.3zM33.8 76.8l-.3.3h.3v-.3zm31.6-52.4s-.3 0-.6.3l.3-.3h.3zm-19.7 2.8l-.2.8.2-.8zm-7.4-5c-.3.3-.3.3-.3 0h.3zm-7.5 59.1l.2-.3h.8l-1 .3zm-19.4-48c0 .6 0 .8.3.6-.3-.3-.3-.6-.3-.6zm66.2-15.8l.3.3v.3l-.3-.6zM51.8 51.6l-.8.6.8-.6zm40-6.4s0-.3-.3-.6v.3l.3.3zM10.8 35h.6l.3-.3-.9.3zm34.9 36.3s-.3 0-.8.3c.3-.3.6-.3.8-.3zM34.9 81.8l-.3-.3.3.3zm13.6-30.2h-.3l-.2-.3c.2.3.5.3.5.3zm53.5 65.7v-.6.6zM36.6 26.4l-.3.3.3-.3zm33.5 43.5l-.6.3.6-.3zM32.4 80.4l.3-.3h.6l-.9.3zm-7.5 21.7l.6.6-.6-.6zm8.9 21.3h-.3.3zM55.4 8.1l-.3-.3.3.3zM34.9 81.5v-.3h-.3l.3.3zm55.5-46.3v.3-.3zm.3 1.7l-.3-.6.3.6zM21.6 119v.8c0-.3 0-.6-.3-.8h.3zm80.1 0l-.3-.3.3.3zM41.9 19.7l-.3-.3.3.3zM36.3 33s.3 0 .8-.3c-.2 0-.5 0-.8.3zm26.1 10.6V43v.6zm27.7-11.1l.3.3-.3-.3zM43 21.4h.6-.6zm48.5 10.8v.3-.3zM61.8 7.8h-.3.3zM38 71.6l-.3-.3.3.3zm.5-49.7v.3-.3zM52.7 28h.3-.3zm14.4 32.5h-.3.3zm25.5-17.8h-.3.3zm-6.4 51.6l.3.3-.3-.3zM32.4 122h.3-.3zm56.9-92.3l.3.3-.3-.3zM52.4 10.3h.3-.3zM38 69.9v.3-.3zM36.3 71v-.3.3zm39.1-18.3v.3-.3zM71 12h.3-.3zM33.5 79.3v.3-.3zm41.1-1.9l.3-.3-.3.3zm-41.3 23.8l.3.3-.3-.3zm49-76.5l.3.3-.3-.3zM56.6 10.8h-.3.3zM44.1 28.3h-.8.8zm8-17.2h.6-.6zM30.5 122.8v-.3.3zM42.4 53l-.3.3.3-.3zM6.7 36.1H7h-.3zm93.9 81.8l-.3-.3.3.3zM81.8 56h-.3.3zM49.9 13.3h.3-.3zm-38 21.1h-.3.3zm0 0l.3-.3-.3.3zm79.6 7.5v-.3.3zm-30.8 9.4h.3-.3zm44.9 63.8h.3-.3zM89.8 33v-.3.3zM71.5 71.3v.3-.3zm3.1-12.2l-.3.3.3-.3zM89 33.6V33v.6zM35.2 74.3h-.3.3zm-1.1 37.5l-.3-.3.3.3zM38 71.3h-.3.3zm0-16.4h-.3.3zm-2-20.2v.3-.3zm72.1 84l.3.3-.3-.3zm-96.5-84v-.3.3zm80.2 9.7h-.3.3zm0-11.7l-.3-.3.3.3zm13.8 82.4l-.3-.3.3.3zM52.4 7.8v-.3.3zM89 33.6l.3.3-.3-.3zM56 11.1h-.3.3zm18 48.3l-.3.3.3-.3zM36.9 69.6l-.3.3.3-.3zm31.3-5.8v.3-.3zm20.2-32.2l-.3-.3.3.3zM47.4 53v.3-.3zm-7.2-31.6l.3-.3-.3.3zm34.7 56l.3.3-.3-.3zm-7.8-17.2l-.3-.3.3.3zM34.4 81.8l.3-.3-.3.3zm4.1-59h-.3.3zm36.1 36.3v-.3.3zm26 58.5h-.3.3zM51 27.8l.3.3-.3-.3zm12.2-16.4h.3-.3zM37.4 68.2V68c.3.3.3.3.3.6l-.3-.4zm25-24.6c.3.3 0 .3-.3 0h.3zm-29.7 78.7c0-.3.3-.3.6-.6l-.6.6zm27.2-74.6l-.3-.3.3.3zm-34.7 73.8v-.3.3zm3.4-.6h-.3.3zM62.9 8.4h-.6.6zm-4.4 37.7l.6-.6-.6.6zm-8.6-32.8h-.3.3zM28 120.6l.3-.3v.6l-.3-.3zm61.8-86.7l.3.6-.3-.6zm-5 18.5l-.3.3.3-.3zM33.3 94.3l-.3.3.3-.3zm26.9-46.6h-.3.3zm-10-33.2l.3-.6-.3.6zM34.1 120.9v-.3.3zm-10.5-.3v-.3l.3-.3-.3.6zm1.3.3l.3.3-.3-.3zm11.7-97l.3.3c-.3.3-.6.3-.6 0l.3-.3zm7.5-3.1V20l.3.3v.3l-.3.2zm18 25.3s0 .3-.3.6l-.3.3c0-.7.3-.9.6-.9zm38.8 70.6c.3-.6.3-.3.6.6l-.6-.6zm-53.5-95c-.3-.3-.3-.6.3-.6l-.3.6zm-8 0v-.3l.3-.3c0-.3.3-.3.6 0v.3l-.9.3zm4.4-2.5s-.6.3-1.7.6h-.3c.3-.4 1.2-.4 2-.6zM24.4 120.9v.6h-.6v-.3s.3-.3.6-.8v.5zM50.2 15v-.3l-.3-.3v-.3h-.6l.6-.6h.6l-.6.3.3.6v.3h.3l-.3.3zm33.2 74.9l.3.3c-1.1 0-1.4 0-1.1-.3l.3-.3s0-.3-.3-.6 1.7.6 1.7.6l-.9.3zM41.3 21.4c0-.3.3-.6.6-.8h.6l.6.8-1.4.3-.4-.3zm26.9 14.1c0 1.9-1.7 3-1.9 3.9-1.4.8-2.2 1.7-3 3l-.9.6-.6.6h.3v.3l-.3.3c-.3.3-.6.6-.6.3-.3.3-.3.6-.6.6-.3-.3-.6 0-.6.3.3 0 .3.3.3.6l.3.3h-.3.3v.3c.3.3.6 0 .8-.3h-.3V46l1.1-1.1h-.6c.3-.3.3-.6.6-.6v1.1c-.3.6-.3.8-.3 1.1v1.1l-.6.3c0 .8-1.4.6-1.1 1.4l.6-.6.6-.3c.3-.3.6-.3.8-.3l-.8.6c.3 0 .6-.3.8-.6 0 .6.3 1.1.6 1.9l-.3.3h.3l.3.3v.3c-.3 0-1.1.6-1.9.6l.3-.3c-.3 0-.6 0-.8.3L59 52.7h-.3l-.3-.3v-.3l-.6.6v-.3l-.8.8c.3-.3.3-.6.3-1.1 0-.3 0-.8.3-1.7V49c.3-1.4.6-2.5.6-3h.3c0-.6 0-1.1.3-1.4v-.8l.8-.8h-.3l-.3.3c.3-4.4 1.4-7.2 3.3-8.3.8-.8 1.7-2.2 1.9-3.9h.6v.3h.3c-.3.3 0 .6.6.8h.6l-.3.3h.6v.3c.3 0 .6 0 .6.3l-.3.3.3.3v.3l-.3.3.3.3.6-.3c.1.1.4.4.4 1.2zm316.1 27.6s-.2 0-.6-.2c0-.1-.1-.3-.2-.4-.7-.8-1.5-.8-2.4-.3-.4.3-.8.9-.8 1.6 0 .3.1.7.6 1.4.3.2.9.3 1.6.3.7-.1 1.2-.6 1.2-1.3.1-.2.1-.3.1-.5.2-.2.3-.4.5-.6zm-19.4-13.3v.6h.3l-.1.1h-.1v.5l-.3-.6c0 .1 0 .3-.2.3h-.1c.1-.1.2-.3.2-.4 0-.2 0-.3-.1-.8h.1c-.1-.1 0-.1.3-.1v-.1h.2v.4l-.2.1zm-.2 4.5c-.2.1-.2.1 0 0h-.1l-.2.1v-.1l-.1-.2v.3c-.3-.2-.3-.5-.1-.6v.1l.3-.3v-.1c-.1-.1-.3-.2-.3 0v-.1h.1l.1-.1v.3l.1.2v.1h-.2l.3.3v.1h.1zm5.3 23.2c-.2.1-.2.3-.2.6V78l-.2.1c-.2.4-.3.3-.3-.2l.2-.1.5-.3zm-11.3 27.3c.3-1 .6-1.3.8-1l-.1.1-.7.9zm.5-21.9l-.3.3v-.3c0-.4 0-.7.2-.6l.1.2-.2.1v.1h.3l-.1.2zm3.2-7.1s-.2 0-.4-.2v-.3c-.1-.2 0-.1.2-.3-.1.2.1.5.2.8zm-2.8 6.5c-.3 0-.4 0-.4-.2h.1c0-.1.2-.3.3-.3 0 .1 0 .1.1.3l-.1.2zm13.9-22.2s-.7.1-.7 0c.1 0 .2-.1.3-.3 0 .4.4-.2.4.3zm-10.1-11.6c.1.6.1.7 0 .3v-.3zm-6.3 47.6l.1-.1v-.1l.1.1h.1l-.3.1zm16.1-47.8h-.1l.3-.3c0 .2 0 .3.1.3h-.3zm0 12.8c.1.2.1.2 0 0v.2h-.1l.2-.4-.1.2zm-9.9-6.2c-.3-.3-.4-.5-.3-.6l.3.6zm0 44.4c.1.2 0 .3-.2.3h-.1l.3-.3zM338 61.2l-.2.2h-.3l.5-.2zm32 17.2v.5-.5zm2.6-17.6c.1 0 .1-.1.2-.4l.1.2-.3.2zm-14.4 36.4h-.1c.1-.1.1-.1.2-.3l-.1.3zm5.2-46.6c-.1-.2-.1-.2-.1-.3l.1.3zm-3.4 49.6v-.3h.1l-.1.3zm-19.3-6.8l.2-.1v.1l.1.1-.3-.1zm19.1-9.9h.1l.1.2-.2-.2zM338.9 92v-.3.3zm23.6 7.8h.3-.3zm-5-4.1c.1 0 .1 0 0 .2v-.2zm12.3-16l.2-.1v.3l-.2-.2zm-10 3.6c0-.2 0-.3.2-.4l-.2.4zm.1.6h-.2.2zm12.8-19.2c-.1-.2-.1-.2-.1-.3.1.2.1.3.1.3zm-43.8 16.1h-.1.1zm3.2 17.8l-.1-.2.1.2zm5.6-39.7h-.1.1zm33.7 11.9zm-7.3-1.7l.2-.1-.2.1zm1.1-18.8l-.1-.2.1.2zm-1.8.4h-.1.1zm-22.8 52.4zm23.6-5.2c-.1-.1-.1-.1-.3-.2l.3.2zm-6.4-1.6h-.1.1zm13.7-26.5l.1.2-.1-.2zm-23.8 25h-.1.1zm26-34.3zm-9.5 6.9h.1-.1zM346.5 94h-.1.1zm-17.1-12.6v.2-.2zm30.9 19.4h-.2.2zm-14-6.8l-.1-.2.1.2zm-13.2 6.9v-.2.2zm11.5 4v-.2.2zm-5.5-50.4zM328 83zm46.9-24.7h.1-.1zm-7.6-9.6zm-4 50l-.2.1.2-.1zm-5.8-2.9h.1-.1zm-12.2 9.4l-.2.1.2-.1zm-17.7-26.5l-.1-.2.1.2zm14.1 25.9l-.1-.2.1.2zm-13.6-21.9l-.2.1.2-.1zm11.2-28.3zm24.4 11.5zm2.5 25h-.1.1zm-3.2 7.8zm9.6-34.3l.3-.3-.3.3zM348 93.9h.2-.2zm2.3 8.6h.1-.1zm19.8-23.9zm-40.6 4.8l.2-.1-.2.1zm31.5 19.8h-.1.1zm6.4-54.5h-.1.1zm-1.2 48h-.2.2zm-8.5-.4zm15.7-50.4v-.4.4zm-43.8 37.8v.3-.3zm35.3-34.5zm1.1 47l-.2.1.2-.1zM364.9 50l.1.2-.1-.2zm-22.3 55h.2-.2zm.8.5h.2-.2zm3.5-10.3l.1.2-.1-.2zm-6.4 10.4l-.1-.2.1.2zm29.2-58.4zm-41.5 35.4c.2 0 .2 0 .2-.1l-.2.1zm38.1 15.1h-.1.1zM362 75zm5.7-26.5h-.1.1zm-27 57l-.1-.2.1.2zm17-10.7zm-15.7 9.9l-.3-.2.3.2zm16.2-7.5l.3.2-.3-.2zm5.1-28.4h-.1.1zm-19.6 36.7h-.1.1zm-15.6-27.2zm32.5 24.1zm8.8-54.6l-.2.1.2-.1zm.4-1.8l-.2.3.2-.3zm-41.1 36.9l.2-.3-.2.3zm1.1 1.1h-.1.1zm32.2 18.6zm4.2-6.1h-.2.2zm-.4-3.5l-.2.1.2-.1zm-18.6 1.4v.3h.1c-.1-.2-.1-.3-.1-.3zm10.9-10.8zm.2 12.7s-.2.1-.5.4l.5-.4zM373 63.1h.1-.1zm-43.6 18.5v.3-.3zm5.7 20v-.3.3zm32-53.1l.2-.1-.2.1zm-23.7 56.2h.1l.1.2c-.1-.2-.2-.2-.2-.2zm30.3-47.6l-.1-.1.1.1zm-38.3 43.4l.3.3-.3-.3zm12.3-6.6zm-3.1 11.2l.2-.1-.2.1zm.4.4l.2-.1v-.1c-.2.1-.2.2-.2.2zm-1.9-.2v-.3.3zm26-25.6v.3-.3zm-3 17.7v.3-.3zm2-8.6l-.2.3c.2-.1.2-.3.2-.3zm-5-40.6h-.3v-.3l.3.3zm.2 14.7v-.3.3zm-5.3 21h.2l.2-.1-.4.1zm12.1-4.6l.1.2-.1-.2c0-.3 0-.4-.1-.3.1.1.1.3.1.3zm-8-10v.2-.2zm-3.9 16.5l.1.2h.1c0-.2-.2-.2-.2-.2zM340 92.2l.1.5-.1-.5zm33.3-29.3l-.1-.3.1.3zm1.5-9.2h-.1c0 .1 0 .1.1.3v-.3zm-35.1 5.6l-.2.3.2-.3zm3.5 45.6v.2l.1.3-.1-.5zm6.2-1.4l-.3-.2.3.2zm13.7-4.5l-.1-.2.1-.1v.3zm5.8-19v-.3.3zm1.9-5.3v-.4.4zM373 68c-.1 0-.2.1-.2.4.2-.3.2-.4.2-.4zm-25.3 36.7l.1.2v.1l.2-.1-.3-.2zm-8.5-14l.4.5-.4-.5zm21.3 12.3zm5.4-6.6v.3l.2-.1-.2-.2zm9.4-38.2s-.1 0-.3.1V58h.2l.1.2zm-40.4 43c0-.4-.1-.4-.3-.3.2 0 .3.1.3.3zm26.1 1.7l-.1-.4c0 .1 0 .2.1.4zm-22.2-11.7s0 .1.1.5c-.1-.2-.1-.3-.1-.5zm34.8-44.1s-.2 0-.3.1v-.1h.3zm-9.9 20.2l-.3.3.3-.3zm-2.4 4.7l-.3.1.1.1h.1l-.1-.1.2-.1zm-20 32h.1l.1.2-.2-.2zM373 47v.4l.2-.1c-.2-.2-.2-.3-.2-.3zm1.1 1.6c.1 0 .2-.1.2-.4l-.2.4zM361 103.2l.8-.6-.8.6zm-17.5-9.3c0 .4 0 .6.1.4l-.1-.4zm8.4-.8l-.1-.2-.3.4.4-.2zm12.1 8.2c.1.1.1 0 .2-.3-.2.1-.2.3-.2.3zm-.7-4.6v-.2h-.1l.6-.3-.5.5zM373.6 55l.3-.1.1.3-.4-.2zm-.5 12.8h-.2l.3.3-.1-.3zm-9.1-1.3v.3c.1.1.2-.1.2-.6-.2.2-.2.3-.2.3zm-6 19s0 .1.1.4v-.4l.2-.1c-.2 0-.3 0-.3.1zM340.8 104c0 .1 0 .3-.2.1l.2-.1zm3.3-9.2l-.1-.2h-.3l-.2.1.6.1zm5.6 7.6l.2-.1h.3l-.5.1zm-21.5-23.5v.4-.4zm41.3-.1l.2-.3v.6l-.2-.3zm-28.7 25l.1-.1-.1-.2.3.2h-.1l.4.2-.6-.1zm-11.6-20.9h-.3c0 .3.1.3.3 0zm34.7-17l-.2.4c.3.1.3-.1.2-.4zm-12.8 27.5c0 .4.1.5.3 0h-.3zm-8.6 11.5l.2-.1-.2.1-.2-.2v.3c0-.3 0-.3.2-.1zm20.3-43.3c-.2.1-.2.1-.2.3v.3l.2-.6zm-5.1 18.3c-.2.1-.2.3-.2.6l.3-.1-.1-.5zm5.7-13.1l-.3-.3c0 .3 0 .6.1.7.2-.2.2-.4.2-.4zm10.7-17c.1.3 0 .4-.2.4 0-.2 0-.3-.1-.4h.3zM356 94.9h-.1l-.3.1c0 .2.1.1.4-.1zm13.7-48.6c-.2.3-.3.4-.2.4l.2-.4zM328.3 83l-.1-.1h-.2c-.2.4 0 .4.3.1zm29.7 1.5l-.6.3.1.2.5-.5zm11.5-36.8v-.4h-.3l.1.3.2.1zm-2.1 1s-.1 0-.3.1c-.1 0-.3 0-.3-.2l.2-.1.1.1.3.1zm-9 36l-.2.1.3.3c.2 0 .2-.1.2-.3l-.3-.1zm5.4-32.9l.2-.1.4.5-.6-.4zm-4.6 37.9s-.2.1-.3.3c0-.2 0-.3-.1-.3l.2-.1v-.1h.1l-.1-.2h.2c-.1.1-.1.3 0 .4zm11.5-44.3s-.3 0-.7.1l.1.2h.1l.5-.3zm-42.9 38.1v.4h.3l-.3-.4zm19.9 11.3l-.3-.1.1.2.1.3.5-.3-.4-.1zm11.7-15.5l-.3-.5.5-.3v.4l-.2.4zm13.4-10.4l-.3.3c.1 0 .1.1.1.6l.2-.9zm1.2-23.1c-.2.1 0 .3.4.6l-.2.1h.1l-.3-.7zm-12.7 27.3c-.2.1-.3.3-.2.4v.3c.1-.1.3-.3.3-.4-.1-.2-.1-.3-.1-.3zm-14.8 21.8s.1.2.4.3l.2-.1c-.3-.3-.4-.5-.4-.3-.3 0-.4 0-.4.1h.2zm11.3 1.8l-.2.1c-.1-.1-.4-.3-.6-.3l.2-.1h.1l.2-.1.3.4zm17.3-44.3c-.2 0-.3.1-.5.3l.4.3v-.1l.2-.1-.1-.4zm-12.9 8.4c-.4.1-.6.3-.5.4v.3c.5.1 0-.5.5-.7zm1.7-7.7c-.1 0-.1 0-.3-.2 0-.2.1-.1.6-.1.2.2 0 .3-.3.3zm.6-1.8c-.1-.5-.4-.6-.7-.6v.1l.2.2-.2.1c0-.1 0-.1-.1-.3v-.3h.1l.2-.1c.1.2.4.5.5.9zm-24.4 41.6c0-.4-.1-.4-.4-.2 0-.2 0-.3.2-.4l-.1-.3h.4l-.2.1h.1v.8zM337.5 62s0 .1-.2.6h-.1l-.1-.1v-.1c-.2-.1 0-.3.4-.4zm36.9-8.8s.1.2.3.5c0-.1.2-.1.5-.1-.1-.2-.3-.3-.1-.4-.1 0-.3 0-.3.1-.1.1-.3.1-.4-.1zm-46.7 30.1h-.3c-.2 0 0 .3.1 1l.2-1zm37.2-15.9c0 .1-.2.3-.3.4l-.3-.5.2-.1v.1c.1 0 .3-.1.3-.3.3.1.3.3.1.4zm-18.1 26.2c-.3.1-.4.1-.4 0-.1-.2-.1-.2-.3-.2v.1h-.3c.3.3.4.5.6.5h.3-.1l.2-.4zm-6.1-1.1l-.3-.2h.3l-.3-.2c0-.1-.1-.3-.3-.2v-.3l.1.2h.3l.1.2c.1-.1.3 0 .3.3l-.2.2zM362 74.6c.3.3.1.6-.6.9-.1-.1 0-.4.3-.9v-.1h.1l.2.1zm10.1-28.4s-.1 0-.6-.2c-.1 0-.1.1-.2.6h.1l.1.1c.4.1.6-.1.6-.5zm-9.3 23.9c0-.1.2-.3.3-.3l-.1-.2c-.1-.1-.1-.3 0-.6.4.2.6.3.6.5 0-.1.2-.4.3-.9l.1.2h.1v.3l-.6.4h-.1l-.6.6zm-6.7 17.1s.2-.1.3-.4l-.3.1v.1l-.3.4c-.5.6-.6.9-.6 1h-.1l.1.3c.1 0 .2-.1.2-.3v-.1l.2-.1c.1.1.1 0 .3-.1V88c.4 0 .6-.1.5-.4l-.3-.4zm1.5-.5v-.3c-.3 0-.4-.2-.3-.3l-.1-.1-.3.3-.1-.2.3-.1c.2-.1 0-.3-.1-.4-.2.6-.3 1-.5 1.2h.3l-.3.4.1.2.3-.6c-.2-.2 0-.2.7-.1zm15.2-42s.1 0 .4.2l.2-.1c.1.2.3.9.4.9v-.4c-.1 0-.1-.2-.1-.3-.3-.2-.3-.3-.1-.4.2-.1.3-.3.2-.6h-.3l-.5.4c.1.1.1.1 0 .3h-.2v-.3c0 .1 0 .3-.2.3v.1l.2-.1zm-23 60.4c-.2.1-.3.1-.4 0l.1.1-.2.1c0 .1-.3.3-.8.4 0 .3-.2.4-.3.3l.1.2h.6c.1-.1.3-.1.4.3v-.3h.1c.3.3.4.2.5-.3h-.3l-.3.3v-.2l-.1-.1c.2-.1.3-.1.6-.1v-.2h.3l-.3-.5zm18.2-9.9c.2-.3 0-.4-.4-.5v.2h-.1c-.2.1-.2.3-.3.3-.1 0-.3-.2-.3-.5-.1.1-.3.3-.3.1-.3.3-.5.4-.5.6 0 .1 0 .3.1.3 0 .1.1.4.4 1.1l.6-.1v-.4l-.2.1v-.1l.1-.1h.2l.7-1zm-5.1-29.4v-.4l-.2.1c0-.7-.1-1-.3-.7h-.2v-.1h-.1c.2-.6-.4-1.2-.4-1.3 0-.2.2-.4.3-.6l-.1-.9c-.3 0-.5.1-.3.3.1.2.1.3 0 .3 0 1 0 1.6.1 1.8l-.2.1v.4c.1.9.4 1.2.6.9.1 0 .3 0 .4.2.2 0 .2 0 .4-.1zm15.1-5.6c.2-.3.2-.7 0-1.2-.3-.3-.6-.5-.9-.5-.4 0-1 .3-1.1 1-.2.4.1.9.9 1.1l1.1-.4zm-1.5-2.6v-.4h-.6c.1.2-.2.1-.9.1l-.7-.8c-.2.1-.3.3-.3.6s-.2.3-.4 0h-.1c-.2 0-.3-.2-.1-.3 0-.3.2-.6.3-.7h-.1c-.1-.2-.1-.3.2-.6h-.1c.3-.4.5-.4.4 0 .1 0 .3-.3.3-.7.5-.1.8-.3.9-.3l-.3-.2-.1-.2h.3l-.1-.2-.3.1c-.1-.1-.3 0-.4.1-.2.3-.2.3-.3 0l.2-.1h-.1v-.1l.2-.3c-.1-.1-.1-.3 0-.4.1-.1.2-.3.2-.4h.1v-.3h.3v-.2h-.1l.5-.4c-.3-.2-.1-.3.5-.6-.1-.2-.4-.3-1-.3v-.1h-.2v-.3h-.1l.8-.7v-.2c-.2 0-.3-.2-.4-.3l-.4-.5v-.1c-.1-.2 0-.1.2-.3h-.4l.1-.1c.1 0 .1 0 .3-.1-.1-.2-.3-.3-.3-.2l-.1-.2h.1l-.1-.1c.1-.1.1-.1.2-.3v.1h.3l.2-.1h.1c-.3-.2-.4-.3-.4-.2V47l-.3-.8c.1.3.1.5.3.5l-.4-.8c.1.2.1.2.1.3l-.2.3c-.2.1-.3.3-.3.4v.1h.1l-.2.1v.2l-.2.1.1.3.1-.1.1.1v.1h-.4v.4c.1.2.3.2.3 0v.1l.1.1v.2c-.3 0-.4 0-.4-.2l-.1-.1h-.1v-.1h-.2c-1-.5-1.8-.6-2.4-.6h-.4c-.2.1-.3.1-.5.1l-.1-.2c-.1-.2-.3-.2-.3-.2v.1l-.2.1h.1v.1c-.1 0-.5.1-.9.3l-.1-.2-.2.1-.1-.2c0-.3.2-.3.3-.1h.4c-.1-.2-.1-.3.3-.3l-.1-.2.2-.1v-.3l.1-.1.1.1-.1-.4-.1.1c.1 0 0-.1-.1-.3-.4-.2-.7-.2-1 0-.1-.5-.4-.6-.7-.6-.1 0-1.5 1.2-1.7 1.3-.1 0-.3 0-.4-.2l-.3.3-.1-.2-.2.3h.1-.1c0 .1-.2.3-.3.4l-.1-.2c0-.2.2-.1.3-.1l-.4-.3c-.3 0-.4.1-.6.3l-.1-.1v.3l-.1.1c.1 0 .3 0 .4.2-.2.1-.2.1-.2.3-.6.3-.9.7-1.1 1.3-.3.7 0 1.5.7 2.4h.1c.3.3.7 1.7.7 1.9l-1 .6v.2l-.2.1-1.6-2.6v.1c0 .4 0 .7-.2 1.2.7 0 0 .7.4.8 0 1 0 1.5.1 1.3 0 .1.1.6.3 1.2.3.6.4.9.4 1.1.4.9.6 1.4.7 1.2v.2c.1 0 .1 0 .3.2l-.3.3c-.3.1-.3.3 0 .3-.2.1-.3.1-.2.3v.3c.1.3.1.6 0 1h-.1v.4l.2-.1c.2-.4.3-.6.5-.7.1.3.1.6 0 .7.1.6.3 1 .1 1.3v.9h.1c.3 0 .3.3.1.7h.2c0 .3 0 .4-.2.4l-.2.1.1.1h-.2c.1.2.1.3 0 .4l.3.2-.2.1h.1l.2-.3c-.1-.2 0-.3.2-.4h-.1c0-.1.2-.1.5-.1 0 .3 0 .4-.2.4.1.1.1.4 0 .6v-.1l-.1-.1v.4l.2-.1v.3h.1v.1l-.1.1.1.2-.3.1.1.2-.2.1c-.1-.2-.1-.2-.1-.3l-.1.1c0 .2 0 .2.1.3-.5.4-.5.6-.3.6 0 .6-.8.4-.6.9v.1l-.1-.2h-.2l-.2.1v-.1l-.2.3-.3.1v-.1.1h.3v.2l.3-.3c-.6.6-.8.9-.5.9-.1 0-.3 0-.3.1s0 .3.1.3h.2v.2c-.3.7-.5 1.6-.5 2.4l-.2.1.1.1v.6c-.5.1-.3.1-.8 1.2-.4-.6-.7-.9-.9-.9 0 .4.3.9.3 1 0 .4.1.4.3.3l.3.3c0 .1-.2.3-.3.4-.1.1-.2.4 0 .6-.1 0-.2.3-.2.9-.2.1-.2.4-.2 1l-.3.6-.2.1c-.1-1.2 0-2.1.2-2.7l-.2.1c-.5.6-1.7.6-1.7 1.2-.1 0-.2.4.3 1.3l-.1-.2c-.2.1-.2.1 0 .3v.4c.6 0 .7.2.3.3v.4h-.3v.3h.2c-.2.1-.3.3-.2.4.1.2.1.3 0 .3.1.3.3.5.4.3 0 .1-.2.4-.6.9v.3c.1-.1.1-.1.2-.3l.1.2.3-.3v.4c-.1-.1-.2.3-.2 1l.3-.3c.1.2.3.2.4.2v.4l-.2.1h-.1c.1.3-.2.6-.6 1h.3l.2-.1c-.2.1-.2.6-.2 1l-.1.1v.1h.1v.3l-.1-.2c-.2.1-.2.3-.2.4s0 .1.1.3h.1v.6c-.1-.2-.1 0-.2.4h-.1l.1.1c-.2.1-.2.9-.6 1.3l-.1-.2-.5.4.1.1-.2 1.3c0 .4 0 .7-.2.6-.4 0-.3 2.5-.8 2.5l-.6.6-.9-.8.3-.1c-.4-.2-.6-.2-.6 0h-.1c-.4-.5-1.3-.6-2.7-.6h-1c-.6.1-.9.3-1.1.3l-.1-.2v.2l-.9.4.1-.1v-.1h-.1l-.2.1.1.2h-.1l.1.1c-.1 0-.4.1-.6.3v-.2c-.1-.2-.3-.2-.3 0l.1.2v.1h-.3c0 .2-.2.1-.3.1-.1 0-.1 0-.3-.2h.3v-.1l-.1-.2.2-.1.3-.1h-.3v-.1l-.2.1-.2.1.1.1-.3.1.1.1h-.4c-.6-.2-1-.3-1.5-.3h-.3c-.9-.2-1.8-.6-2.5-1.4-.3.1-.6 0-.9-.5 0-.1 0-.3.2-.3h-.2l-.2.1v-.3l-.4-.6c.1 0 .1 0 .3-.1l.3.3h.1l-.1-.2v-.1c0-.1 0-.1.2-.3h-.1c-.1 0-.3-.2-.3-.3h.1v-.2c-.1-.2-.1-.2 0-.3-.4 0-.7 0-.6.1l.1.2-.1.1c-.1 0-.1-.2-.1-.3h-.2l-.1-.2c0 .2-.2 0-.3-.2-.1 0-.3-.2-.1-.3v-.3l.4.5V89c-.4.1-.3-.5-.4-.5l.2-.1c0-.1-.1-.6-.3-1-.1-.5-.1-.7-.3-.6l.1-.1c.1 0 .3-.1.3-.3.1 0 .3.2.3.6l-.1-.3v.3l1.6 1.7c.4.2.9 1.5 1.6 1.1l-.2.1c.6.2.7.8 1.3 1.2 0 .1.1.2.4-.1l-.6-.6c.2-.1 0-.1-.3-.2v.3s-.1-.3-.6-.8l.2-.3c-.7-1.1-1.6-2.1-2.6-3.2-1.3-1.4-2-3.6-2.4-6.6-.1-2.5-.4-4.9-.6-7.3l-1-2.4c1.2-.7 1.8-2.2 1.9-4.5 0-.7-.1-1.8-.6-3l.2-.1v-.1l.1.2.2-.6c.6.2 1 .2 1.3 0 .8-.7.9-1.5.6-2.4.2-.1.3-.3.3-.4 0-.1-.1-.2-.3-.2l-.2.3c.1 0-.2.3-.8.9 0-.1-.2 0-.6.1 0 .1-.3.1-.7.1-.1 0-.1-.3-.1-1-.1 0-.3-.2-.1-.3l-.6.3-.1-.1c-.1-.2-.1-.3 0-.6.4.2.3-.4.5-.4l-.1-.2.1-.1.5-.1h-.3l-.1-.3c.2-.1.2-.7.2-1.5.2-.1.2-.3 0-.4-.1-.2 0-.3.3-.4v-.2c.1 0 .3-.3.6-.9l.3-.7h.1l.3-.3c.4 0-.7-.3-.3-2.2-.4-2.2-.7-4.9-2.6-5.7-1.3-.2-2.4-.2-2.8.1-3.1 1-5.4 4.8-6.6 11.5l-1.3 7.4.1.5c-.2.3-.3.6-.3.7v.7c-.2.7-.2 1.3-.2 2.1 0 1.5.3 3.1.7 4.9.3 0 .4.2.4.3h.3c.1.1.1.3 0 .3v.1l.3.6h-.2l.1.2c-.3.3-.3.4 0 .4 0 .4.1.7.3.9v-.1l.1.1c-.2.1-.3.1-.2.3v.1l-.1-.2-.3.3.1.3h-.1c0 .2.1.2.3.2.1.2.3.2.4 0l-.3.3h.1l-.2.1v.1l-.1-.1v.9l-.2.1h.1v.1l.2-.3.1.1h.3v.6l-.1-.2-.2.1c.1.2.3.3.3.8v.4c0-.1.2-.3.5-.3v.1l.2-.1.1.2h.1l-.1-.2c0-.3 0-.4-.1-.6h.1v.1l.1.2h.2V79h-.1v-.1l.3-.1-.1-.3h.1c0 .1.1.5.3.6l-.1.1.1.2-.2.1-.2.1v.6l.3-.1h.1v.1c.1.2.1.3 0 .6v-.4c-.2.4-.3.6-.5.7h.1c0-.1.2-.1.3-.1v.3h.1l.1.5c.1.4.1.7-.2 1h.1c.1.3.1.4 0 .6v1.2c.1.1.1.3.3.3l-.3.3c.1 0 .1.2.1.3l-.2.1v-.1.3l.1.2c-.2.1-.2.1-.2.3l.1.2c-.2 0-.2.1.1.4-.2.6-.2 1.5.1 2.5v.3l.1.2c.1 0 .1.2-.2.4 0 .3.1.4.3.6-.5.6.1 1 0 1.5.3.3.4.5.3.6.3.3.3.5 0 .4.1.2.3.6.6 1.5l.1.1-.2.3h.1l.1.1h-.1l.3.5h.3L332 98c.3 0 .3.2.1.3l-.2.1-.1-.2v.1c0 .2.1.2.3.2v.1-.1h.1l.2-.3c.4.5.6.6.6.8l-.2.1c-.2.1 0 .3.3.5l.1.2-.2.1-.1-.2v-.2c-.1-.1-.3-.3-.4-.3v.1c.4.5.6.9.6 1.2v.4c.2-.1.3-.3.5-.3l-.3-.2h-.1c.1 0 .2-.1.3-.3l.1.2v-.1l.4.5c.2 0 .1.6.6.5l.4.6c.4 0 .3.6.7.6-.1 0-.1-.2-.1-.3-.1-.2-.3-.3-.3-.5h-.3l-.1-.1-.7-1.2h.1v-.3.1c0-.1 0-.4-.1-.6.4.5.9.8 1 1.2v-.1c0-.1-.1-.5-.3-.6h.3c-.1-.4-.6 0-.6-.5l.2-.1.4.3.3.6c.2-.1.3.2.6.9 1 1.4 1.9 2.4 2.6 2.9l.3.3c.3-.3.5-.3.4-.1.4.2.7.5.9.6v-.1l.2-.1h.1v-.1h.1c.1.2.1.2.3.2l-.3-.3c.4-.1.6-.1.7-.3h.3l-.1-.2.2-.1h.1v.1h.2l.1.2.6.5.2-.1c.3.2.6.2.7.3l-.2.1h.3v-.1h.4v.2h.1l-.3.1.6.2v-.1c.1.1.1.1.3.2.2-.1.2-.1.3 0 0-.1-.1-.3-.4-.5h1v.1l.1.2v-.1h.3c.1.2.1 0 .2-.3.1 0 .1 0 .3-.1v.4c0-.1.2-.3.5-.3v-.1l-.1-.2c.1 0 .3 0 .4-.1h.4l-.1-.2c.3-.1.6-.3.9-.6l.2-.1.5-.6c.7.5 1.3.8 1.8.8l-.2.1h.3l.9 1.2v.2c-.1 0-.3-.2-.3-.3l-.3.1-.1-.2-.6.6c.1.2 0 .1-.6.1 0 .6.4.7.4.9.2-.1.1-.1.2-.3l.1.1-.2.1h.2c.3-.3.5-.3.4-.1.4 0 .6 0 .7.2h-.3l.4.3c0-.1.3-.3.9-.3 0-.2.2-.1.5-.1v-.1h-.3l.3-.3.1.2c.1 0 .1 0 .3.2h.6c0 .1 0 .3-.2.3l.1.2v.1l-.1-.1c0-.2-.1-.2-.3 0l.1.1-.3.1.3.2c-.1 0-.3 0-.3.1h-.1c0-.1-.3.3-.9 1.2h.3c.1 0 .1.1.1.4h.6c.1.2.3.3.3.5.8-.6 1.2-1 1.7-1.2.1.2.1 0 .2-.6l-.6.4v.1c0 .1-.2.3-.5.3-.1-.2-.3-.3-.3-.5l.3-.1c.2-.1.3-.3.3-.6l-.5.4c-.3-.3-.4-.3-.4-.2v.1h-.1c-.1-.3-.1-.4.2-.4-.1-.1.5-.3.5-.7l.3-.3h.7l.2-.1h.6c.8-.3 1.4-.7 1.8-1.2v.1l-.8.7c.1.1.3.2.3 0 .2-.3.2-.4.3-.4l.9-.9c.3 0 .4 0 .6-.1 0-.4.2-.6.3-.4v-.1c.1 0 .3-.1.3-.3l-.3.1v-.2c-.1.1-.2.1-.2.3v.1h-.1v-.3c-.1 0-.3.1-.3.3l-.2.1h.1v.1l-.3.1-.1-.1.6-1.3h.2v-.3h.1l.1.2v-.3h.3v.1l.5-.3c.3 0 .4 0 .3.2l.2-.1h.3l.1.4.2-.1h-.1c.4-.1.6-.3.8-.4.4.5.8-.9.8-1l.3.2.3-.3v.3l.9-.7c.5-.7.6-1 .6-.7 0-.2.1-.1.3-.1.2-.4.5-.7.6-.9.2-.1 0-.3-.1-.4l-.3-.2c-.2.1-.3.3-.8.4l-.1-.3.2-.1-.4-.3-.9 1.5-.1-.3c-.2.3-.2.4-.2.4-.1 0-.3 0-.3-.2.1-.1.2-.3.2-.4s-.1-.3-.3-.5h.1l.2-.1-.1-.2.5-.4.1.2-.2.1c-.1 0 0 .3.3.8l-.1-.2.2-.4v-.6c.3-.3.5-.4.5-.6.3-.7.5-1.2.5-1.5-.1 0-.3 0-.3-.2l.3-.1-.1-.2-.2.1h-.1l-.1-.2.2-.1c0-.1.2-.1.3-.1l-.3-.2c.2-.1.3-.1.3 0v-.1c.4 0-.2.4.4.5 0-.4.2-.9.3-1.3h.1-.3l-.1-.2.2-.3h-.3c0-.1 0-.3.2-.3h.1l-.3-.3.1-.1.1.2c.1 0 .2-.1.2-.3l.1.2-.3.3v.1l.2-.1.1.1-.1.1c.1 0 .3 0 .3-.1v-.7c.2-.1.3-.3.5-.3l-.1-.2h.2v-.3c0-.2-.2 0-.6.4l-.1-.3.1-.1.1.1v-.5l.3-.1-.1-.2h.1c-.1-.1-.1-.3 0-.3.3-.4.5-.6.3-.6h-.1l.1-.1-.1-.2h.3v-.4h-.1l.1-.1h.9l-.2.4c0 .1.1.2.3.2-.1-.2-.1-.3-.1-.6.6-.1 1.2-.6 1.7-1.3l.2-.3v-.3h.4c.3 0 .3-.1 0-.3l-.1-.1v-.1c0-.1 0-.1.2-.3h-.1c.2-.3.2-.9.2-1.6v-.9l.2-.1v-.1l-.1-.2c-.2.1-.1-.3-.1-1.5.2-.9.3-1.3.3-1.5l-.3-.2s0-.1-.1-.3v-.3h.1c0-.1.2-.1.3-.1l.3-.7h-.1l.2-.3h-.3v.2l-.1-.2.2-.1v-.3l.3-.3c.1.3.1 0 .2-.9l-.1-.2c.2-.1.2-.3 0-.4.2-.1.2-.1.3-.1-.1-.2-.1-.3.2-.6h-.1c-.1-.2-.1-.2 0-.3v-.1l.1.2v-.1h-.1l.2-.1-.1-.1v-.4c0-.4.9-.1.9-.7-.1-.2-.3 0-.4.1v-.7c0-.1-.6-.3-.6-.5 0-.1.2-.3.3-.4h-.1v-.3c.4 0 .7 0 .6-.1v-.1h-.1V72l-.1-.2-.2.4v-.7h.1l.1.2c.1.2.1 0 .2-.3v-.2h.1l-.1-.2.5-.9h-.1c.3-3.3.5-1 .8-2.2v-.3h-.1l-.3-.7c.2 0 .1 0 .3.2v-.3c0-.2 0-.3.2-.4v.1h.1l-.1-.3h.1c-.1-.1 0-.3.2-.4l.3-.1c0-.1-.1-.2-.3-.3l-.1.1c0-.9.2-1.5.3-1.9-.4-.2-.6-.3-.7-.5-.3 0-.3-.2 0-.4 0-.1.1 0 .3.2v.1l-.2.1c.1.2.3.2.3 0s.1-.1.4-.1l-.2.3.2-.1h.1l-.1-.1.2-.1h.1l-.1-.2.1-.1h-.1c.3-.3.3-.4.2-.4.3-.3.5-.4.3-.4v-.1c-.1 0-.3-.2-.1-.3v-.3h.1c.1.2.1.2.3.2v-.1c-.1 0-.3-.2-.1-.3.2-.1.2-.1 0-.3.1 0 .1 0 .3-.1v.9l.5-1.5v.1l.1.2c0 .1.1.2.3.2-.1 0-.1-.1 0-.3.2-.1.2-.1.2-.3 0 .1.1.2.3.2v-.4c-1.2-2.3-.9-2.3-.8-2.1zm-25.2 36.8c-.2 0-.2 0 0 0zm21.1-25.1c-.2-.1-.2-.1 0 0zm-43.9 12.9c-.5-.1-.5-.1 0 0zM136.8 51.6c-.2-.2-.3-.2-.3-.3 0 0 .2 0 .5.2h-.3c.2 0 .3 0 .3.2l-.2-.1zM111.6 82c-.2.2-.3 0-.6-.3l.6.3zm38.6-.7c-.2-.2 0-.2.2 0h-.2zm-28.3-4.5l.2-.2-.2.2zm35 7.8l-.2.2.2-.2zm.6 15.1c-.2.2-.3.2-.3 0h.3zM143 83.3c.2.2.3.2.2.2l-.2-.2zm11.8-2c-.2.2-.2.2-.3 0h.3zM123 67h-.2.2zm20.6 9.3l.2-.2-.2.2zm14.5 23.5l.2-.2-.2.2zm-.4-16.3v-.2.2zM138 84.8l-.2.2.2-.2zm22.5-2.8h-.2.2zm-.7-2.6h-.2.2zm-18.6-7.2l-.2.2.2-.2zm-3 12.8h-.2.2zm6.4-9.1h-.2.2zm-8.6 9.2v-.2.2zm5-12.7h-.2.2zm-14.5-6.9l-.2-.3.2.3zm33 12.3v.2-.2zm-29.9-2.9l-.2-.2.2.2zm30.8 6.8v.3-.3zm-33.7 12.5c.2.2.2.3 0 .5v-.5zm20.1-22.5l-.5.2.5-.2zm-24.7 1.2h-.3.3zm1.5-6.4v.2-.2zm20 9.8v.2-.2zm-14.4 17.9l-.2-.2.2.2zm10.1-9V85v.2zm17 0h-.2.2zm-12.5-8.4l-.2-.2.2.2zm-17.3-.7s.2 0 .6-.1c-.2.1-.5.1-.6.1zm29.9 2.1l.2.2-.2-.2zm-26.8-6h-.3.3zm26.1 9.8c-.2.2-.2.2-.3.2l.3-.2zm-10 2l-.2-.2.2.2zm13.7-.6l-.2-.2.2.2zm-.4-3h-.3.3zm-38.8-12.7h.2-.2zm9.7 4.5h-.3.3zm24.6 3.5v.3-.3zm3.2 7.7l-.3-.2.3.2zm-15.3.7h.3-.3zm6.1-9.9c-.3 0-.5 0-.5.1l.5-.1zm-21.8 20.6h.3v.2l-.3-.2zm-6.2-27.2v.3-.3zm34.3 8.1l-.2.2.2.2.2-.3-.2-.1zm-11.5.6c-.2.2-.2.2-.3.2l.3-.2zm9.2-1.4c0-.2.2-.2.6-.1l-.6.1zm-15.7-3.2l-.3.3c.2-.1.3-.3.3-.3zm-15 .9l.2.3.3-.2c-.3-.1-.5-.1-.5-.1zm38.1 11.6l.3-.2c-.3 0-.5 0-.5.1l.2.1zm-6.7-3.5c.2 0 .2 0 .3-.2l-.3.2zm-7.2-8.9h-.6.6zm12 11.7h-.3.3zm-37.2-16.7l-.3.3.3-.3zm26.4 8.5l.2.2c.2 0 .3 0 .5-.1l-.7-.1zm-2.6-3.3l.2-.2c-.2 0-.5 0-.6.1.2.1.4.1.4.1zm-18.9.5c-.5 0-.6 0-.6.1.3.1.5.1.6-.1zm31.9 27.1s.2 0 .5.2h-.6l.1-.2zm-11-16.5h-.5.5zm15.9 3.3h-.5.5zm-23.4-1.1l.2.3v-.2h.2l-.4-.1zm11.8-5.6s.2.2.6.3c-.5 0-.8-.1-.6-.3zM108.6 60s0-.2-.1-.6c-.2.1 0 .4.1.6zm40.2-9.3s-.2 0-.6.1h-.2l.2-.2.6.1zm-8.4 21.8s.2 0 .5-.2c-.2 0-.3 0-.3-.2-.2.2-.3.2-.3.3l.1.1zm11.4 9.7s-.2 0-.6-.2c.3.2.4.4.6.2zm7.8-3.2c-.2-.2-.2-.2.2-.3-.2 0-.3 0-.3-.2v-.2c0 .2-.2.3-.3.3l.4.4zm-24.1 6.1h.5l-.2-.2h-.2l-.1.2zm-7.7 10.2s-.2-.2-.3-.5c.5 0 .5.2.3.3v.2zm11-10.6l-.2.3c.2.2.2.2.3 0 0-.2.2-.2.3-.2l-.4-.1zm-18.2-14.9c0-.6-.1-.8-.3-.3.2.1.2.3.3.3zm38.4 8.1c.2.3.3.5.5.3v-.3h-.5zm2.2.1s-.2 0-.5-.2l-.2-.2c0 .2 0 .3.1.5l.2-.2.2.2v-.2l.2.1zm-18.5-1.7c.2.3 0 .3-.5 0l.2-.2c.1.1.1.1.3.2zm-20.1-1c-.8 0-1.1.1-.6.3-.2 0-.3-.2-.3-.6l.9.3zm27-.3l.3.3h-.2c0 .2.2.2.3.2.2 0 .3-.2.3-.3l-.7-.2zm-1.8.3c.2.2.3.2.6.2s.6 0 1.1-.1l-1.7-.1zm-9.9-3.7c-.6.3-.9.5-.9.3l-.2.2h.5l.2-.2c.1 0 .3-.2.4-.3zm17 9.6l.2-.2c0-.2.2-.2.3 0l-.2.2.3.2c-.2.2-.2.2-.3.2-.2 0-.3 0-.3-.2v-.2zm11.8 5.4s-.3.2-.8.3l.2.3c0-.1.6.2.6-.6zM155 78.4c-.6-.2-.9-.2-.9 0l.2.2c.2.2.2.2.3 0 .1-.2.2-.2.4-.2zm-15.5-6.8l1.4.3v.2l.6-.1c.2-.2.2-.2.3-.2h-.2c-.4 0-1.2 0-2.1-.2zm21.2 11l-.2-.5c0 .3 0 .5-.2.6h.2l.2.2h-.2l.6.6-.4-.9zm-14.9-7.8c.3-.2.5-.2.5.2-.2.2-.3.2-.8.1v-.2l.3-.1zM137.9 85c-.2-.2-.2-.2-.3-.2-.2.2-.2.3-.3.2-.3 0-.6 0-.8.1v-.2h-.2l-.2.2h1.2c.3 0 .5.2.5.5l.1-.6zm14.4-5.3s-.2 0-.5.2v.2c0 .8.1.6.6-.1l-.1-.3zm-8.7 11.6s-.2-.2-.5-.3l-.8.3.5.3c.1-.2.4-.2.8-.3zm-14 4.9c0-.8-.1-1.4-.6-1.9-.3.3-.3.5.1.5l.5 1.4zm13.2-8.8c.2.3.5.5.6.5V87h-.5c0 .2 0 .2-.1.4zm10.2-2.2c-.5.3-.8.5-.9.5l.3.2v.2l.2-.2c.2-.2.2-.2.3 0v-.2l-.2-.2c.2 0 .8.2 1.2 0l-.9-.3zm-12.2 2.6s-.2-.2-.3-.5l-.2-.2c.2-.2.2-.2.2-.3 0-.2-.2 0-.5.6l.5.6.3-.2zm-1.8-2.2c-.3 0-.6 0-.8.1.2.2.6.3 1.4.3.2.2.3.2.6.2l-1.2-.6zm20.5-5.9c-.2.2-.5.3-.6.3l.2.2-.2.2h.2v-.2l.3.3h.8l-.7-.8zm-35.6-6.8s.2-.2.5-.3h-.6c-.5-.2-.9 0-1.4.1.2.2.3.2.8.3l.3-.2.4.1zM156 85.2h-.3V85h-.3v.2l-.5.5c.2-.2.5-.1.6 0 .3.2.6.2.9-.1l-.4-.4zm-19.2-12.9c-.2 0-.3-.2-.5-.3l-.5.5c0 .3.2.5.3.3.3-.2.5-.1.6 0-.2-.2 0-.2.3-.2v-.2l.2-.2-.4.1zm2.6 14.1h-.2l-.2-.2h-.2l.3.3c-.2.2-.6.1-1.1.1 0 .3.3.5.8.5h.2c.2.2.2.2.3 0l.1-.7zm26.3 1.1s0-.2.2-.6h-.3c-.2.2-.3 0-.5-.3h.2v-.3c-.2 0-.3 0-.5.1l-.2.2c.2.3 0 .6-.3.9h.3v.2h.2v.2l.8-.5v.3c.1 0 .3 0 .1-.2zm-39.5-17.3s0-.3-.1-.8v-.5c0-.5-.3-.9-.9-1.6 0 .2.3 1.3 1 2.9zm39.9 14.1c.2-.3.2-.6 0-1.1-.2.2-.5 0-.9-.2l-.3.6.6.6.6.1zM129.7 90c-.5-.5-.6-.9-.8-1.4v.3l-.2-.2c-.2.3-.3.6-.3.8l.3-.2c.1 1.1.4 1.6.8 1.7l.2-1zm32.6 19.8c-.2-.3-.3-.5-.5-.5-.2.2-.2.5-.2.9-.5.3-1 1.4-1.1 1.7 0 .2.2.3.3.5l.6-.3c.3-.4.1-1.7.9-2.3zm-35.8-33.5c-1.7.6-2 .4-2.2.6h-.8v-.2l-.6.1.3.2c-.2 0-.3 0-.3-.2h-.2v.2l-.2-.3h-.5v-.4c.5 0 .6 0 .8-.1h.3V76v.2l.3-.2v.3l.2-.2c.2 0 .3-.2.3-.3.5 0 .9 0 1.2-.1.6 0 1.1 0 1.2.2l-.2.2h-.2c.4.2.4.2.6.2zm38 1.3c-.5-.2-.8-.2-.9 0v-.2l-.2.2-.1-.8c-.2.2-.5-.2-1.2-.8-.2.2-.3.2-.3 0-.5.3-.6.6-.5.9-.2 0 .2.3.9 1.1.2-.2.5-.1.9 0 0-.2.3-.2.9-.1 0 .1.2 0 .5-.3zm3.4 14.3c0-.5-.1-.6-.6-.6.2 0-.2.2-.6.5-.3.6-.3 1.2-.2 1.7.1.6.3 1.3.3 1.7h.2c.7-1.2 1-2.3.9-3.3zm-.7 3.5c-.3.2-.6.8-.8 1.9 0 1.2.1 2 .4 2.2.6-.5 1-1.7 1-3.4l-.6-.7zm-2.3-13.6c-1.2-1.7-1.7-2.8-1.5-3.3h-.3v.5c-.3.2-.6.3-.8.3s-.3 0-.5-.2c0 .2-.2.3-.3.3h-.2c.1.6 1.7 1.1 1.8 1.9-.2 0 .2.3.9 1.1h-.2v.2c0-.2.3-.2.8-.1 0-.1.1-.3.3-.7zm-10.3 1.5c-.5-.3-1.6-.5-3-.5-.2-.3-.3-.3-.5-.2-.2.2-.3.1-.3 0-.6 0-1.1 0-1.4-.2-.2.2-.5.3-.6.3l-.2-.2v.2h-1.7v.3c.2 0 .5 0 .6-.1 0 .2.2.3.3.2l.2-.2.2.2c.5 0 .8-.1.9-.3.2 0 .2.2.1.5-.2 0-.5.2-.8.3.2 0 .3 0 .8-.1h.9l-.2.2.3.2h-.2v.2h.2v-.2l.3-.1-.2-.2v-.2h.2c.5.2.6.3.8.3.5 0 .6 0 .6.2h.6v.2l.2.3.2-.5.2.2h.3c.6-.1.7-.8 1.2-.8zm3.3-5.8c-.2.3-.5.5-.8.3s-.5-.2-.5 0h.2c-.6.1-.5-.5-.9-.5l-.5-.5h-.3l.6-.3v-.2h.2l.2-.2c-.8 0-1.4 0-1.9-.2v-.6h.3c.2 0 .5 0 .6-.1.8 0 1.2.2 1.4.3h1.4c.2.2.1.6 0 1.2l-.3.5.2.2.1.1zm3-2.3c.2-.5.2-.8-.3-.9-.2.2-.8 1.1-1.3 1.1l-.6-.3c-.3-.2-.6-.2-.8 0-.3.2-1.1.1-2.2.1-.5 0-.8 0-.9-.2h-.2l-1.4-.2c.2 0 .2-.2.2-.5-.6 0-1.2 0-1.7.1s-.9 0-1.2-.3c-.5.2-.6.3-.8.3h-.2c0-.2.2-.2.3-.3-.2 0-.2-.2-.3-.3v.2c-.3 0-.5-.2-.6-.3-.3.2-.9-.2-1.9-.6.8 0-.5-.3-3.6-.8.2-.2.3-.2.6-.1V72c-.8.3-1.3.4-1.6.3l-.5.1c.5 0 .9.2 1.2.5.2-.2.3-.1.6-.1 1.2.5 2.2.7 2.8.7.5.5 1.1.6 1.9.8v.2h-.2c0 .3.1.5.5.6 0-.2.2-.2.5-.1l-.2-.2.2-.2c.2.2.8.5 1.9.6.5.9.9 1.4 1.4 1.3 0-.2 0-.2-.2-.3l.2-.2c.3 0 .6.2.8.3-.5.6.6.9 1.1 1.4-.2.2-.3.3-.5.1h-.2l.2.2c.2.2.2.2.3.2.2 0 .3-.2.5-.3l.5.6c.2.2.5.3.6.2.2.2.2.2 0 .3s0 .3.2.3c-.2.2-.5.1-.6.1h-.5c-.9.1-1.6.3-1.7.3.2 0 .2 0 .3.2l-.2.2h.2l.3.3c-.2.2-.3.2-.5.1l.5.2h.2l.3.5-.2-.2.2.3h.2v.2h-.2l-.2.2.3.2c.2.3.5.5.8.5l.9.2-.3.2c.2 0 .3 0 .8.2h-.9l.2.2c.3-.2.5-.1.6 0-.2.2-.3.2-.5.1h-.2l-.2.2v-.2c-.8 0-1.7-.2-3.1-.5 1.4.5 2.5.7 3.3.7.2 0 .5 0 .8-.1v.3h-.8l.3.2c-.2.2.2.3.6.5h.5c-.2.2-.6.5-.8.5.2.2.2.3 0 .5h.3c-.2.2-.3.2-.3.2 0 .2 0 .2-.2.3l1.2-.1c.5.3.8.5.6.5l-.2.2c.2-.2.3-.2.5-.2l-.3.2v.2l.3-.3c.5 0 .5.6.9.6l.5-.3c.2-.2.2-.3 0-.5 0-.2.2-.2.5-.1-.2-.5-.5-.6-.8-.6l.2-.2v-.2c-.2 0-.5-.2-.6-.5h-.2v-.5h-.2v.2l-.2-.2c-.2-.2-.2-.2-.2-.3h.3l-.2-.2c-.2-.2-.3-.2-.3-.3-.2 0-.2-.2 0-.3v-1c.2.2.5 0 .6-.1-.5 0-.6 0-.6-.2h.6c-.5-.2-.5-.3-.2-.3h.8c.2.2.3.2.3-.2h-.5.2-.5c-.2 0-.3-.2-.3-.3h.6l-.3-.2c-.2 0-.3-.2-.2-.3l-.2-.2v-.3c-.3 0-.5-.2-.3-.3.3-.1.5-.3.3-.5 0-.6-.8.1-.8-.5l.5-.2c-.3-.3-.3-.5-.2-.5 0-.3 0-.5.2-.3.2 0 .2 0 .3-.2l1.4-1.4c.3-.4 1.2-.1 1.2-.8zm.4 30.7h-.6c-.2.2-.5.2-.6-.2-.5-.5-.9-.6-1.2-.8-.5.1-.9.3-1.4.3s-.9-.2-1.4-.5c-.3.2-.9.1-2-.2-.5-.5-.6-.9-.6-1.7.5-.8.8-1.1 1-1.2h.8c.5 0 .6 0 .8.2.5-.5.9-.6 1.3-.8.8-.1 1.2-.1 1.7 0 .6-.3.9-.5 1.1-.3-1.2-.5-1.4-1-1.5-1.1-.2 0-.2-.2 0-.3.5 0 .9-.1 1.3-.6 0-.2 0-.3-.2-.5l-2.2-.8c-.3.2-.6.1-.9.1-.2 0-.5 0-.8-.2-1.1 0-1.4 0-1.1.1l-16.2 2.4c-.5 0-1.1.1-1.9.3-.8.1-1.3.3-1.6.3-.5.3-1.4.6-3.1.7-3.8 1.8-4.9 1.8-6.3 3.2-.6 0-.9.8-1.4.6-.6-.2-.9-.3-.8-.8l.2-.3c0-.2 0-.3.2-.5.2.2.2 0 .2-.8h-.5c0-1.9 0-3.1-.1-3.6.2-.3.2-.6 0-.9 0-.3 0-.8-.1-1.4v-1.4l.8-.1.2-.8.2.2v-.2l.2.5v-.4h.2c0 .8 0 1.1-.2 1.2.3.2.3.3-.2.3.2.2.5.2.8.2.5-.1.8-.3.8-.1 0 .2 0 .2.2.3.2-.2.2-.3 0-.6-.1-.5 0-.8.3-1.1l.2.2-.2.2.2.2v.2h-.2c0 .8.3.2.3.8l-.2.2h.2v.3h.3v.5c0 .6 0 .9.1.9h.5v-.3c.2 0 .5.5.6.5v-.2c0-.5-.1-.6-.3-.8 0-.5-.1-.9-.4-1.3.2-.2.2-.3 0-.5s0-.5.2-.6v.2l.5.5v-2.2c0-.2.2-.5.3-.6v-1.7h.2l-.2-.2c-.2.2-.2-.3-.1-1.4.2-.3.2-.6.2-.8l-.2-.2c0-.2-.2-.2-.3-.2-.3-.3-.3-.5.2-.5l-.3-.3v.3h-.3c-.2.2-.2-.3-.1-1.2.6-.3.9-.5.9-.6h-.2l.3-.3c.2.2 0 .6.5.6.2-.2.2-.3 0-.5 0-.2.5-.3 1.3-.6-.2-.2.2-.3 1.1-.3 1.1 0 1.3-.4 3.6-.6 1.2-.1 1.7-.1 1.4-.3.2-.5.5-.1.6-.3.2 0 .2 0 .3.2l.2-.2h.9v-.2c0-.2.2-.2.3-.2-.2-.3-.1-.6.3-.8h.2c.2.2.3.2.3.2l.2-.2v.2c-.2.5-.2.6 0 .8l.2.2c-.2 0-.2.2 0 .3l.2.2h-.2c0 .2.2 0 .3-.1l.2.3h-.3v.3l.2.2c0 .6.8.5.8 1.1l.2.2c.2.2.2 0 .3-.2l-.8-1.3h.2c-.5-.5-.8-.9-.8-1.4l-.2-.2c.2-.2.2-.2.3-.2h-.3l.2-.2h.2c.1.5.3.3.3-.2-.2 0-.5 0-.6-.2.3-.3.6-.5.9-.3.3-.2.6 0 1.1.5h.3c0 .2.2.3.3.3v-.2l.3-.2v.3c.2 0 .3 0 .5.2h-.3c-.2.2 0 .5.1.6l-.2.2c.2 0 .2 0 .3.2 0 .3-.2.5-.5.5h-.3l.5.3-.2.2.6.2-.2.2c.3 0 .5 0 .6.2l-.2-.2h.5l.2-.2c.2 0 .3.2.6.3v-.2l-.3-.3.3.2h.3c.2-.5.5-.8.6-.9l-.2-.2v-.2c-.2-.2-.1-.6-.1-1.6.2-.2.3-.5.2-.6l-.8-.2c0-.6.8 0 .9-.6l.2.2c.6-.1 1.1-.3 1.6-.3.2-.5.5-.2 1.3-.3h.8l-1.1.6.8.2h.3c.6 0 1.1-.1 1.3-.3h-.3l.5-.5c-.2 0-.5 0-.6.1-.2.2-.2.2-.3.2l-.2-.2h-.3c.2-.2.5-.3.9-.1h-.2c0-1.2.5 0 1.3-.8l.2-.2c-.2 0-.2 0-.3-.2.2-.3.3-.5.5-.3l-.2-.3h.2c.3 0 .6-.1.8-.3v-.2c-.2.2-.3-.2-.8-.6v.3h-.8v-.2c.2-.2.2-.2.3-.2h-.2c-.2 0-.2 0-.3.2l-.3-.3h-.2l-.2.2v-.3c.2-.2-.5-.2-1.9-.2v-.2h-.5l.3.2c-.2.2-.2.2-.3.2l-.2-.2v-.2c-.2.3-.5.3-.8.1-.2-.2-.5-.3-.6-.2-.2-.2-.3-.2-.5 0s-.3 0-.3-.2h-.5l.2-.2-.3.2c-.2-.2-.3-.3-.6-.3v-.3h-.3v-.3l.3-.3h-.9c.3-.2.6-.1.9 0 .5-.3.6-.3.8-.1h.2v.3h.5l-.3-.3.2-.2h.3c.2.2.5 0 1.1-.3-.5.2-.8.1-1.1.1h-.2c.2-.2.5-.3.6-.3v-.2h.6l-.8-.2s.2 0 .3-.2c-.5-.5-.9-.6-1.1-.5l.2.2-.2.2c0 .2 0 .3.2.3l-.6.1c-.2 0-.5-.2-.6-.3H144c-.8-.2-1.4-.3-1.9-.3h.2c-.2-.2-.3-.3-.6-.3v.2h.2l.2.3-8.3.8c-.2 0-.5 0-.6-.2h-1.1l.2.2-.2-.2c-.2 0-.5 0-.6-.2h2c.3-.3.6-.3 1.1-.1h.2c.2 0 .3 0 .5-.1-3.9-.1-3.6-.4-4-1l-.2.3.2.2c-1.4-.2-2.3-.2-2.7 0 0 .2.6.3.8.3.6.2 1.2.3 1.7.3v.2l.2.2c0 .2.2.2.3.2-.2.2-.3.2-.5.2s-.3 0-.5-.2v-.2l-.3-.2v.2c-.2-.2-.3-.3-.3-.2-.3.2-.6.1-1.1 0l-2.2-.5c-.2.2-.5.3-.8.1 0 .2 0 .2.2.3l.3.2c-.5.1-.6.3-.8.3l.2.2-.3.2c-.2-.2-.6-.3-1.2-.3-.2-.3-.9-.8-2.3-1.4v-.2h.2l-.3-.3c0-.5-.8-1.1-.6-1.7l-.2-.3c.2-.2.2-.5 0-1.1 0-.2 0-.3-.1-.6-.1-.6-.1-1.1 0-1.2.2-.2.2-.5.2-.9v-.6c0 .2 0 .2.2.3v-1.2c.2 0 .3 0 .5-.2v.6l.2.2c0 .2.2.2.3.2l-.2-.5c-.2-.2-.2-.2 0-.3l.2-.2h.3l-.2-.3c.2-.2.3-.3.5-.3l.1 1.2c.1.5.6 1.1.6 1.6l.2-.2v-.2.2-.2l.2-.2.3.3v-.2h.2l-.2-.2v-.6l.2-.2-.2-.2c0-.2.2-.2.3-.2v-.8l-.2-.2c.2-.2.2-.2.2-.3 0-.2 0-.5-.1-.8-.2-.2 0-.5.2-.8-.4-3.3-.7-5.6-.7-7 .2.2.3 0 .5-.5l.2-.3c.3-.3.5-.6.5-.8h-.2l-.3-.5c-.2.2-.3 0-.6-.5l-.2.2c.2-.2 0-.3-.1-.6h.9c.2.2.2.2.3.2.2 0 .6-.6 1.3-.6 0 .2.2.2.3.2.2 0 .2 0 .3-.1.3-.2.6-.1.9.2v-.2c1.9 0 6.6-.4 8.6-.3.6-.6 1.1.3 1.1-.8h.9c0 .2.2.2.5-.1l-.2-.2c-.3-.2-.6-.2-.8-.3l3.6-.1h.5c.2 0 .5 0 .6-.1h.2c1.1 0 3.9-.6 5.2-.6l.3.2c.2-.2.5-.2.6 0l-.2.2c0 .2.2.3.3.2.2-.2.3-.2.5 0 3.3-.6 5.9-1 7.7-1.1l.2-.3c0-.2 0-.3-.1-.6-1.4-.6-2.8-.7-5.1-1.2-.9-.2-1.2-.2-1.1-.3-.2 0-.3-.2-.3-.3-.6-.2-.9-.3-1.1-.5-1.7-.2-3.9-.4-6.7-.9h-.3c-.5 0-.8-.2-1.2-.3h-.9c-.5 0-.6 0-.5-.2l-.5-.5c.2-.2.5-.3.9-.3h1.2l1.9-.4c.8.2 1.6.2 2.5 0 .9-.1 1.9-.1 2.8-.1.5-.1 1.1-.3 2-.3l2.4-.7c-.2-.2-.2-.3 0-.5s.2-.3.2-.5h-.8c-.8.1-1.6 0-2.3-.5-3.1.1-5.3-.1-6.4-.4h-2.5c-.8.1-1.4 0-2.2-.2-.2.2-.5.1-.8.1h-2c-3.3-.2-5.9-.4-7.9-.3l-7.6.5c-.2-.2 0-.5.2-.8-.3-1.1-.4-1.9-.4-2l-.9-.9c-.5-.8-.9-1.3-1.7-1.3-.3 0-.6 0-.9.1-.2.2-.5.1-.8-.2-.8 0-1.4.3-1.9 1.1-1.1.3-1.9.4-2.3.4-.9.9-1.4 1.7-1.4 2.3l-.5.8c-.5 1.1-.3 1.7-1 1.5h-.9l-.2.2c-1.1.1-1.7.3-2 .3-.2.6-.3 1.7-.4 3.1-.5.3-.6.6-.6.9l.2-.2h.3v3.4c0 .2-.3.3-.8.5l2.5 2.5c.2 0 .8.2 1.6.3 0 .5.1 1.1.6 1.9l-.3.1v.2l.3-.2c.7 2.8 1.2 5 1.3 6.4h-.3c0 .8.1.9.3.5v.9h-.3l.1.5.2-.2c.1.5.1 1.2.1 2.2 0 1.1.3 3.4.3 4.5l-.2.5.2-.2c.1 1.2.3 2.2.1 2.8.2.2.2.5 0 .6l-.3-.3c-.5.8-.6 1.1-.8 1.1h.3c.2 0 .5-.2.9-.3 0 .5.3 1.6.3 2l-.8-.6h-.5l-.2-.3h-.2v.2c-.2 0-.2.2 0 .3-.2.2 0 .5.3.9h.6c.2.2.2.2.2.3 0 .2-.2.2-.3.3-.2 0-.2.2 0 .5l-.3.3.2.2c-.2.2-.3.3-.2.5.2.2.2.2.2.3h.3v-.2h.5v-.2c.5 0 .6 0 .8.2-.2 0-.6.3-1.3.9l.9.9.3.5c-.3 0-.6-.2-.8-.6v.2h-.5c-.2 0-.3.2-.3.3.1.9.4 1.6.9 2 .2 0 .8.3 1.9 1.1-.5.5-.5.6-.3.6-.2.2 0 .3.5.6h-.2c.5 1.1.6 1.7.6 2.2-.2.3-.3.6-.2.9.1.5.3.8.3 1.1 0 2.3.5 8.3.5 10.6 0 .8.1 1.9.3 3.6l-.2.2c-.2 0-.2.3.3.9.4 6.2.5 9.2.5 9 .2.2.2.5 0 .8-.2.2 0 .5.3.8l.6-.1c.1 1.1.3 2 .1 2.7v.9c.1.5.5.6.6.6.5.2.9.2 1.4 0 .5-.1 1.1 0 1.7.3 0 .5-.8.1-.8.8 0 .2.2.3.3.3l-.5.3.6.3.6-.6c-.3 0-.5 0-.3-.2 0 .2.2.2.6-.3 0-.8 0-1.1.2-.9l.5-.6v1.6h.6c.3 0 .8-.5 1.6-1.4l1.4-.6 1.1-.5c.8-.6 1.4-1.1 1.9-1.2 1.9-.8 3.4-1.2 4.7-1.2l.2-.3c-.2.2-.2 0-.1-.5l-.3-.3c0-.2.2-.2.3-.1v-.3c1.3-.4 1.9-.6 1.7-.6.8-.1 1.4-.4 1.9-.6 3-1.1 6.7-2.1 11.4-3h.2c4.2-1 6.4-1.6 6.6-1.6.3 0 .6-.1.8-.3.3-.2.6-.3.9-.3v-.2c2-.4 3.3-.6 3.4-.7.6 0 .8 0 .6-.1v-.3l.7-.2zm-32.2-17.6c0 .1 0 .1 0 0zm11.5-42.9c-.1 0-.1 0 0 0zm3.6 31.4c0-.1 0-.1 0 0zM388 64.2c-.8.6-1.1 1.1-.7 1.1l.7-1.1zm23.8 35c-.3.2-.6.4-.8.4.5-.2.8-.4.8-.4zm14.4-11.1l.3-.2h.2c-.4-.6-.7-.6-.7-.1l.2.3zm26.2 37.4s-.2 0-.5.2c.1.2.4.3.5-.2zm-76.1-24.2c0 .2-.3.7-.7 1.1h.2c.3-.2.3-.7.7-1.4l-.2.3zm4-6.8c-.3.2-.3.4-.3.7 0-.2 0-.2.3-.5v-.2zm30.6-1.1l.2.3c.5.1.5.1.3-.2l-.5-.1zm15.7-27.5c.2 0 .3-.2-.1-.8l.1.8zm-14.9 26.8c.5.1.5-.2.1-.5l-.1.5zm4.4 14.5s0 .2-.1.5c.3 0 .3-.2.1-.5zm-35.7-13.7c.3-.2.2 0 .2.3l-.2-.3zm5.1-25.5c0-.2 0-.2.3-.5h.2c-.2.3-.5.5-.5.5zm25.3 8.3v-.2l-.2-.5.2.7zm32.8-63.9v.2c.3-.2.5-.2.5.1v-.2c-.2 0-.5-.1-.5.2v-.3zm-29 68.9c-.3.2 0 .2.2.3l-.2-.3zm-2.4-6.1l.5.3-.5-.3zm2.8 30.9h-.2.2zm18.7-27.3h.2-.2zm-9.6-19.7l-.2-.3.2.3zm2 5.7v-.2.2zm-10.4 43.1l.3-.2-.3.2zm-13.1-97.4v.2-.2zm12.2 95.3v.2-.2zm5.7-1.7l.2.3-.2-.3zm11.9-71.5h.2-.2zM386.7 60v.2-.2zm42.5 7.3v.2-.2zm11.4-59.5h-.2.2zM412.1 102v.2-.2zm8 1.6l-.2-.3.2.3zm5.9-42h.2-.2zm.3 3.3v.2-.2zm5.6 14.6l.2.3-.2-.3zM414 106.4l-.2-.3.2.3zm21.9-27.5v.2-.2zm-10.1-10.6h.2-.2zm-16.5 27.3l-.3.2.3-.2zm26.9-18.2h-.2.2zm.4 1.8V79v.2zm-52.5 12.6v.2-.2zm-4 9.6l.2.3-.2-.3zm32.1-.2h.2-.2zm20.2-21.9l.3-.2-.3.2zm-8.7 23.1l.3-.2-.3.2zm1.7-11.7h-.2.2zm11.2-9.8v-.2.2zm-7.7-13.4v.2-.2zm-43.8 12.3l.3-.2-.3.2zm30.9 30.1h.2-.2zm-41.3-4.1c0-.2.1-.5.3-.4l-.3.4zm63.4-24.9l.3-.2-.3.2zm-1.9-3.5v.2-.2zM414.6 111v-.2.2zm3.8-2.7h-.2.2zm-32.7-22.5v.2-.2zm73.1 42.8h.2-.2zm-50.5-22v-.2.2zm18.3-40.7h-.2.2zm8.9 12.4v-.2.2zm-60 25.9l.3-.2-.3.2zm30.5-4.1v-.2.2zm.5-1.7h.2-.2zm51.8 30.1l.2.3-.2-.3zm-46.2-24.6l.5.1-.5-.1zm5.9 4.1h.2-.2zm8.5-19.8h-.2.2zm9.4-10.8h-.2.2zM418.5 108v.2-.2zm-34.7-15.3h.2-.2zm31.9 15.2h-.2.2zm-40.6-2.8v.2-.2zm11.5-37.9l-.3.2.3-.2zM440 79.9v-.2.2zm-21.2 25.7l.2.3-.2-.3zm-5.7-22.8v-.2.2zm36.6 40.6h.2-.2zm-73.9-17.9v-.2.2zm-2.5-.1h.2-.2zm59.4-87.6h.2-.2zm-17.5 92.3h-.2.2zm35.8 16.2l.3-.2-.3.2zm-37.9-32.9l.4.3c-.2-.2-.4-.3-.4-.3zm-1.5 8.7l-.3.2.3-.2zm40.8 24.6h-.2c.3-.2.3-.2.2 0zM426 66.8c-.2-.3-.2-.3-.4-.3l.4.3zM379.1 101l-.3.2.3-.2zm31.9-1.2v-.2.2zm29-19.6h.2-.2zm-13.8-14.4v.2-.2zm-12.8 27.4l-.3.2.3-.2zm3.7 15.4v.2-.2zm-44.1-2.5h-.2.2zm47.6 2.5l-.2-.3.2.3zm-6.2 1.8l-.3.2.3-.2zm-.4-7.7h-.2.2zm-31.7-13.9h.2-.2zm3.7-1.7l.4-1.2-.4 1.2zm21.8 15.5l.2.3-.2-.3zm-23.4-10.8c-.1.7-.1 1-.4.9.3-.6.4-.9.4-.9zm30.9 14.1h-.2v.2l.2-.2zm10.8-37.6l.3-.5-.3.5zm.9-2.8s0-.2-.2-.5c-.1.2-.1.2.2.5zm5.4 13.8l-.3.2.3-.2zm-17.8 29.9l.5.1v.2c-.3-.2-.5-.3-.5-.3zm2.8-2.5l.5.3c-.3-.3-.5-.3-.5-.3zm-6.3-11.3l.2.3-.2-.3zm-29.4 1.3h-.2.2zm69.1 29.5l.2.5-.2-.5zm-75.3-20.3s0-.2.3-.4v.2l-.3.2zm13.3-43.4l-.6.9v.2l.6-1.1zm12.5-55.1v.2h.2l-.2-.2zm16.1 101.2v-.2.2zm-1.2 1.6l.3-.2-.3.2zm-1.7-.5v-.2h.2l-.2.2zm11.6-44.9c.2.3.2.3.5.3h-.2l-.3-.3zm-.8-1.8s0 .2.1.8l-.1-.8zm-40 4.5c0-.2.1-.5.3-.7-.2.4-.2.7-.3.7zm34.2 38.5l-.5-.1c.2 0 .5.1.5.1zm-40.2-2.5c-.2 0-.5.2-1.1.6l1.1-.6zm46.4-39.9c0 .2-.1.5.2.5l-.2-.5zM384 68.3s.2 0 .7.3l-.5.2-.2-.5zm31.4 42.3l.3-.2c-.1 0-.1 0-.3.2zm-1-31.8c0-.2.1-.7-.1-1.2l.1 1.2zm-39.6 26.5c-.3.2-.3.2-.5.2l.5-.2zm39.6.2l-.1.5.1-.5zm21.2-29.7h.2v-.2l-.5.2h.3zM428 58.2c-.3.2-.3.7-.1 1l.1-1zm-55.6 48.3h-.2v-.2l.2.2zm12.8-17c.2.3.2.3-.1.5l-.3.5.4-1zm16.9-80.8c-.3.2-.1.5.1.8l-.1-.8zm48 116.9s0-.2.3-.7c.2.3 0 .2-.3.5v.2zm1.2.2s.2 0 .5-.2c-.2-.2-.4-.3-.5.2zm-25.2-57.5c-.3.2-.3.4-.3.4l.3-.4zm-11.3 13.2l-.1.5.3-.2-.2-.3zm-2.3-3c.4.6.6.8.4.8l-.4-.8zm3.8 28.8l.3-.2-.7-.1.4.3zM433.5 77l.5.1-.2-.3-.5.2h.2l-.3.2.3-.2zm-18.4 5.6h-.2l.1-.5c-.3.2-.3.5-.3.7l.4-.2zm-37.8 26.3l.6-.7-.6.7zm32.3-8.3l-.1.5-.2-.3.3-.2zM385.2 91l.6-.7c-.3.5-.6.7-.6.7zm23.6 14.9s0 .2-.3.7l.3-.7zm2.8-10.5v-.2l.2.3-.2-.1.2.3v-.2.2l-.5.2.3-.5zm-34.7 12.5c-.3.7-.7 1.1-.9 1.1l.9-1.1zm2-5.2c.2.3.2.5-.3.7.2-.5.3-.7.3-.7zm34.4-24.6s0-.2.3-.4l.1.8c-.2-.3-.4-.4-.4-.4zm-5.1 23.5l.4.8-.5-.1.1-.7zm-25.9-14c-.2 0-.2-.3-.1-1l.1 1zm52.5-11.4s.2 0 .5.3l.3-.2v-.2c-.2 0-.5-.1-.8.1zm4.5-67.9s.3-.2 1.1-.6l-1-.1.2.3c-.3-.1-.6.1-.3.4zm-66.5 97.2c.6-.7.9-.9.6-.9-.6.7-.9.9-.6.9zm14.2-39c.3-.2.3-.7.4-.9-.3.2-.6.4-.4.9zm-6 33.3c-.2 0-.3.2-.3.5l-.3.2v.2l.6-.9zm4.2-20.5s0 .2-.1.5l-.5.2v.2s0-.2.1-.5l.1-.5.2.3.2-.2zm-.4 5.9c.2 0 .2.3-.6.9l.6-.9zm56.5-78.8v.2h-.4l-.3.2.7-.4zm-6.6 74.3c.2 0 .4.3.4.6-.3.4-.5.1-.4-.6zM432 29.8s0-.2.3-.7l.2.3v.2l-.5.2zm-46.7 37.9s0 .2-.3.7l-.3.2v-.2l.6-.7zm29.8 41.4c-.2-.5-.1-.8.1-1l.2.5-.3.2v.3zm5-5.5l.5-.2-.5.2zm12.6-76.9l.4.6c-.7-.2-.9-.4-.4-.6zm18.4 98.8v.2h-.2l-.5.2.3-.4.2.3v-.2h-.2l.4-.1zM431.7 32c.1-.5.1-.7.3-.7h.2l-.3.2.2.5h-.4zm-19.2 46.3c.3-.2.5-.2.7.1.3.2 0 .2-.7-.1zm-27 5.5c.2.3-.1.5-.6.7v-.2h-.2l.8-.5zm-6.4 11.8c-.1.7.2.5.8-.4l-.5-.1v.2l-.3.3zm33.4.5h.2l-.2-.5v.2h-.2l-.3.2.5.1zm1.9-12.1c.5-.2.8-.4.6-.7l-.2-.5-.4 1.2zm-3.4 8.6s.2.3.9.6l-.2-.3v.2l-.2-.3.3-.2h-.8zm10.4 12.2c.4.6.4.8.1.8l-.1.5-.2-.3.2-1zm-37.1-17.7l.2.5c0 .2-.1.5-.3.7l-.3.2.4-1.4zm27.1 7.6c.3-.2.3-.4.3-.7 0-.2.2 0 .5.3l-.3.2-.5.2zm23.1-18l.4.6c.2 0 .5-.2.6-.7h-.2v.2l-.8-.1zm-21 28.2c.7.1.8-.1.1-1l-.1 1zm-2.8-3.4l.4.6.3-.2-.2-.5-.2-.3-.1.5-.2-.1zm14.9-12.2l.3-.7.2.3c.2 0 0-.2-.2-.5-.2 0-.5.2-.6.7l.3.2zm11.7-5.8c.9-1.1 1.2-1.6 1.1-1.1 0 .3-.3.5-1.1 1.1zm-22.7-2.2l.3-.2c.3-.2.3-.2.1-.5-.2-.3-.2-.5-.1-.8l-.3.2v1.3zm44.1-32.4s0-.2.3-.5c.2 0 .4.3.4.6 0 .2-.3.2-.5.2l-.2-.3zm-78.4 43.6l.5.1c-.8.6-1.1.6-1 .1l.5-.2zm31.2 8.6s.2.3.4.8h.2l-.2-.3c0-.2.1-.5.3-.5l-.5-.3-.2.3zm1.3-19.8l.1-.5c.2.3.4.6.2.5-.1.5-.1.7.1 1v.2l-.4-.6h-.2l.2-.6zm-36.1 20.8c.6-.7.9-.9.6-.9 0-.2.1-.5-.2-.5h-.2l.2.3c-.2.2-.3.7-.4 1.1zm36.5 1l.2.3.6-.4c-.5-.1-.7-.1-.9-.4 0 .2-.1.7-.4.9l.5-.4zm5.2 3.7s0-.2.3-.5c0-.2.3-.2.7.3v.2h.2v.2c0 .2-.3.4-.6.4.3-.2.3-.2.1-.5-.2-.3-.2-.3-.2-.5l-.3.2-.2.2zm2.1-4.4s.2 0 .5-.2c.5.1.5-.2.1-.7h-.2c-.2-.3-.3.2-.4.9zm-40.4 5.4l-.3.2-.1.7c.8-.6 1.4-.8 1.1-1.1-.2-.3-.5-.3-.5-.1v.2l-.2-.3v.4zm55.5-91.3c.4.3.4.3.2.5-.3.2-.3.2-.1.5l.6-.9-.3-1.3c-.2.2-.3.4-.4 1.2zm-49.2 21.2l.6-.4c.2 0 .5.3.4.6-.1.7-.3.7-.8.4-.3-.1-.3-.4-.2-.6zm27.9 47.2l1 .1v.2c-.5-.3-.7-.1-.8.4l.7.1v-.2h-.2l.3-.2h.2l.2.3.1-.5-.5-.1.3-.4-.8.1-.2-.3v-.2l-.5-.1c.3.4.2.6.2.8l-.2-.3-.3.2.5.1zm-40.9-44.6s.3-.2.8-.4c.2 0 .4.3.4.6-.3.5-.6.7-1.1.6-.2-.1-.2-.3-.1-.8zm6.7-19.8c-.2-.5-.1-.8.4-.9 1 .1.9.6.9.9l-.3.2c-.3.2-.3.2-.5.2-.3-.1-.3-.1-.5-.4zM460 52.3s.3-.2.8-.6l.4.6c.1.8-.1 1-.9.9-.1-.4-.3-.6-.3-.9zM389.7 5s.3-.2.6-.9c.2 0 1 1.6.7 1.8-.4 0-.8-.3-1.3-.9zm30.8 101.1l-.6.4-.4-.6.5.1.1-.5c.8-.4 1.1-.6 1-.3.2.3.2.5-.1.5h-.2l.2.3v.2l-.6.4.2.3v.2l.5.3c.2.3 0 .2-.3.4l-.2-.3h-.2l-.1-.8.2-.6zm14.3-27.7c.2.3.2.3.2.5v-.2l-.3.5.5.1v.2l-.3.2c.4.6.4.8.1.8l-1.1-.7.3-.2.1-.5-1 .1.3-.2-.5-.1c.2 0 .5.1.8-.1s.5-.2 1.2-.1l-.3-.3zm32.5 22s.3-.2 1.1-.8c.5.1.7.3.6 1.1-.3.7-.9.9-1.1.6-.5-.2-.7-.4-.6-.9zm-43.2-41.3l-.1.7.1-.5c.1.8.6.8.9.6l-.5-.1c.1-.5.4-.9.7-1.6l-.1.5c.2 0 .5-.2.3-.5s-.2-.3.1-.5l.6-.4h-.2l-.8.1c0-.2-.2-.3-.8.1l-.1 1-.1.6zM403 9.1c-.1.7-.1 1-.4 1.2l.2.3.3-.2h.2v.2l.3-.2.1-1c.2 0 .5.1.5-.2h-.2c-.2 0-.2-.3-.2-.5h.2v.2c0-.2.1-.5.3-.4l-.4-.5v.2l-.5-.3-.1.5-.3-.8c-.2 1-.2 1.5 0 1.5zm-14.9 32.1c.1-.7.3-.7 1-.3.7.1.7.3.3 1-.3.7-.9.9-1.1.6-.3-.4-.6-.7-.2-1.3zM385.7 21c.3-.5.8-.6 1.1-.6.7.3.9.9.8 1.6 0 .2-.5.2-1.2.1-.5-.1-.8-.3-.7-1.1zm41 42.9l-.2-.3.2.3-.3.2.3-.2.3-.2.1-.7c-.2 0-.5-.1-.7-.3.8-.1 1-.3.6-.7l.4-1.2.1-1 .5.1v.2l.3-.4-.7-.1.3-.2-.7-.6c-.2-.5-.2-.3-.3.7l.5.3c.2.3 0 .2-.3.5-.2-.3-.2-.3-.4-.3l-.2 1.7v.2h-.2l.4 2zm39.7 39.1c.1-.7.4-.9 1.1-.8.2 0 .7.3.9.6.2.5.1 1-.5 1.7l-1.5-.2c-.1-.4-.3-.9 0-1.3zm-88.5-75.4c.4-.9 1.1-1.1 2.3-.7.1.8.3 1.3 0 1.5-.3.7-.6.9-.9.9-.2-.1-1.8-.8-1.4-1.7zm-1.3-15.3c.3-.7.9-1.1 1.1-1.1.7.1.8 1.6 1.4 2.4.2.3.2.5-.1 1l-1.7-.2c-.6-.8-.8-1.4-.7-2.1zm44.6 22.2c.6-.7 1.1-.8 1.3-.6.7.1 1.2.4 1.4.9.3 1.3.2 1.8-.3 1.9-.7-.1-1.2-.2-1.4-.4-.7-.3-1.1-1.1-1-1.8zm16.3-24c.3 1 .2 2-.1 2.7l.6 1.1.1.8.6-.7c-.2 1.2.4 1 1.3-.6h-.2c.3-.2.6-.4 1-.3v-.2c-.2-.3-.7-.3-.5-1.6l-.3.2c0-.2-.4-.6-1.6-1.2 0-.2-.2-.5-.4-.6l-.5.4zm-26.3 70.3c.5-.2.8-.1 1 .1h.2l.2.3-1.1.6c.7.6.9.9 1.1.7 0 .2-.1.5.1.8l.1-.5.6 1.3.5.1c.3-.7.4-1.2.3-1.9.2-1.2.3-1.9-.5-2v.2l-.4-.6c.3-.2.6-.4.6-.7 0-.2-.1-.8-.2-1.8v.2l-.3-1c-.3.2-.3.2-.5.2v.2h-.2c-.2 1.2-.5 1.9-.8 2.1s-.3.7-.1 1v.2h.2c-.5.3-.6.5-.8.5zm-9.3-70.6s.2 0 .7.3v-.2l-.2-.5c0 .2-.3.2-.8.1l.1-.7h-.2c.2 0 .1-.5-.3-1.3l-.3.4-.2-.5.6-.4h-.2c-.3.2-.6.4-1 .3l-.6-1.1.3-.2-.5-.1-.1.5c-.4-.6-.9-.9-1.1-.7 0 .2.3 1 .3 1.3l.5.1c-.5.2-.6.7-.4.9l.7.1c-.3.2-.6.7-.7 1.1.2.3.2.5.1 1-.3.2-.3.4-.6.4-.1.7-.1 1 .1.8.3-.4 1.3-.8 2.6-.9.2.3.4.3.7.3h.2c0-.2.3-.2.9.6l.2.5c.2-1.2 0-1.7-.2-1.8h-.2l-.1.5-.3-.8zm-30.2 94c.3-.2.3-.5-.1-1l.6-.4-.2-.3c1.1-1.1.6-2.1 1.3-2.3v-.2h-.2c.3-.4.6-.7.3-.7l-.3.4c-.2 0 .1-.5.9-1.4l.3-.4h-.2l.5-.2c.5.1.5-.2.1-.7l-.6.4c.1-.7.2-1.2.4-1.2l-.2-.3.6-.4c.1-1 .6-2.1 1.7-3l.6-.9c.3-2.2.7-1.6.9-2.8l.5.1c.1.8.5.3.6-.9.2.3.3-.2.4-1.4h-.2l.1-.5.5.3-.2 1.2c-.1.7-.2 1.5-.5 1.7-.1.7-.2 1.2-.4.9-1.1.6.2 2-.8 1.9 0 .2.2.5.4.6l1.1-1.1h.2c-.3.7-.6.9-.7 1.1h.2v.2l-.3.2c.7.1.9.4.2.5l-.5.2v.2h.2c0 .2-.3.2-.5.2 0 .2-.1.5.2.5h.2c.2 0 .5-.2 1.1-.8l.2.5.1-.5.3-.2c-.5-.1-.7-.1-.5.2l.3-.4h-.2.2l.1-.5.2.5c0-.2.1-.5.3-.7h-.2l.3-.2c0-.2 0-.2-.2-.5l-.3.2c.1-.7 0-1.5-.2-1.8h.2c0-.2 0-.2.3-.5h-.2.2l.1-.5-.1.5.3-.2h-.2l.3-.7-.1.5c.2 0 .5-.2.8-.4.2.3.2 0 .5-.2.2 0 .2 0 .5-.2l.3-.7.2.3v.2l-.6.4v.2c-.3.2-.3.2.2.3h.2l-.3.2.5.3-.2 1.2c.2.3.2 0 .5-.2l.2.5v-.2.4l-.8.6c0-.2.2 0 .5.3l-.1.5-.2-.3c-.2 0-.5-.1-.5.2l-.6.4c.2.3.5.3.7.3l-.1.7.6-.4h-.2c0-.2.3-.7.9-1.4l-.1.5.3-.2.1-.7h.2v.2h-.2c.2 0 .2.3-.1.5l.5.1c0 .2-.3.2-.5.2-.7 1.1-1 1.8-.8 2.1h.2l1-1.6c0 .2.5.1 1.3-.3 0-.2.1-.5-.1-.8l-.6.4c.1-.7.1-.7.3-.5v-.2l.5.1-.9-.4 1.1-.8-.4-.6c.2 0 .8-.1 1.1-.8h-.2l-.2-.3.1-.7c-.7-.1-.9-.4-.4-.6l.3-.7c-.2 0-.2-.3.3-.7l-.5-.1.4-1.2.2.3c.5.1.8-.1.6-.4-.2-.3-.4-.6-.1-.8v-.2h-.2c-.2 0-.3.2-.6.4l.1-.5h-.2l-.4-.6-.9 1.4.4.6-.3.2h-.2l-.4.9v-.2l-.2-.3c.2 0 .3-.2.3-.7l.8-2.1c-.4-.8-.6-1.1-.3-1l.6-.4c-.2-.5-.4-.8-.6-.8.3-.2.3-.7.4-1.4.2.3.2.3.5.1 0-.2 0-.2-.2-.5s-.2-.3-.5-.1h-.2s0-.2.3-.5l-.5-.1c.3-.2.3-.5.3-.7l-.3.2.1-1-.3.2-.4-.6.5.1c.3-.2.3-.2.3-.5l-.2-.3c.2.3.2.3.5.3h.2v-.2c0-.2.1-.7-.1-1.2 0 .2-.2 0-.4-.8l.1-.7h.2l.3-.5h-.2c.3-.2.6-.7.7-1.4l-.7-.6c-.2 0-.2-.5.2-1.2h-.2l.1-.7c.1-.5.4-1.2.8-1.9l.3-.7-.5-.1-.4-.6-.3.2h.2l-.1 1 .3-.2-.3.7c-.7-.1-.7-.3-.2-.5v-.2l.1-1h-.2l.5-.2c.3-.2 0-.2-.2-.5l-.3.2v-.2l-.2-.3-.3.4v-.2l-.2-.3.2-1.5.5.1v-.2h-.2c-.2-.3-.2-.5-.1-1.2l.4.3v-.4h-.2l.1-.5.3-.2c.1-1 .2-1.5.4-1.4l.1-.5c.3-.2.5-.2.6-.4l-.2-.3c-.2-.3-.4-.6-.4-.8s0-.2.3-.5h.2v.2l.3-.2c-.2-.3-.4-.6-.2-.5h-.2l.1-.5.6-.7h-.2l.3-.2c-.2-.3-.2-.5-.1-.8l.6-.4c.3-.2.3-.4.1-1l-.5-.1.3-.2-.5-.3c-.3.7-.6.7-1.3.6-.2 0-1.4-.9-.9-2.1.1-.5.6-.9 1.4-1.3.5.1.9.4 1.6 1.2.2 0 .5-.2.6-.4l-.2-.3.1-.7.2.3.3-.2h-.2c.5-.2.6-.4.1-.7-.5-.1-.5-.3-.2-.5-.2-.3-.2-.5.1-.7.3-.2.3-.2-.2-.5v-.2l.5.1.1-.5c0-.2 0-.2-.2-.5.4-2.9 3-9.2 3.3-11.2l1.3-5.5c.5-1.7.8-3.6.8-5.6-.4-2.5-.6-4.5-.2-5.7.8-.6 1.1-1.1 1.2-1.6l.3-2.4h-.2l.3-.2c0-.2.1-.5-.2-.5.5.1.5-.2.3-.5s-.4-.6-.2-.5l-.6-.8.5-.2-.5-.3c.2-1.2.3-1.9 0-1.7.2-1.5.4-2.7.2-3.4-.7-.1-1-.1-.7-.3 1.4-2.8 2-3.9 1.9-3.2 1.3-.6 2.1-.9 2.8-.8 0-.2-.2-.5-.7-.6v.2l-.3.2c-.2-.3-.2-.3-.2-.5.2 0 .3-.2.4-.9.3-.2.5-.2 1.2-.1l1.8 1c1.1.7 1.6 1 1.6.7.4.6.7.6.7.3h.2c1.9.3 3.7 1.5 5.4 3.5 0 1.7.4 2.8 1 3.6-.8.1-1.6.5-1.9 1 .6.8.8 1.6.5 2 .2.5.2 1.8.2 3.5l-.2 1.2h-.2l-.1.7.3-.2c-.2-.3-.2-.3.1-.5.1.8.1 1 .4.8.2.3.4.6 1.1.9.8 1.6 1.8 3.2 2.8 4.6 3.1 6.1 5.1 10.9 5.9 14l6.4 17.5c.3-.2.6-.7.4-.9l1-1.6c.1 1.2.7-1.6 2.5-8.6-.2-.3-.4-.6-.5-.3l.6-.4.1-.5c-.2-.3-.2-.3.1-.5h-.2l.1-.5c.1-.5.1-.7-.1-1 .3-.7.7-1.1.8-1.9-.1-.8 0-1.5.1-2.2h.2c-.2 0-.4-.6-.2-1.8.1-.5.4-1.2.8-1.9.3-.2.3-.2.5-.2l.1-.7h.2c.2-1.2.2-1.7 0-2s-.1-.8.2-1.5c-.2 0-.2-.3.1-.5.3-.2.3-.5.1-.7.3-.2.2.3.3 1.5.3-.2.3-.7.5-1.9l.2-1.7c.1-.7.2-1.2 0-2 0-.2-.9-.9-.5-1.8l-.5-.1.3-.2.3-1.9-.6-1.1-.2-.3.1-1c.7.1.3-.5-1.3-1.4l-.4-2.3c.1-.5.4-.9.9-1.4l1.1 2.6c.2.3.2.3.5.1 0-.2 0-.2-.2-.5 0-.2.3-.7.9-.9-.1-.8-.3-1-.1-1-.1-.8-.3-1.3-.2-2 .1-1 .8-1.9 1.6-2.7 2.3-.4 3.8-.5 4-.2l.4.6.3-.2v.2-.2l1.5.2c-.2-.3-.5-.3-.7-.3l.6-.9c.7.1 1.2.4 1.4.7l-.6.4h.2c-.3.2-.3.2-.5.2.2.5-.1.7-.6.7.6.8 1.2 2.1 1.7 3.9 0-.2.3-.2.5-.2v.2c.2 0 .7.1 1.2.4v-.2l-.4-.8-.4-.6.5-.2h-.2l.3-.2c-.7-.1-.1-1-1.1-1.1.1-.7-.9-.9-.8-1.6.2 0 .5-.2 1-.3l.9.9c3 6.9 2 7 3.6 7.4.7.3 1.3 1.4 2 3l.3-.2c2.6 4.6.2 5.2 1.6 6.2l2.9 11.3c3 15.3 5.1 26.9 6 34.7.2.5.3 1 .3 1.5.8 4.8 1.3 10.3 1.7 16.1l1.9 23.3c.1 7.9.2 12.4-.2 13.3l-.5-.1c-.6 2.6-1.6 4-3.1 4.5-.8.1-1-.1-1.1-.9l-.3.2c.1-.5.1-.7-.1-1l-.3.2-.5.2c.1-.5-.1-.8-.7-.6 0 .2-.1.5.1.8l-.2-.3-.1.5c0-.2-.2-.5-.4-.8l-.6.7-.2-.3-.3.2c.2.3.5.3.7.3.2.3-.1.5-.9 1.1-.2-.3-.5-.3-1-.1-.5-.1-.9-.4-1.1-.9-.7-.1-1.2-.4-1.9-.8 0-.2-.1-.8-.3-1 .3-.2.3-.7.4-.9l-.3.2-.2-.3.3-.2-.5-.1v.2l-.3.2-.5-.3h-.2l-.2-.3v-.4h-.2c.2 0 .3-.2.1-.5v-.2l-.9-.6v.2c-.2-.3-.1-.8.1-1h-.2l-.2-.3-.3.2.2.3h-.2l.1-1c.3-.2 0-.2-.7-.3-.3.2-.6.4-.6.7l-.1 1c0 .2-.2 0-.7-.3-.5-5.3.5-6.9-.7-11l-.8-4.6-1.5-10.4c-.5-3.3-1.1-6.3-1.4-9.4.5-1.7-.1-4.2 0-5.4 0-1.7-.1-3 .1-4-.8.1-1.3.6-1.4 1.3l-.3.2c-.3.2-.5.2-.7-.1v-.2c-.2-.3-.2 0-.5.2-.2-.3-.4-.6-1.1-.7l.3-.2h-.2v.2l-.6.4.8.5c-.3.2-.6.4-.6.7l.1-.5-.5-.1.1-.5h-.2l-.6.4-1 .3.4.6h-.2c-.3.2-.5.2-.7-.3l-.1.5-.5.2.6-.9-.5-.1v-.2l.3-.2v-.2h-.2c.3-.2.5-.2.5.1l-.3.2h.2c.7.1 1 .1.8-.1l.1-.5-.8.1v-.2l-.5-.1 1.1-.6h-.4l-.3.2.3-.2-.2-.3-.5-.3c-.5-.1-.7-.3-.7-.6-.3.2-.5.2-.5-.1.3-.2.3-.5-.2-.5.2.3.1.8-.4.9 0 0-.2 0-.7-.1.2.5.4.8.1.8-.2 0-.5.2-.6.4l.5.3-.3.2-.1.5c-.3.2-.3.2-.5.2h-.2v.2l-.3.2c-.3.7-.7 1.1-.9 1.1l.2.3c-1-.1-1.2.1-.8.4-.3.2-.3.5-.4 1.2l-.2-.3c-.1.7-.1 1-.4 1.2.5.1.5.3.2.5l-.2-.3c.1 1-.9 1.1-.9 1.4h.2c-.8.1-.8.4-.3.4-.2 1.2-.2 1.7-.5 1.4l-.2-.3-.3.2c-.4 2.7-.4 2.7-1.1 2.3l-.7-.1c.2.3.4.6.7.6l-.6.4c0 .2-.3.2-.6.4l.7.3-.5-.1-.2 1.2c-.6 2.4-.9 4.3-1 5.5l-.4 2.9c0 .2.2.3.4.6s.2.3.2.5c.7.6.8 1.1.5 1.6h-.2l-.6-1.3h-.2c-.2 0-.2 0-.5-.3l-.3.2c-.2 1.2-.5 1.7-.7 1.4l-.3.2c.2.3 0 .2-.3.4v-.2l.3-.2c0-.2-.2 0-1 .1l.2.3h-.2v.2l-.6.4c-.2 0-.2-.3.1-.5.3-.2 0-.2-.2-.5l-.3.5-.5-.3-.3.2h.2l-.3.2.2.3-.6.4.5.1-.3.2-.5.2.2.3-.6.4.2.5-.1.5c-.2-.3-.5-.1-.8.1l.2.3-.1.7-.9-.9h-.2l.2.3-.3.2-.3.5h.2l-.3.2.4.6.3-.5.1.8v.2l-.2-.3-.3.5-.2-.3c-.2-.3-.2-.3-.4-.3l-.1.5-.5-.1v.2-.4l.6-.4.1-.7-.6-.8-.2-.5-.3.2c-.5-.1-.4-.3-.2-.5l.7.1v-.2c-.3.2-.5.2-1.2-.2l-.3.2h-.2l.7.6c.4.3.2.5-.6.7l-.2-.3c-.3.2-.2-.3-.1-1.2l.5.1.1-.5h.2l-.4-.6.3-.2h-.2l-.5.2.1-.5-.2-.3h.2l-.4-.8h-.2v.2l-.2-.3c-.2-.3-.2-.5.1-.7.5-.2.6-.4.3-.7-.5-.1-.5-.3.1-.5v-.2h-.2l.3-.2-.5-.1.2.3c-.3.2-.3.2-.3.5v.2l.2.3-.5.2c-.3.4-.3.4-.5.2l-.3.2v-.2l-.9-.4.3-.2v-.2c-.5-.1-.4-.3-.2-.5l-.6.7.4.6c0 .2-.3.2-.5.2s-1.1.8-1.4.8h.2l-.3.2h.2l-.5.2.5.1v.2l-.8.1.4.6c.2.3-.1.5-1.3.8.1-.7.2-1.5.5-1.9l.2.5v-.2l1.2-1.3-.7-.1c.8-.1 1-.3.8-.6l-.2-.3.5.1c0-.2.1-.5.3-.5l-.7-.1.6-.7-.1.5h.2c.3-.2.6-.4.6-.7-.2 0-.2 0-.5-.3l.5-.2c-.2 0-.5-.1-.7-.3v-.2l.7.3c.3-.2.5.1.5.3 0 .2 0 .2.2 0l.1-.5h.2l-.2-.3.1-.7h.2v-.2h.2l-.2-.5h-.2l-.3.2v-.2l-.3.2-.4-.3-.1.5c-.3.2-.3.2-.5.2V99c0-.2 0-.2-.2-.5h.2l.2.5c.2 0 .1-.5-.3-1.3l.4.6.3-.2-.2-.3c.9-.9 1.1-1.1 1.1-.6.2.3.2.3.2.5l-.3.2v-.2c-.5-.1-.8.1-.8.6h.2c.1-1 .9.6 1-.3l.2.3.5.1-.2-.3.3-.2-.2-.3c-.2 0-.2-.3-.1-.8l-.5-.1.8-.6-.9-.9h.2l.3-.2.3-.2.3-.2-.2-.3c0-.2-.2-.5-.4-.6v.2h-.2c0 .2 0 .2.2.5-.3.2-.3.2-.3.5v.2h-.2v.2c0 .2-.1.5-.3.4l-.1-.8.3-.2.1-.7-1-.1.3-.5c-.8.1-1.1.6-1.2 1.3v.2l-.6.4.2.3.5.3.5.1c-.3.5-.6.7-.3.7l-.4-.6c-.3.2-.6.4-1.3.6h.2v.2c0-.2-.3.4-1 1.8l-.1.5c0 .2-.3.7-.6.9l.1-.5-.5-.3c.8-.1 1-.3.8-.6l.1-.5-.2-.3c-.2-.3-.5-.1-.8.1-.2-.3.1-.5.3-.7.9.4 1.1-.8 1.4-.8v-.7h.2l.1-.5.5-.2.1-1h.2v-.2h-.2l.1-.5h.2c.7.1 1.2-.1 1-.3-.2-.3-.2-.5.1-.5 0-.2.3-.7.6-.9l-.7-.3.7.1v-.4l.1-1c-.2-.3 0-1.7.4-4.4-.2-.3-.2-.5-.1-1.2.3-.2.3-.5-.1-1 .1-1-.5-1.6-.3-3l.4-3.2.7-.3-.2-.3c.3-.2.5-.2.6-.4 1 .1.2-1.2.9-1.1-.2-.3-.4-.6-.3-1l-.3.2.2.3-.1.7-.4-.8c-.2 0-.3.2-.6.4l.6.8c0 .2-.3.2-.6.4s-.5.2-1.2.1c-1-.1 0 0-.8-1.1.1-.7-.7-2.1-.3-3.3-.2 0-.2 0-.5-.3l.3-.2h-.2c-1-5.3-1.4-9.1-1.8-11.9-6.4 15.4-10.4 24.5-11.8 27.3-2 5.6-3.9 9.8-5.2 12.4-3.8 7.6-8.1 13.4-12.8 17.2-1.1.8-2.1 1.2-2.9 1.1l.6-.7c.6.8 1.2-1.6 1.6-2.3.6-.9 1-1.6 1-1.8.3-.2.3-.5.1-1h.2c1-2.1 1.3-.6 2.3-1.9.3-.2.3-.7-.1-1.2-.2 0 0-.2.6-.7l-1.5-.2c.2-1.2 0-1.7-.3-1-.2 0-.5.2-.6.4-.5-1.8 1.7-1.2 1.8-2.2l-.3.2c-.2 0-.2-.3-.2-.5l-.5-.1c.4.6-.1.7-1.3.6 0-.2.3-.5.8-.6.3-.2.3-.5.1-1h-.2c.2 0 .5.1.8-.1-.3.2-.3.5-.1.5v-.2l.5-.2c.3-.2.1-.5-.1-.8.2 0 .5-.2 1.4-.8v-.2l-1.4.8-.2-.3h.2l.1-.7c0 .2-.3.4-.8.6-.1.7-.1 1-.4 1.2h-.2c.1.8-.2 1.2-.4 1.2l-.2-.3c0 .2-.3.4-.6.7l.2.3.3-.2c-.3.7-.6.9-.8.6l-.4-.6c.3-.7.9-.9 1.1-1.1l-.2-.3-.9.9.3-.4.3-.2.1-.5h-.4c-.2-.3.1-.5.3-.7h-.2l-.5.2.3-.2-.3.2-.9 1.4-.6.4-.4.9c-.2 0-.5.2-.8.6l-.3.2-.7-.6v.2l-.4-.6-.1-.8.4-.4zM423 102c-.4-.3-.4-.3 0 0zm34.8 26.7c.2.3.2.3 0 0zm-45.1-48.4c.3-.2.3-.2 0 0zm24.8 0c-.2-.3-.2-.3 0 0z"/></svg>